<svg width="406" height="76" viewBox="0 0 406 76" fill="none" xmlns="http://www.w3.org/2000/svg">
<g clip-path="url(#clip0_650_10253)" filter="url(#filter0_d_650_10253)">
<path d="M0.5 0.5H367.273C369.484 0.5 371.608 1.36151 373.194 2.90173L401.002 29.9017C404.44 33.2403 404.44 38.7597 401.002 42.0983L373.194 69.0983C371.608 70.6385 369.484 71.5 367.273 71.5H0.5V0.5Z" fill="url(#paint0_linear_650_10253)"/>
<path d="M0.5 0.5H367.273C369.484 0.5 371.608 1.36151 373.194 2.90173L401.002 29.9017C404.44 33.2403 404.44 38.7597 401.002 42.0983L373.194 69.0983C371.608 70.6385 369.484 71.5 367.273 71.5H0.5V0.5Z" stroke="url(#paint1_linear_650_10253)" style="mix-blend-mode:overlay"/>
<g clip-path="url(#clip1_650_10253)">
<path d="M48.9847 47.398H17.9244C16.866 47.398 16 46.532 16 45.4736V26.4699C16 25.4114 16.866 24.5454 17.9244 24.5454H48.9847C50.0431 24.5454 50.9091 25.4114 50.9091 26.4699V45.4736C50.9091 46.532 50.0431 47.398 48.9847 47.398Z" fill="#F6F5F5"/>
<path d="M25.6702 24.5454V47.398" stroke="#D11149" stroke-width="0.962213" stroke-miterlimit="10"/>
<path d="M16 32.118H50.9091" stroke="#D11149" stroke-width="0.962213" stroke-miterlimit="10"/>
<path d="M24.7946 30.2321L25.6702 32.1181L23.6015 31.9449C22.6778 31.8679 22.187 30.8191 22.7259 30.0589C23.2455 29.2988 24.4001 29.395 24.7946 30.2321Z" stroke="#D11149" stroke-width="0.962213" stroke-miterlimit="10" stroke-linejoin="round"/>
<path d="M26.5555 30.2321L25.6799 32.118L27.7583 31.9352C28.682 31.8582 29.1727 30.8094 28.6339 30.0493C28.095 29.2987 26.95 29.395 26.5555 30.2321Z" stroke="#D11149" stroke-width="0.962213" stroke-miterlimit="10" stroke-linejoin="round"/>
<path d="M25.6702 32.118C25.6702 32.118 23.0145 32.9263 22.4949 35.5916" stroke="#D11149" stroke-width="0.962213" stroke-miterlimit="10" stroke-linecap="round" stroke-linejoin="round"/>
<path d="M25.6702 32.118C25.6702 32.118 28.326 32.9263 28.8455 35.5916" stroke="#D11149" stroke-width="0.962213" stroke-miterlimit="10" stroke-linecap="round" stroke-linejoin="round"/>
<path d="M45.4149 43.8955H38.0924C37.4477 43.8955 36.9185 43.3663 36.9185 42.7216V38.0356C36.9185 37.3909 37.4477 36.8617 38.0924 36.8617H45.4149C46.0595 36.8617 46.5888 37.3909 46.5888 38.0356V42.7312C46.5888 43.3759 46.0692 43.8955 45.4149 43.8955Z" fill="#D11149"/>
<path d="M38.7082 43.0392H41.3255V37.7855H38.7082C38.2271 37.7855 37.8326 38.18 37.8326 38.6611V42.154C37.823 42.6447 38.2175 43.0392 38.7082 43.0392Z" fill="#F6F5F5"/>
<path d="M42.1818 39.989V37.7759H44.799C45.2801 37.7759 45.6747 38.1704 45.6747 38.6515V39.9794H42.1818V39.989Z" fill="#F6F5F5"/>
<path d="M45.6843 40.8261V42.154C45.6843 42.6351 45.2898 43.0296 44.8087 43.0296H42.1915V40.8165H45.6843V40.8261Z" fill="#F6F5F5"/>
</g>
<path d="M65.5391 34.0255C65.9591 32.8967 69.1617 32.9754 70.8418 33.2379C71.9443 33.3954 72.3906 34.0255 72.3906 34.0255C73.5982 35.5743 72.9944 40.9295 72.9944 40.9295C72.8369 43.5284 70.5005 43.5284 70.5005 43.5284C69.1092 43.5284 67.6392 43.0034 67.6654 41.1395C66.9566 42.0583 65.0665 43.0559 62.0739 42.5308C62.0739 42.5308 56.0099 41.717 56.0099 34.0255C56.0099 34.0255 55.7211 27.5939 62.0739 25.4939C62.0739 25.4939 67.0354 24.05 70.238 27.3839C70.238 27.3839 71.6818 28.9065 70.6843 31.0328C70.6843 31.0328 69.8443 33.0542 66.4841 31.7416C66.4841 31.7416 63.3865 30.6653 63.334 33.7367C63.334 33.7367 63.334 36.8868 66.4841 35.7843C65.014 35.1805 65.5391 34.0255 65.5391 34.0255Z" fill="#F6F5F5"/>
<path d="M78.8484 42.8721C76.1445 42.9771 75.4357 40.772 75.4357 40.772C74.1757 37.2806 75.3307 32.9754 75.3307 32.9754C76.1183 30.0353 78.6646 30.1666 78.6646 30.1666C81.631 30.0091 82.2348 33.0017 82.2348 33.0017C82.2348 33.0017 82.9698 35.5743 82.2085 40.0895C81.736 42.9509 78.8484 42.8721 78.8484 42.8721ZM78.5596 29.484C76.9321 29.6415 75.5407 28.6177 75.357 27.1739C75.2257 25.7826 76.407 24.4438 78.0084 24.2863C79.5834 24.1288 81.0272 25.1526 81.1847 26.5964C81.316 28.014 80.1347 29.3265 78.5596 29.484Z" fill="#F6F5F5"/>
<path d="M97.6704 31.7416C97.8017 34.3142 94.6778 33.7892 94.6778 33.7892C94.6778 33.7892 96.1479 42.6883 91.4227 42.8984C87.3012 43.0821 87.3275 39.4595 87.4062 33.7892C87.4062 33.7892 84.1774 34.7868 84.0199 32.0304C83.9411 30.1141 86.1724 29.8515 87.4062 30.1403C87.4062 30.1403 87.1175 27.8565 88.6926 25.8089C88.6926 25.8089 90.6876 23.0525 95.5703 24.3651C95.5703 24.3651 97.5654 24.8901 97.3554 26.5702C97.3554 26.5702 97.3029 28.119 95.7278 28.0665C95.7278 28.0665 94.5991 28.0402 94.284 28.9065C94.284 28.9065 94.1265 29.3003 94.1528 30.1666C94.1528 30.1928 97.5392 29.1165 97.6704 31.7416Z" fill="#F6F5F5"/>
<path d="M106.832 24.3125C110.822 24.3125 110.297 28.5652 110.297 28.5652C110.297 28.5652 114.865 28.0664 114.865 31.7678C114.865 35.2067 110.586 34.813 110.586 34.813C110.586 34.813 111.61 42.8196 107.488 42.8196C103.393 42.8196 103.682 39.0132 103.997 34.6817C103.997 34.6817 99.1668 35.6005 99.1668 31.7678C99.1668 29.0902 101.871 28.539 103.524 28.539C103.524 28.5127 102.711 24.2863 106.832 24.3125Z" fill="#F6F5F5"/>
<path d="M130.694 36.6506C128.883 41.612 126.625 44.9197 126.625 44.9197C126.625 44.9197 124.394 49.2511 121.06 47.6235C117.884 46.101 120.299 41.507 120.824 40.3782C120.43 39.9845 119.984 39.617 119.984 39.617C117.884 38.0156 116.703 36.0731 116.703 36.0731C116.703 36.0731 114.576 33.0279 117.464 30.6916C117.464 30.6916 120.036 28.9327 122.557 32.1091C123.082 32.7917 123.554 33.4479 123.974 34.078C124.683 32.7917 126.652 28.9852 129.776 30.4028C129.776 30.3766 132.637 31.2691 130.694 36.6506Z" fill="#F6F5F5"/>
<path d="M133.661 28.2502C133.661 28.2502 133.923 24.4175 137.677 24.4175C137.677 24.4175 140.696 24.4963 141.484 27.7514C142.219 30.8491 141.484 33.6054 141.484 33.6054C141.484 33.6054 140.67 36.5718 137.677 36.5718C134.291 36.5718 133.792 32.7391 133.792 32.7391C133.372 31.0853 133.661 28.2502 133.661 28.2502ZM137.651 38.0681C135.945 38.0681 134.553 39.2232 134.553 40.667C134.553 42.1108 135.945 43.2658 137.651 43.2658C139.383 43.2658 140.775 42.1108 140.775 40.667C140.775 39.2232 139.383 38.0681 137.651 38.0681Z" fill="#F6F5F5"/>
<path d="M156.226 22.589V23.915C155.646 23.551 154.987 23.369 154.25 23.369C153.774 23.369 153.397 23.4773 153.119 23.694C152.851 23.902 152.716 24.1793 152.716 24.526C152.716 24.8727 152.851 25.15 153.119 25.358C153.388 25.566 153.8 25.7913 154.354 26.034C154.718 26.19 155 26.3243 155.199 26.437C155.407 26.5497 155.641 26.71 155.901 26.918C156.17 27.1173 156.365 27.36 156.486 27.646C156.616 27.9233 156.681 28.244 156.681 28.608C156.681 29.3793 156.408 29.986 155.862 30.428C155.316 30.87 154.61 31.091 153.743 31.091C152.781 31.091 151.984 30.9047 151.351 30.532V29.141C152.036 29.6523 152.829 29.908 153.73 29.908C154.207 29.908 154.584 29.7997 154.861 29.583C155.139 29.3577 155.277 29.05 155.277 28.66C155.277 28.426 155.195 28.2137 155.03 28.023C154.866 27.8237 154.688 27.6763 154.497 27.581C154.307 27.477 154.021 27.3383 153.639 27.165C153.414 27.061 153.254 26.9873 153.158 26.944C153.072 26.9007 152.924 26.8227 152.716 26.71C152.508 26.5973 152.352 26.502 152.248 26.424C152.153 26.346 152.032 26.2377 151.884 26.099C151.737 25.9603 151.629 25.8217 151.559 25.683C151.499 25.5443 151.438 25.384 151.377 25.202C151.325 25.0113 151.299 24.8077 151.299 24.591C151.299 23.8457 151.568 23.2563 152.105 22.823C152.651 22.3897 153.353 22.173 154.211 22.173C155 22.173 155.672 22.3117 156.226 22.589ZM162.317 27.23V26.996C162.299 26.502 162.165 26.112 161.914 25.826C161.662 25.5313 161.303 25.384 160.835 25.384C160.401 25.384 160.029 25.5443 159.717 25.865C159.405 26.177 159.21 26.632 159.132 27.23H162.317ZM163.136 29.505V30.649C162.65 30.9263 162.009 31.065 161.212 31.065C160.189 31.065 159.374 30.7573 158.768 30.142C158.161 29.5267 157.858 28.7207 157.858 27.724C157.858 26.6667 158.135 25.839 158.69 25.241C159.244 24.6343 159.951 24.331 160.809 24.331C161.649 24.331 162.317 24.5953 162.811 25.124C163.305 25.644 163.552 26.398 163.552 27.386C163.552 27.6547 163.526 27.9363 163.474 28.231H159.145C159.231 28.803 159.474 29.2407 159.873 29.544C160.271 29.8473 160.774 29.999 161.381 29.999C162.083 29.999 162.668 29.8343 163.136 29.505ZM166.326 24.409V25.54C166.716 24.7253 167.4 24.318 168.38 24.318C169.03 24.318 169.545 24.5173 169.927 24.916C170.308 25.3147 170.499 25.8563 170.499 26.541V31H169.225V26.84C169.225 26.3807 169.108 26.0297 168.874 25.787C168.648 25.5443 168.345 25.423 167.964 25.423C167.513 25.423 167.127 25.6007 166.807 25.956C166.486 26.3027 166.326 26.7923 166.326 27.425V31H165.052V24.409H166.326ZM174.877 29.973C175.38 29.973 175.804 29.7823 176.151 29.401C176.498 29.0197 176.671 28.439 176.671 27.659C176.671 26.905 176.489 26.346 176.125 25.982C175.77 25.618 175.367 25.436 174.916 25.436C174.405 25.436 173.984 25.6397 173.655 26.047C173.326 26.4457 173.161 27.0177 173.161 27.763C173.161 28.4217 173.321 28.9547 173.642 29.362C173.971 29.7693 174.383 29.973 174.877 29.973ZM176.671 21.809H177.958V31H176.671V29.999C176.212 30.727 175.54 31.091 174.656 31.091C173.789 31.091 173.105 30.766 172.602 30.116C172.099 29.4573 171.848 28.6643 171.848 27.737C171.848 26.7057 172.112 25.878 172.641 25.254C173.17 24.63 173.85 24.318 174.682 24.318C175.54 24.318 176.203 24.682 176.671 25.41V21.809ZM184.226 24.409V25.462C184.599 24.6993 185.219 24.318 186.085 24.318C187.073 24.318 187.706 24.7427 187.983 25.592C188.165 25.1847 188.43 24.8727 188.776 24.656C189.123 24.4307 189.513 24.318 189.946 24.318C190.622 24.318 191.134 24.5173 191.48 24.916C191.836 25.3147 192.013 25.865 192.013 26.567V31H190.739V26.84C190.739 25.8953 190.358 25.423 189.595 25.423C189.214 25.423 188.872 25.592 188.568 25.93C188.274 26.268 188.126 26.7663 188.126 27.425V31H186.852V26.84C186.852 25.8953 186.467 25.423 185.695 25.423C185.323 25.423 184.985 25.592 184.681 25.93C184.378 26.268 184.226 26.7663 184.226 27.425V31H182.952V24.409H184.226ZM196.499 31.117C195.529 31.117 194.766 30.8007 194.211 30.168C193.657 29.5353 193.379 28.7337 193.379 27.763C193.379 26.775 193.665 25.956 194.237 25.306C194.809 24.6473 195.563 24.318 196.499 24.318C197.505 24.318 198.28 24.6387 198.826 25.28C199.372 25.9127 199.645 26.723 199.645 27.711C199.645 28.699 199.364 29.5137 198.8 30.155C198.246 30.7963 197.479 31.117 196.499 31.117ZM196.486 25.397C195.923 25.397 195.485 25.6223 195.173 26.073C194.861 26.515 194.705 27.0653 194.705 27.724C194.705 28.374 194.866 28.9243 195.186 29.375C195.507 29.817 195.945 30.038 196.499 30.038C197.089 30.038 197.535 29.8213 197.838 29.388C198.15 28.9547 198.306 28.4043 198.306 27.737C198.306 27.0523 198.159 26.4933 197.864 26.06C197.57 25.618 197.11 25.397 196.486 25.397ZM202.355 24.409V25.54C202.745 24.7253 203.43 24.318 204.409 24.318C205.059 24.318 205.575 24.5173 205.956 24.916C206.337 25.3147 206.528 25.8563 206.528 26.541V31H205.254V26.84C205.254 26.3807 205.137 26.0297 204.903 25.787C204.678 25.5443 204.374 25.423 203.993 25.423C203.542 25.423 203.157 25.6007 202.836 25.956C202.515 26.3027 202.355 26.7923 202.355 27.425V31H201.081V24.409H202.355ZM212.336 27.23V26.996C212.319 26.502 212.185 26.112 211.933 25.826C211.682 25.5313 211.322 25.384 210.854 25.384C210.421 25.384 210.048 25.5443 209.736 25.865C209.424 26.177 209.229 26.632 209.151 27.23H212.336ZM213.155 29.505V30.649C212.67 30.9263 212.029 31.065 211.231 31.065C210.209 31.065 209.394 30.7573 208.787 30.142C208.181 29.5267 207.877 28.7207 207.877 27.724C207.877 26.6667 208.155 25.839 208.709 25.241C209.264 24.6343 209.97 24.331 210.828 24.331C211.669 24.331 212.336 24.5953 212.83 25.124C213.324 25.644 213.571 26.398 213.571 27.386C213.571 27.6547 213.545 27.9363 213.493 28.231H209.164C209.251 28.803 209.494 29.2407 209.892 29.544C210.291 29.8473 210.794 29.999 211.4 29.999C212.102 29.999 212.687 29.8343 213.155 29.505ZM216.891 30.857L214.265 24.409H215.682L216.501 26.554L217.528 29.336C217.606 29.076 217.918 28.1487 218.464 26.554L219.205 24.409H220.557L218.178 30.818C217.546 32.508 216.579 33.353 215.279 33.353C215.045 33.353 214.846 33.3313 214.681 33.288V32.196C214.82 32.2307 214.967 32.248 215.123 32.248C215.964 32.248 216.553 31.7843 216.891 30.857ZM227.421 29.726C227.872 29.726 228.262 29.5527 228.591 29.206C228.929 28.8507 229.098 28.3567 229.098 27.724C229.098 26.944 228.938 26.3677 228.617 25.995C228.305 25.6223 227.924 25.436 227.473 25.436C226.962 25.436 226.559 25.6397 226.264 26.047C225.97 26.4457 225.822 26.9743 225.822 27.633C225.822 28.3177 225.978 28.8377 226.29 29.193C226.611 29.5483 226.988 29.726 227.421 29.726ZM229.098 24.409H230.372V30.441C230.372 31.455 230.082 32.2177 229.501 32.729C228.929 33.249 228.193 33.509 227.291 33.509C226.442 33.509 225.727 33.366 225.146 33.08V31.793C225.701 32.157 226.373 32.339 227.161 32.339C228.453 32.339 229.098 31.702 229.098 30.428V29.752C228.674 30.4627 228.037 30.818 227.187 30.818C226.442 30.818 225.805 30.545 225.276 29.999C224.748 29.4443 224.483 28.6643 224.483 27.659C224.483 26.6883 224.73 25.891 225.224 25.267C225.718 24.6343 226.373 24.318 227.187 24.318C228.063 24.318 228.7 24.6907 229.098 25.436V24.409ZM232.135 31V24.409H233.422V31H232.135ZM232.2 22.966C232.053 22.81 231.979 22.6193 231.979 22.394C231.979 22.1687 232.053 21.978 232.2 21.822C232.356 21.666 232.547 21.588 232.772 21.588C232.997 21.588 233.188 21.666 233.344 21.822C233.5 21.978 233.578 22.1687 233.578 22.394C233.578 22.6107 233.5 22.797 233.344 22.953C233.188 23.109 232.997 23.187 232.772 23.187C232.547 23.187 232.356 23.1133 232.2 22.966ZM238.663 21.796V22.914C238.463 22.8273 238.255 22.784 238.039 22.784C237.406 22.784 237.09 23.161 237.09 23.915V24.409H238.481V25.397H237.09V31H235.816V25.397H234.763V24.409H235.816V23.902C235.816 23.2173 235.998 22.68 236.362 22.29C236.734 21.8913 237.254 21.692 237.922 21.692C238.164 21.692 238.411 21.7267 238.663 21.796ZM241.262 25.397V29.024C241.262 29.6567 241.566 29.973 242.172 29.973C242.528 29.973 242.827 29.8777 243.069 29.687V30.831C242.783 30.987 242.432 31.065 242.016 31.065C240.656 31.065 239.975 30.376 239.975 28.998V25.397H238.948V24.409H239.975V22.797H241.262V24.409H242.991V25.397H241.262ZM248.231 24.63V25.787C247.806 25.5357 247.26 25.41 246.593 25.41C246.289 25.41 246.047 25.4793 245.865 25.618C245.691 25.7567 245.605 25.9387 245.605 26.164C245.605 26.2247 245.609 26.2853 245.618 26.346C245.635 26.398 245.661 26.4543 245.696 26.515C245.73 26.567 245.761 26.6147 245.787 26.658C245.821 26.6927 245.873 26.7317 245.943 26.775C246.012 26.8183 246.064 26.8573 246.099 26.892C246.142 26.918 246.207 26.9527 246.294 26.996C246.389 27.0393 246.458 27.074 246.502 27.1C246.545 27.1173 246.619 27.152 246.723 27.204C246.835 27.2473 246.913 27.2777 246.957 27.295C247.468 27.5203 247.867 27.776 248.153 28.062C248.447 28.3393 248.595 28.712 248.595 29.18C248.595 29.7693 248.387 30.233 247.971 30.571C247.555 30.9003 246.991 31.065 246.281 31.065C245.501 31.065 244.851 30.935 244.331 30.675V29.466C244.937 29.8387 245.566 30.025 246.216 30.025C246.554 30.025 246.814 29.9557 246.996 29.817C247.186 29.6783 247.282 29.4963 247.282 29.271C247.282 29.0803 247.208 28.9113 247.061 28.764C246.913 28.608 246.762 28.4953 246.606 28.426C246.458 28.348 246.203 28.231 245.839 28.075C244.807 27.6503 244.292 27.0263 244.292 26.203C244.292 25.6223 244.508 25.1673 244.942 24.838C245.375 24.5087 245.917 24.344 246.567 24.344C247.277 24.344 247.832 24.4393 248.231 24.63ZM254.77 25.397V29.024C254.77 29.6567 255.074 29.973 255.68 29.973C256.036 29.973 256.335 29.8777 256.577 29.687V30.831C256.291 30.987 255.94 31.065 255.524 31.065C254.164 31.065 253.483 30.376 253.483 28.998V25.397H252.456V24.409H253.483V22.797H254.77V24.409H256.499V25.397H254.77ZM260.738 31.117C259.767 31.117 259.004 30.8007 258.45 30.168C257.895 29.5353 257.618 28.7337 257.618 27.763C257.618 26.775 257.904 25.956 258.476 25.306C259.048 24.6473 259.802 24.318 260.738 24.318C261.743 24.318 262.519 24.6387 263.065 25.28C263.611 25.9127 263.884 26.723 263.884 27.711C263.884 28.699 263.602 29.5137 263.039 30.155C262.484 30.7963 261.717 31.117 260.738 31.117ZM260.725 25.397C260.161 25.397 259.724 25.6223 259.412 26.073C259.1 26.515 258.944 27.0653 258.944 27.724C258.944 28.374 259.104 28.9243 259.425 29.375C259.745 29.817 260.183 30.038 260.738 30.038C261.327 30.038 261.773 29.8213 262.077 29.388C262.389 28.9547 262.545 28.4043 262.545 27.737C262.545 27.0523 262.397 26.4933 262.103 26.06C261.808 25.618 261.349 25.397 260.725 25.397ZM268.571 31V21.809H269.858V31H268.571ZM274.461 31.117C273.49 31.117 272.728 30.8007 272.173 30.168C271.618 29.5353 271.341 28.7337 271.341 27.763C271.341 26.775 271.627 25.956 272.199 25.306C272.771 24.6473 273.525 24.318 274.461 24.318C275.466 24.318 276.242 24.6387 276.788 25.28C277.334 25.9127 277.607 26.723 277.607 27.711C277.607 28.699 277.325 29.5137 276.762 30.155C276.207 30.7963 275.44 31.117 274.461 31.117ZM274.448 25.397C273.885 25.397 273.447 25.6223 273.135 26.073C272.823 26.515 272.667 27.0653 272.667 27.724C272.667 28.374 272.827 28.9243 273.148 29.375C273.469 29.817 273.906 30.038 274.461 30.038C275.05 30.038 275.497 29.8213 275.8 29.388C276.112 28.9547 276.268 28.4043 276.268 27.737C276.268 27.0523 276.121 26.4933 275.826 26.06C275.531 25.618 275.072 25.397 274.448 25.397ZM280.733 31L278.393 24.409H279.732L280.629 27.191C280.837 27.8323 281.01 28.387 281.149 28.855C281.296 29.323 281.387 29.6307 281.422 29.778L281.474 29.999C281.552 29.5743 281.838 28.6383 282.332 27.191L283.255 24.409H284.581L282.189 31H280.733ZM289.816 27.23V26.996C289.798 26.502 289.664 26.112 289.413 25.826C289.161 25.5313 288.802 25.384 288.334 25.384C287.9 25.384 287.528 25.5443 287.216 25.865C286.904 26.177 286.709 26.632 286.631 27.23H289.816ZM290.635 29.505V30.649C290.149 30.9263 289.508 31.065 288.711 31.065C287.688 31.065 286.873 30.7573 286.267 30.142C285.66 29.5267 285.357 28.7207 285.357 27.724C285.357 26.6667 285.634 25.839 286.189 25.241C286.743 24.6343 287.45 24.331 288.308 24.331C289.148 24.331 289.816 24.5953 290.31 25.124C290.804 25.644 291.051 26.398 291.051 27.386C291.051 27.6547 291.025 27.9363 290.973 28.231H286.644C286.73 28.803 286.973 29.2407 287.372 29.544C287.77 29.8473 288.273 29.999 288.88 29.999C289.582 29.999 290.167 29.8343 290.635 29.505ZM295.216 29.973C295.719 29.973 296.143 29.7823 296.49 29.401C296.837 29.0197 297.01 28.439 297.01 27.659C297.01 26.905 296.828 26.346 296.464 25.982C296.109 25.618 295.706 25.436 295.255 25.436C294.744 25.436 294.323 25.6397 293.994 26.047C293.665 26.4457 293.5 27.0177 293.5 27.763C293.5 28.4217 293.66 28.9547 293.981 29.362C294.31 29.7693 294.722 29.973 295.216 29.973ZM297.01 21.809H298.297V31H297.01V29.999C296.551 30.727 295.879 31.091 294.995 31.091C294.128 31.091 293.444 30.766 292.941 30.116C292.438 29.4573 292.187 28.6643 292.187 27.737C292.187 26.7057 292.451 25.878 292.98 25.254C293.509 24.63 294.189 24.318 295.021 24.318C295.879 24.318 296.542 24.682 297.01 25.41V21.809ZM306.047 31.117C305.076 31.117 304.314 30.8007 303.759 30.168C303.204 29.5353 302.927 28.7337 302.927 27.763C302.927 26.775 303.213 25.956 303.785 25.306C304.357 24.6473 305.111 24.318 306.047 24.318C307.052 24.318 307.828 24.6387 308.374 25.28C308.92 25.9127 309.193 26.723 309.193 27.711C309.193 28.699 308.911 29.5137 308.348 30.155C307.793 30.7963 307.026 31.117 306.047 31.117ZM306.034 25.397C305.471 25.397 305.033 25.6223 304.721 26.073C304.409 26.515 304.253 27.0653 304.253 27.724C304.253 28.374 304.413 28.9243 304.734 29.375C305.055 29.817 305.492 30.038 306.047 30.038C306.636 30.038 307.083 29.8213 307.386 29.388C307.698 28.9547 307.854 28.4043 307.854 27.737C307.854 27.0523 307.707 26.4933 307.412 26.06C307.117 25.618 306.658 25.397 306.034 25.397ZM311.903 24.409V25.54C312.293 24.7253 312.978 24.318 313.957 24.318C314.607 24.318 315.123 24.5173 315.504 24.916C315.885 25.3147 316.076 25.8563 316.076 26.541V31H314.802V26.84C314.802 26.3807 314.685 26.0297 314.451 25.787C314.226 25.5443 313.922 25.423 313.541 25.423C313.09 25.423 312.705 25.6007 312.384 25.956C312.063 26.3027 311.903 26.7923 311.903 27.425V31H310.629V24.409H311.903ZM321.884 27.23V26.996C321.867 26.502 321.732 26.112 321.481 25.826C321.23 25.5313 320.87 25.384 320.402 25.384C319.969 25.384 319.596 25.5443 319.284 25.865C318.972 26.177 318.777 26.632 318.699 27.23H321.884ZM322.703 29.505V30.649C322.218 30.9263 321.576 31.065 320.779 31.065C319.756 31.065 318.942 30.7573 318.335 30.142C317.728 29.5267 317.425 28.7207 317.425 27.724C317.425 26.6667 317.702 25.839 318.257 25.241C318.812 24.6343 319.518 24.331 320.376 24.331C321.217 24.331 321.884 24.5953 322.378 25.124C322.872 25.644 323.119 26.398 323.119 27.386C323.119 27.6547 323.093 27.9363 323.041 28.231H318.712C318.799 28.803 319.041 29.2407 319.44 29.544C319.839 29.8473 320.341 29.999 320.948 29.999C321.65 29.999 322.235 29.8343 322.703 29.505ZM328.376 24.63V25.787C327.952 25.5357 327.406 25.41 326.738 25.41C326.435 25.41 326.192 25.4793 326.01 25.618C325.837 25.7567 325.75 25.9387 325.75 26.164C325.75 26.2247 325.755 26.2853 325.763 26.346C325.781 26.398 325.807 26.4543 325.841 26.515C325.876 26.567 325.906 26.6147 325.932 26.658C325.967 26.6927 326.019 26.7317 326.088 26.775C326.158 26.8183 326.21 26.8573 326.244 26.892C326.288 26.918 326.353 26.9527 326.439 26.996C326.535 27.0393 326.604 27.074 326.647 27.1C326.691 27.1173 326.764 27.152 326.868 27.204C326.981 27.2473 327.059 27.2777 327.102 27.295C327.614 27.5203 328.012 27.776 328.298 28.062C328.593 28.3393 328.74 28.712 328.74 29.18C328.74 29.7693 328.532 30.233 328.116 30.571C327.7 30.9003 327.137 31.065 326.426 31.065C325.646 31.065 324.996 30.935 324.476 30.675V29.466C325.083 29.8387 325.711 30.025 326.361 30.025C326.699 30.025 326.959 29.9557 327.141 29.817C327.332 29.6783 327.427 29.4963 327.427 29.271C327.427 29.0803 327.354 28.9113 327.206 28.764C327.059 28.608 326.907 28.4953 326.751 28.426C326.604 28.348 326.348 28.231 325.984 28.075C324.953 27.6503 324.437 27.0263 324.437 26.203C324.437 25.6223 324.654 25.1673 325.087 24.838C325.521 24.5087 326.062 24.344 326.712 24.344C327.423 24.344 327.978 24.4393 328.376 24.63ZM152.859 47L150.792 40.409H152.144L152.755 42.593C152.955 43.2863 153.124 43.8973 153.262 44.426C153.401 44.9547 153.488 45.31 153.522 45.492L153.574 45.765C153.687 45.219 153.973 44.1573 154.432 42.58L155.069 40.409H156.304L156.954 42.58C157.162 43.2993 157.34 43.9277 157.487 44.465C157.635 44.9937 157.73 45.3447 157.773 45.518L157.825 45.778C157.929 45.2667 158.224 44.2007 158.709 42.58L159.359 40.409H160.646L158.553 47H157.097L156.486 44.842C156.304 44.1833 156.144 43.6027 156.005 43.1C155.875 42.5887 155.789 42.242 155.745 42.06L155.693 41.8C155.572 42.3633 155.308 43.3773 154.9 44.842L154.302 47H152.859ZM161.841 47V40.409H163.128V47H161.841ZM161.906 38.966C161.759 38.81 161.685 38.6193 161.685 38.394C161.685 38.1687 161.759 37.978 161.906 37.822C162.062 37.666 162.253 37.588 162.478 37.588C162.703 37.588 162.894 37.666 163.05 37.822C163.206 37.978 163.284 38.1687 163.284 38.394C163.284 38.6107 163.206 38.797 163.05 38.953C162.894 39.109 162.703 39.187 162.478 39.187C162.253 39.187 162.062 39.1133 161.906 38.966ZM166.627 41.397V45.024C166.627 45.6567 166.93 45.973 167.537 45.973C167.892 45.973 168.191 45.8777 168.434 45.687V46.831C168.148 46.987 167.797 47.065 167.381 47.065C166.02 47.065 165.34 46.376 165.34 44.998V41.397H164.313V40.409H165.34V38.797H166.627V40.409H168.356V41.397H166.627ZM171.112 37.809V41.54C171.485 40.7253 172.165 40.318 173.153 40.318C173.794 40.318 174.31 40.5173 174.7 40.916C175.09 41.3147 175.285 41.8693 175.285 42.58V47H174.011V42.84C174.011 42.3893 173.894 42.0427 173.66 41.8C173.435 41.5487 173.136 41.423 172.763 41.423C172.33 41.423 171.944 41.5877 171.606 41.917C171.277 42.2463 171.112 42.749 171.112 43.425V47H169.838V37.809H171.112ZM179.754 47.117C178.783 47.117 178.021 46.8007 177.466 46.168C176.911 45.5353 176.634 44.7337 176.634 43.763C176.634 42.775 176.92 41.956 177.492 41.306C178.064 40.6473 178.818 40.318 179.754 40.318C180.759 40.318 181.535 40.6387 182.081 41.28C182.627 41.9127 182.9 42.723 182.9 43.711C182.9 44.699 182.618 45.5137 182.055 46.155C181.5 46.7963 180.733 47.117 179.754 47.117ZM179.741 41.397C179.178 41.397 178.74 41.6223 178.428 42.073C178.116 42.515 177.96 43.0653 177.96 43.724C177.96 44.374 178.12 44.9243 178.441 45.375C178.762 45.817 179.199 46.038 179.754 46.038C180.343 46.038 180.79 45.8213 181.093 45.388C181.405 44.9547 181.561 44.4043 181.561 43.737C181.561 43.0523 181.414 42.4933 181.119 42.06C180.824 41.618 180.365 41.397 179.741 41.397ZM188.431 40.409H189.705V47H188.431V45.869C188.084 46.675 187.4 47.078 186.377 47.078C185.727 47.078 185.211 46.8873 184.83 46.506C184.449 46.116 184.258 45.583 184.258 44.907V40.409H185.545V44.595C185.545 45.0457 185.653 45.3923 185.87 45.635C186.095 45.869 186.403 45.986 186.793 45.986C187.287 45.986 187.681 45.8127 187.976 45.466C188.279 45.1193 188.431 44.6297 188.431 43.997V40.409ZM193.147 41.397V45.024C193.147 45.6567 193.451 45.973 194.057 45.973C194.413 45.973 194.712 45.8777 194.954 45.687V46.831C194.668 46.987 194.317 47.065 193.901 47.065C192.541 47.065 191.86 46.376 191.86 44.998V41.397H190.833V40.409H191.86V38.797H193.147V40.409H194.876V41.397H193.147ZM203.653 40.409H204.927V47H203.653V45.869C203.306 46.675 202.621 47.078 201.599 47.078C200.949 47.078 200.433 46.8873 200.052 46.506C199.67 46.116 199.48 45.583 199.48 44.907V40.409H200.767V44.595C200.767 45.0457 200.875 45.3923 201.092 45.635C201.317 45.869 201.625 45.986 202.015 45.986C202.509 45.986 202.903 45.8127 203.198 45.466C203.501 45.1193 203.653 44.6297 203.653 43.997V40.409ZM210.475 40.63V41.787C210.05 41.5357 209.504 41.41 208.837 41.41C208.534 41.41 208.291 41.4793 208.109 41.618C207.936 41.7567 207.849 41.9387 207.849 42.164C207.849 42.2247 207.853 42.2853 207.862 42.346C207.879 42.398 207.905 42.4543 207.94 42.515C207.975 42.567 208.005 42.6147 208.031 42.658C208.066 42.6927 208.118 42.7317 208.187 42.775C208.256 42.8183 208.308 42.8573 208.343 42.892C208.386 42.918 208.451 42.9527 208.538 42.996C208.633 43.0393 208.703 43.074 208.746 43.1C208.789 43.1173 208.863 43.152 208.967 43.204C209.08 43.2473 209.158 43.2777 209.201 43.295C209.712 43.5203 210.111 43.776 210.397 44.062C210.692 44.3393 210.839 44.712 210.839 45.18C210.839 45.7693 210.631 46.233 210.215 46.571C209.799 46.9003 209.236 47.065 208.525 47.065C207.745 47.065 207.095 46.935 206.575 46.675V45.466C207.182 45.8387 207.81 46.025 208.46 46.025C208.798 46.025 209.058 45.9557 209.24 45.817C209.431 45.6783 209.526 45.4963 209.526 45.271C209.526 45.0803 209.452 44.9113 209.305 44.764C209.158 44.608 209.006 44.4953 208.85 44.426C208.703 44.348 208.447 44.231 208.083 44.075C207.052 43.6503 206.536 43.0263 206.536 42.203C206.536 41.6223 206.753 41.1673 207.186 40.838C207.619 40.5087 208.161 40.344 208.811 40.344C209.522 40.344 210.076 40.4393 210.475 40.63ZM212.216 47V40.409H213.503V47H212.216ZM212.281 38.966C212.134 38.81 212.06 38.6193 212.06 38.394C212.06 38.1687 212.134 37.978 212.281 37.822C212.437 37.666 212.628 37.588 212.853 37.588C213.078 37.588 213.269 37.666 213.425 37.822C213.581 37.978 213.659 38.1687 213.659 38.394C213.659 38.6107 213.581 38.797 213.425 38.953C213.269 39.109 213.078 39.187 212.853 39.187C212.628 39.187 212.437 39.1133 212.281 38.966ZM216.625 40.409V41.54C217.015 40.7253 217.699 40.318 218.679 40.318C219.329 40.318 219.844 40.5173 220.226 40.916C220.607 41.3147 220.798 41.8563 220.798 42.541V47H219.524V42.84C219.524 42.3807 219.407 42.0297 219.173 41.787C218.947 41.5443 218.644 41.423 218.263 41.423C217.812 41.423 217.426 41.6007 217.106 41.956C216.785 42.3027 216.625 42.7923 216.625 43.425V47H215.351V40.409H216.625ZM225.111 45.726C225.561 45.726 225.951 45.5527 226.281 45.206C226.619 44.8507 226.788 44.3567 226.788 43.724C226.788 42.944 226.627 42.3677 226.307 41.995C225.995 41.6223 225.613 41.436 225.163 41.436C224.651 41.436 224.248 41.6397 223.954 42.047C223.659 42.4457 223.512 42.9743 223.512 43.633C223.512 44.3177 223.668 44.8377 223.98 45.193C224.3 45.5483 224.677 45.726 225.111 45.726ZM226.788 40.409H228.062V46.441C228.062 47.455 227.771 48.2177 227.191 48.729C226.619 49.249 225.882 49.509 224.981 49.509C224.131 49.509 223.416 49.366 222.836 49.08V47.793C223.39 48.157 224.062 48.339 224.851 48.339C226.142 48.339 226.788 47.702 226.788 46.428V45.752C226.363 46.4627 225.726 46.818 224.877 46.818C224.131 46.818 223.494 46.545 222.966 45.999C222.437 45.4443 222.173 44.6643 222.173 43.659C222.173 42.6883 222.42 41.891 222.914 41.267C223.408 40.6343 224.062 40.318 224.877 40.318C225.752 40.318 226.389 40.6907 226.788 41.436V40.409ZM234.792 46.857L232.166 40.409H233.583L234.402 42.554L235.429 45.336C235.507 45.076 235.819 44.1487 236.365 42.554L237.106 40.409H238.458L236.079 46.818C235.446 48.508 234.48 49.353 233.18 49.353C232.946 49.353 232.746 49.3313 232.582 49.288V48.196C232.72 48.2307 232.868 48.248 233.024 48.248C233.864 48.248 234.454 47.7843 234.792 46.857ZM242.279 47.117C241.308 47.117 240.545 46.8007 239.991 46.168C239.436 45.5353 239.159 44.7337 239.159 43.763C239.159 42.775 239.445 41.956 240.017 41.306C240.589 40.6473 241.343 40.318 242.279 40.318C243.284 40.318 244.06 40.6387 244.606 41.28C245.152 41.9127 245.425 42.723 245.425 43.711C245.425 44.699 245.143 45.5137 244.58 46.155C244.025 46.7963 243.258 47.117 242.279 47.117ZM242.266 41.397C241.702 41.397 241.265 41.6223 240.953 42.073C240.641 42.515 240.485 43.0653 240.485 43.724C240.485 44.374 240.645 44.9243 240.966 45.375C241.286 45.817 241.724 46.038 242.279 46.038C242.868 46.038 243.314 45.8213 243.618 45.388C243.93 44.9547 244.086 44.4043 244.086 43.737C244.086 43.0523 243.938 42.4933 243.644 42.06C243.349 41.618 242.89 41.397 242.266 41.397ZM250.955 40.409H252.229V47H250.955V45.869C250.609 46.675 249.924 47.078 248.901 47.078C248.251 47.078 247.736 46.8873 247.354 46.506C246.973 46.116 246.782 45.583 246.782 44.907V40.409H248.069V44.595C248.069 45.0457 248.178 45.3923 248.394 45.635C248.62 45.869 248.927 45.986 249.317 45.986C249.811 45.986 250.206 45.8127 250.5 45.466C250.804 45.1193 250.955 44.6297 250.955 43.997V40.409ZM255.295 40.409V41.566C255.615 40.7513 256.192 40.344 257.024 40.344C257.145 40.344 257.279 40.357 257.427 40.383V41.631C257.245 41.553 257.041 41.514 256.816 41.514C256.374 41.514 256.01 41.709 255.724 42.099C255.438 42.489 255.295 42.9527 255.295 43.49V47H254.021V40.409H255.295ZM264.732 45.973C265.217 45.973 265.625 45.7693 265.954 45.362C266.283 44.946 266.448 44.413 266.448 43.763C266.448 43.0177 266.283 42.4457 265.954 42.047C265.625 41.6397 265.204 41.436 264.693 41.436C264.242 41.436 263.835 41.618 263.471 41.982C263.116 42.346 262.938 42.905 262.938 43.659C262.938 44.439 263.111 45.0197 263.458 45.401C263.805 45.7823 264.229 45.973 264.732 45.973ZM262.938 37.809V41.41C263.406 40.682 264.069 40.318 264.927 40.318C265.759 40.318 266.439 40.63 266.968 41.254C267.497 41.878 267.761 42.7057 267.761 43.737C267.761 44.6643 267.51 45.4573 267.007 46.116C266.504 46.766 265.815 47.091 264.94 47.091C264.065 47.091 263.397 46.727 262.938 45.999V47H261.651V37.809H262.938ZM272.662 44.062H271.674C271.189 44.062 270.821 44.1573 270.569 44.348C270.327 44.5387 270.205 44.7813 270.205 45.076C270.205 45.3793 270.301 45.6177 270.491 45.791C270.682 45.9643 270.959 46.051 271.323 46.051C271.739 46.051 272.064 45.9383 272.298 45.713C272.541 45.479 272.662 45.1757 272.662 44.803V44.062ZM269.347 41.982V40.747C269.859 40.4523 270.535 40.305 271.375 40.305C273.1 40.305 273.962 41.1413 273.962 42.814V47H272.701V46.22C272.363 46.7747 271.77 47.052 270.92 47.052C270.296 47.052 269.794 46.8743 269.412 46.519C269.04 46.155 268.853 45.6957 268.853 45.141C268.853 44.5083 269.092 44.0187 269.568 43.672C270.045 43.3167 270.712 43.139 271.57 43.139H272.662V42.762C272.662 42.3113 272.554 41.9733 272.337 41.748C272.121 41.514 271.761 41.397 271.258 41.397C270.556 41.397 269.919 41.592 269.347 41.982ZM276.953 40.409V41.54C277.343 40.7253 278.027 40.318 279.007 40.318C279.657 40.318 280.172 40.5173 280.554 40.916C280.935 41.3147 281.126 41.8563 281.126 42.541V47H279.852V42.84C279.852 42.3807 279.735 42.0297 279.501 41.787C279.275 41.5443 278.972 41.423 278.591 41.423C278.14 41.423 277.754 41.6007 277.434 41.956C277.113 42.3027 276.953 42.7923 276.953 43.425V47H275.679V40.409H276.953ZM282.839 47V37.9H284.113V47H282.839ZM285.634 43.555L288.221 47H286.7L284.165 43.555L286.648 40.409H288.143L285.634 43.555ZM292.59 47V40.409H293.877V47H292.59ZM292.655 38.966C292.508 38.81 292.434 38.6193 292.434 38.394C292.434 38.1687 292.508 37.978 292.655 37.822C292.811 37.666 293.002 37.588 293.227 37.588C293.452 37.588 293.643 37.666 293.799 37.822C293.955 37.978 294.033 38.1687 294.033 38.394C294.033 38.6107 293.955 38.797 293.799 38.953C293.643 39.109 293.452 39.187 293.227 39.187C293.002 39.187 292.811 39.1133 292.655 38.966ZM296.999 40.409V41.54C297.389 40.7253 298.073 40.318 299.053 40.318C299.703 40.318 300.218 40.5173 300.6 40.916C300.981 41.3147 301.172 41.8563 301.172 42.541V47H299.898V42.84C299.898 42.3807 299.781 42.0297 299.547 41.787C299.321 41.5443 299.018 41.423 298.637 41.423C298.186 41.423 297.8 41.6007 297.48 41.956C297.159 42.3027 296.999 42.7923 296.999 43.425V47H295.725V40.409H296.999ZM306.278 37.796V38.914C306.079 38.8273 305.871 38.784 305.654 38.784C305.021 38.784 304.705 39.161 304.705 39.915V40.409H306.096V41.397H304.705V47H303.431V41.397H302.378V40.409H303.431V39.902C303.431 39.2173 303.613 38.68 303.977 38.29C304.35 37.8913 304.87 37.692 305.537 37.692C305.78 37.692 306.027 37.7267 306.278 37.796ZM309.983 47.117C309.012 47.117 308.249 46.8007 307.695 46.168C307.14 45.5353 306.863 44.7337 306.863 43.763C306.863 42.775 307.149 41.956 307.721 41.306C308.293 40.6473 309.047 40.318 309.983 40.318C310.988 40.318 311.764 40.6387 312.31 41.28C312.856 41.9127 313.129 42.723 313.129 43.711C313.129 44.699 312.847 45.5137 312.284 46.155C311.729 46.7963 310.962 47.117 309.983 47.117ZM309.97 41.397C309.406 41.397 308.969 41.6223 308.657 42.073C308.345 42.515 308.189 43.0653 308.189 43.724C308.189 44.374 308.349 44.9243 308.67 45.375C308.99 45.817 309.428 46.038 309.983 46.038C310.572 46.038 311.018 45.8213 311.322 45.388C311.634 44.9547 311.79 44.4043 311.79 43.737C311.79 43.0523 311.642 42.4933 311.348 42.06C311.053 41.618 310.594 41.397 309.97 41.397ZM314.747 44.218V38.238H315.995V44.218H314.747ZM314.721 46.857C314.556 46.6837 314.474 46.4713 314.474 46.22C314.474 45.9687 314.556 45.7563 314.721 45.583C314.894 45.4097 315.106 45.323 315.358 45.323C315.6 45.323 315.808 45.414 315.982 45.596C316.164 45.7693 316.255 45.9773 316.255 46.22C316.255 46.4713 316.168 46.6837 315.995 46.857C315.821 47.0217 315.609 47.104 315.358 47.104C315.106 47.104 314.894 47.0217 314.721 46.857Z" fill="#F6F5F5"/>
<g clip-path="url(#clip2_650_10253)">
<path d="M384.653 36.6314C384.418 37.9168 383.658 38.8496 382.764 39.7483C379.166 43.3658 375.6 47.0288 372.024 50.6691C370.414 52.3072 367.978 52.455 366.279 51.0445C364.267 49.3836 364.089 46.4259 365.91 44.5489C368.537 41.8528 371.186 39.1682 373.823 36.4835C373.913 36.3925 374.002 36.2901 374.103 36.1991C374.248 36.0626 374.248 35.9374 374.103 35.8009C374.024 35.7327 373.957 35.6531 373.879 35.5734C371.253 32.9001 368.615 30.2154 365.989 27.5421C364.279 25.8017 364.2 23.3217 365.765 21.4447C367.207 19.7156 370.057 19.5109 371.711 21.0238C371.901 21.2058 372.091 21.3879 372.27 21.5812C375.768 25.1419 379.255 28.7025 382.764 32.2517C383.647 33.1504 384.418 34.0718 384.653 35.3687C384.653 35.7896 384.653 36.2105 384.653 36.6314Z" fill="#F6F5F5"/>
<path d="M348.71 51.9887C347.078 51.8976 345.737 51.0103 344.988 49.2698C344.307 47.7 344.664 45.823 345.894 44.5717C348.554 41.8415 351.247 39.1227 353.918 36.3925C354.309 35.9943 354.309 35.9943 353.918 35.6076C351.258 32.9001 348.598 30.2041 345.95 27.4853C344.318 25.8017 344.228 23.3445 345.704 21.5358C347.235 19.6701 350.096 19.4654 351.828 21.1376C353.024 22.2866 354.153 23.4924 355.315 24.6641C357.998 27.3943 360.691 30.1245 363.373 32.866C364.804 34.3335 365.095 36.3811 364.111 38.1557C363.921 38.5084 363.653 38.8383 363.373 39.1227C359.596 42.9791 355.807 46.8241 352.029 50.6691C351.18 51.545 350.163 51.9773 348.71 51.9887Z" fill="#F6F5F5"/>
</g>
<g opacity="0.16">
<path d="M213.192 61.9094L201.878 73.2231L207.535 78.8799C209.656 81.0013 211.071 81.0013 213.192 78.8799L218.849 73.2231C220.97 71.1018 220.97 69.6876 218.849 67.5662L213.192 61.9094Z" stroke="#EC7322" stroke-width="1.5" stroke-miterlimit="10" stroke-linecap="round" stroke-linejoin="round"/>
<path d="M212.153 58.7062L212.86 59.4133C213.637 60.1911 213.899 61.2023 212.86 62.2417L202.253 72.8483C201.171 73.9302 200.202 73.6261 199.425 72.8483L198.718 72.1412C197.94 71.3634 197.636 70.3946 198.718 69.3128L209.324 58.7062C210.364 57.6667 211.375 57.9284 212.153 58.7062Z" stroke="#EC7322" stroke-width="1.5" stroke-miterlimit="10" stroke-linecap="round" stroke-linejoin="round"/>
<path d="M203.766 64.264L199.863 68.1673C199.361 68.146 198.965 67.7359 198.965 67.2268L198.965 65.2186C198.965 64.6954 199.396 64.264 199.92 64.264L203.766 64.264Z" stroke="#EC7322" stroke-width="1.5" stroke-miterlimit="10" stroke-linecap="round" stroke-linejoin="round"/>
<path d="M208.172 59.8588L204.268 63.762L204.268 59.9153C204.268 59.3921 204.7 58.9608 205.223 58.9608L207.231 58.9608C207.74 58.9608 208.15 59.3567 208.172 59.8588Z" stroke="#EC7322" stroke-width="1.5" stroke-miterlimit="10" stroke-linecap="round" stroke-linejoin="round"/>
<path d="M205.393 69.7088L209.027 73.3433C209.593 73.909 210.547 73.6191 210.717 72.8413L210.943 71.7382C211.028 71.3422 211.332 71.0381 211.721 70.9603L212.775 70.7553C213.553 70.5997 213.85 69.6381 213.284 69.0724L209.656 65.4449L205.393 69.7088Z" stroke="#EC7322" stroke-width="1.5" stroke-miterlimit="10" stroke-linecap="round" stroke-linejoin="round"/>
</g>
<g opacity="0.48">
<path d="M20.6463 -0.901277L15.8907 3.23801" stroke="#EB99B1" stroke-width="1.5" stroke-linecap="round" stroke-linejoin="round"/>
<path d="M29.1592 -5.52544L30.6017 -3.86818C30.9868 -3.42572 30.9531 -2.76019 30.5233 -2.35777L28.9697 -1.00559C28.1137 -0.260516 26.7759 -0.213084 25.9484 -1.01983C25.4597 -1.48525 25.2367 -2.12545 25.2825 -2.74504C25.3097 -3.30599 25.5599 -3.8348 26.0038 -4.22113L27.6524 -5.65609C28.1103 -6.02634 28.7741 -5.96791 29.1592 -5.52544Z" stroke="#EB99B1" stroke-width="1.5" stroke-linecap="round" stroke-linejoin="round"/>
<path d="M25.2825 -2.74499C25.2367 -2.1254 25.4596 -1.48521 25.9483 -1.01978C26.7759 -0.213037 28.1137 -0.260469 28.9697 -1.00554L30.5232 -2.35772L31.5386 -1.19122C33.6392 1.2222 33.4544 4.21091 31.0766 6.28055L23.9432 12.4895C21.5654 14.5591 18.5798 14.3299 16.4791 11.9165L11.5776 6.28519C9.67303 4.09702 9.64249 1.43711 11.4396 -0.579518C11.6176 -0.791066 11.8176 -0.99342 12.0395 -1.18659L19.173 -7.39551C19.379 -7.57488 19.5842 -7.73932 19.8024 -7.87271C22.0574 -9.41126 24.7185 -9.0268 26.6371 -6.82254L27.6524 -5.65605L26.0037 -4.22108C25.5599 -3.83475 25.3097 -3.30594 25.2825 -2.74499Z" stroke="#EB99B1" stroke-width="1.5" stroke-linecap="round" stroke-linejoin="round"/>
</g>
<g opacity="0.16">
<path d="M310.971 10.3322C315.013 10.3322 318.382 6.96351 318.382 2.92105" stroke="#EC7322" stroke-width="1.5" stroke-miterlimit="10" stroke-linecap="round" stroke-linejoin="round"/>
<path d="M310.971 -4.3404C306.928 -4.3404 303.559 -0.971681 303.559 3.07078" stroke="#EC7322" stroke-width="1.5" stroke-miterlimit="10" stroke-linecap="round" stroke-linejoin="round"/>
<path d="M308.051 2.4719C307.377 3.14564 307.377 4.19369 308.051 4.86743L309.324 6.14006C309.848 6.66408 310.821 6.73894 311.42 6.14006C312.093 5.46632 312.019 4.94229 311.794 4.41827L310.447 1.57358C309.997 0.974692 309.997 0.52553 310.596 -0.0733535C311.195 -0.672237 312.093 -0.672236 312.692 -0.0733527L314.04 1.27413C314.714 1.94788 314.714 2.99592 314.04 3.66967" stroke="#EC7322" stroke-width="1.5" stroke-linecap="round" stroke-linejoin="round"/>
<path d="M314.115 -0.148193L307.826 6.14008" stroke="#EC7322" stroke-width="1.5" stroke-linecap="round" stroke-linejoin="round"/>
<path d="M303.485 10.482C307.619 14.6164 314.322 14.6164 318.457 10.482C322.591 6.34753 322.591 -0.355699 318.457 -4.49012C314.322 -8.62455 307.619 -8.62455 303.485 -4.49012C299.35 -0.355699 299.35 6.34753 303.485 10.482Z" stroke="#EC7322" stroke-width="1.5" stroke-miterlimit="10" stroke-linecap="round" stroke-linejoin="round"/>
</g>
<g opacity="0.16">
<path d="M354.077 63.6702L367.734 75.1301" stroke="#F4C6D3" stroke-width="1.5" stroke-miterlimit="10" stroke-linecap="round" stroke-linejoin="round"/>
<path d="M369.335 73.2229L364.424 79.0755C362.442 81.3882 361.321 81.4517 358.935 79.4496L351.351 73.086C348.925 71.0502 348.829 69.924 350.876 67.4847L355.677 61.763C357.532 59.5529 358.635 59.2654 360.635 60.7485C360.835 60.9021 361.051 61.0692 361.276 61.2579L368.86 67.6215C371.286 69.6573 371.381 70.7836 369.335 73.2229Z" stroke="#F4C6D3" stroke-width="1.5" stroke-linecap="round" stroke-linejoin="round"/>
<path d="M374.183 72.3393L369.382 78.061C367.527 80.2711 366.424 80.5586 364.424 79.0755L369.335 73.2229C371.381 70.7836 371.286 69.6573 368.86 67.6215L361.276 61.2579C361.051 61.0692 360.835 60.9021 360.636 60.7485C362.617 58.4358 363.738 58.3723 366.124 60.3744L373.708 66.738C376.134 68.7738 376.23 69.9 374.183 72.3393Z" stroke="#F4C6D3" stroke-width="1.5" stroke-linecap="round" stroke-linejoin="round"/>
<path d="M353.116 70.1176L354.498 71.277" stroke="#F4C6D3" stroke-width="1.5" stroke-miterlimit="10" stroke-linecap="round" stroke-linejoin="round"/>
<path d="M356.217 72.7196L358.981 75.0386" stroke="#F4C6D3" stroke-width="1.5" stroke-miterlimit="10" stroke-linecap="round" stroke-linejoin="round"/>
</g>
</g>
<defs>
<filter id="filter0_d_650_10253" x="-2" y="0" width="408" height="76" filterUnits="userSpaceOnUse" color-interpolation-filters="sRGB">
<feFlood flood-opacity="0" result="BackgroundImageFix"/>
<feColorMatrix in="SourceAlpha" type="matrix" values="0 0 0 0 0 0 0 0 0 0 0 0 0 0 0 0 0 0 127 0" result="hardAlpha"/>
<feOffset dy="2"/>
<feGaussianBlur stdDeviation="1"/>
<feColorMatrix type="matrix" values="0 0 0 0 0.383507 0 0 0 0 0.0360426 0 0 0 0 0.137386 0 0 0 0.16 0"/>
<feBlend mode="multiply" in2="BackgroundImageFix" result="effect1_dropShadow_650_10253"/>
<feBlend mode="normal" in="SourceGraphic" in2="effect1_dropShadow_650_10253" result="shape"/>
</filter>
<linearGradient id="paint0_linear_650_10253" x1="426.935" y1="-4.87805e-05" x2="1.84164e-05" y2="66.9678" gradientUnits="userSpaceOnUse">
<stop stop-color="#F0A760"/>
<stop offset="0.691246" stop-color="#BE1B34"/>
</linearGradient>
<linearGradient id="paint1_linear_650_10253" x1="402.681" y1="36" x2="198.965" y2="36" gradientUnits="userSpaceOnUse">
<stop stop-color="#FAE7ED" stop-opacity="0.6"/>
<stop offset="1" stop-color="#FAE7ED" stop-opacity="0"/>
</linearGradient>
<clipPath id="clip0_650_10253">
<rect width="404" height="72" fill="white"/>
</clipPath>
<clipPath id="clip1_650_10253">
<rect width="34.9091" height="24" fill="white" transform="translate(16 24)"/>
</clipPath>
<clipPath id="clip2_650_10253">
<rect width="40" height="40" fill="white" transform="translate(344.653 16)"/>
</clipPath>
</defs>
</svg>
