<svg width="428" height="113" viewBox="0 0 428 113" fill="none" xmlns="http://www.w3.org/2000/svg">
<rect width="428" height="112" transform="translate(0 0.997772)" fill="#FAE7ED"/>
<path d="M105.914 24.1038H110.719V44.9978H105.914V36.6588H98.2573V44.9978H93.4833V24.1038H98.2573V32.5978H105.914V24.1038ZM121.524 45.2458C119.065 45.2458 117.164 44.5121 115.82 43.0448C114.477 41.5568 113.805 39.6554 113.805 37.3408C113.805 34.9228 114.508 32.9388 115.913 31.3888C117.319 29.8181 119.189 29.0328 121.524 29.0328C123.963 29.0328 125.854 29.7871 127.197 31.2958C128.541 32.8044 129.212 34.7264 129.212 37.0618C129.212 39.4384 128.53 41.4018 127.166 42.9518C125.823 44.4811 123.942 45.2458 121.524 45.2458ZM121.493 32.5978C120.501 32.5978 119.757 33.0214 119.261 33.8688C118.765 34.7161 118.517 35.8114 118.517 37.1548C118.517 38.4981 118.765 39.6038 119.261 40.4718C119.778 41.3191 120.543 41.7428 121.555 41.7428C122.547 41.7428 123.281 41.3294 123.756 40.5028C124.252 39.6554 124.5 38.5601 124.5 37.2168C124.5 34.1374 123.498 32.5978 121.493 32.5978ZM135.517 44.9978L130.464 29.2808H135.145L136.509 34.4578C136.84 35.7598 137.119 36.9378 137.346 37.9918C137.573 39.0251 137.708 39.7381 137.749 40.1308L137.842 40.7198C137.987 39.4798 138.493 37.3924 139.361 34.4578L140.88 29.2808H144.786L146.274 34.4578C146.646 35.7804 146.956 36.9688 147.204 38.0228C147.452 39.0561 147.607 39.7691 147.669 40.1618L147.762 40.7198C147.907 39.5004 148.392 37.4131 149.219 34.4578L150.676 29.2808H155.14L150.118 44.9978H145.468L144.104 39.8518C143.815 38.7358 143.556 37.6921 143.329 36.7208C143.122 35.7494 142.988 35.0571 142.926 34.6438L142.833 34.0238C142.626 35.4084 142.192 37.3511 141.531 39.8518L140.167 44.9978H135.517ZM176.396 24.4138H179.93L181.976 31.7918C182.41 33.3418 182.792 34.7884 183.123 36.1318C183.474 37.4544 183.712 38.3948 183.836 38.9528L184.022 39.7898C184.29 37.9504 184.869 35.2741 185.758 31.7608L187.68 24.1038H192.547L186.967 44.9978H181.635L179.806 38.3948C179.372 36.8034 179.01 35.4601 178.721 34.3648C178.452 33.2694 178.287 32.5668 178.225 32.2568L178.163 31.7918C178.101 32.6391 177.543 34.8401 176.489 38.3948L174.567 44.9978H169.235L163.624 24.1038H168.646L170.568 31.7918C170.981 33.4451 171.322 34.9434 171.591 36.2868C171.859 37.6094 172.025 38.5291 172.087 39.0458L172.211 39.7898C172.562 38.1778 173.265 35.5118 174.319 31.7918L176.396 24.4138ZM204.069 35.6978V35.3258C203.925 33.4864 203.119 32.5668 201.651 32.5668C200.928 32.5668 200.287 32.8354 199.729 33.3728C199.171 33.8894 198.799 34.6644 198.613 35.6978H204.069ZM207.324 40.3168V44.0988C206.25 44.8014 204.607 45.1528 202.395 45.1528C199.812 45.1528 197.797 44.4088 196.35 42.9208C194.924 41.4121 194.211 39.4798 194.211 37.1238C194.211 34.6231 194.904 32.6701 196.288 31.2648C197.694 29.8388 199.419 29.1258 201.465 29.1258C203.573 29.1258 205.237 29.7458 206.456 30.9858C207.676 32.2051 208.285 34.0341 208.285 36.4728C208.285 36.9481 208.203 37.7644 208.037 38.9218H198.799C199.109 39.7898 199.647 40.4614 200.411 40.9368C201.176 41.4121 202.096 41.6498 203.17 41.6498C204.762 41.6498 206.146 41.2054 207.324 40.3168ZM211.671 44.9978V23.0808H216.197V44.9978H211.671ZM220.238 44.9978V23.0808H224.764V44.9978H220.238ZM241.454 41.0918H243.624C245.546 41.0918 247.023 40.4924 248.057 39.2938C249.111 38.0951 249.638 36.4004 249.638 34.2098C249.638 32.3498 249.111 30.8618 248.057 29.7458C247.003 28.6091 245.515 28.0408 243.593 28.0408H241.454V41.0918ZM236.556 24.1038H243.748C246.889 24.1038 249.462 25.0751 251.467 27.0178C253.471 28.9398 254.474 31.3371 254.474 34.2098C254.474 37.5578 253.482 40.1928 251.498 42.1148C249.534 44.0368 246.93 44.9978 243.686 44.9978H236.556V24.1038ZM264.506 45.2458C262.046 45.2458 260.145 44.5121 258.802 43.0448C257.458 41.5568 256.787 39.6554 256.787 37.3408C256.787 34.9228 257.489 32.9388 258.895 31.3888C260.3 29.8181 262.17 29.0328 264.506 29.0328C266.944 29.0328 268.835 29.7871 270.179 31.2958C271.522 32.8044 272.194 34.7264 272.194 37.0618C272.194 39.4384 271.512 41.4018 270.148 42.9518C268.804 44.4811 266.924 45.2458 264.506 45.2458ZM264.475 32.5978C263.483 32.5978 262.739 33.0214 262.243 33.8688C261.747 34.7161 261.499 35.8114 261.499 37.1548C261.499 38.4981 261.747 39.6038 262.243 40.4718C262.759 41.3191 263.524 41.7428 264.537 41.7428C265.529 41.7428 266.262 41.3294 266.738 40.5028C267.234 39.6554 267.482 38.5601 267.482 37.2168C267.482 34.1374 266.479 32.5978 264.475 32.5978ZM300.571 24.1038L293.348 37.3098V44.9978H288.574V37.3408L281.444 24.1038H287.024L288.295 27.1418C288.956 28.7124 289.504 30.0558 289.938 31.1718C290.372 32.2878 290.651 33.0111 290.775 33.3418L290.93 33.8378C291.136 32.9078 292.046 30.6758 293.658 27.1418L295.022 24.1038H300.571ZM309.764 45.2458C307.305 45.2458 305.404 44.5121 304.06 43.0448C302.717 41.5568 302.045 39.6554 302.045 37.3408C302.045 34.9228 302.748 32.9388 304.153 31.3888C305.559 29.8181 307.429 29.0328 309.764 29.0328C312.203 29.0328 314.094 29.7871 315.437 31.2958C316.781 32.8044 317.452 34.7264 317.452 37.0618C317.452 39.4384 316.77 41.4018 315.406 42.9518C314.063 44.4811 312.182 45.2458 309.764 45.2458ZM309.733 32.5978C308.741 32.5978 307.997 33.0214 307.501 33.8688C307.005 34.7161 306.757 35.8114 306.757 37.1548C306.757 38.4981 307.005 39.6038 307.501 40.4718C308.018 41.3191 308.783 41.7428 309.795 41.7428C310.787 41.7428 311.521 41.3294 311.996 40.5028C312.492 39.6554 312.74 38.5601 312.74 37.2168C312.74 34.1374 311.738 32.5978 309.733 32.5978ZM330.143 29.2808H334.669V44.9978H330.143V42.4868C329.317 44.2434 327.725 45.1218 325.369 45.1218C323.757 45.1218 322.497 44.6774 321.587 43.7888C320.699 42.8794 320.254 41.5464 320.254 39.7898V29.2808H324.78V38.7668C324.78 40.6061 325.586 41.5258 327.198 41.5258C329.162 41.5258 330.143 40.2134 330.143 37.5888V29.2808ZM142.405 84.9978V64.1038H147.179V84.9978H142.405ZM152.976 74.5508L160.385 84.9978H154.402L147.396 74.6128L154.154 64.1038H159.827L152.976 74.5508ZM167.302 69.2808V71.9468C167.694 71.0788 168.294 70.3968 169.1 69.9008C169.926 69.3841 170.908 69.1258 172.045 69.1258C173.657 69.1258 174.917 69.6114 175.827 70.5828C176.736 71.5334 177.191 72.9388 177.191 74.7988V84.9978H172.665V75.6358C172.665 74.7058 172.448 74.0031 172.014 73.5278C171.58 73.0318 170.97 72.7838 170.185 72.7838C169.358 72.7838 168.666 73.1144 168.108 73.7758C167.57 74.4164 167.302 75.3878 167.302 76.6898V84.9978H162.776V69.2808H167.302ZM187.702 85.2458C185.243 85.2458 183.341 84.5121 181.998 83.0448C180.655 81.5568 179.983 79.6554 179.983 77.3408C179.983 74.9228 180.686 72.9388 182.091 71.3888C183.496 69.8181 185.367 69.0328 187.702 69.0328C190.141 69.0328 192.032 69.7871 193.375 71.2958C194.718 72.8044 195.39 74.7264 195.39 77.0618C195.39 79.4384 194.708 81.4018 193.344 82.9518C192.001 84.4811 190.12 85.2458 187.702 85.2458ZM187.671 72.5978C186.679 72.5978 185.935 73.0214 185.439 73.8688C184.943 74.7161 184.695 75.8114 184.695 77.1548C184.695 78.4981 184.943 79.6038 185.439 80.4718C185.956 81.3191 186.72 81.7428 187.733 81.7428C188.725 81.7428 189.459 81.3294 189.934 80.5028C190.43 79.6554 190.678 78.5601 190.678 77.2168C190.678 74.1374 189.676 72.5978 187.671 72.5978ZM201.695 84.9978L196.642 69.2808H201.323L202.687 74.4578C203.017 75.7598 203.296 76.9378 203.524 77.9918C203.751 79.0251 203.885 79.7381 203.927 80.1308L204.02 80.7198C204.164 79.4798 204.671 77.3924 205.539 74.4578L207.058 69.2808H210.964L212.452 74.4578C212.824 75.7804 213.134 76.9688 213.382 78.0228C213.63 79.0561 213.785 79.7691 213.847 80.1618L213.94 80.7198C214.084 79.5004 214.57 77.4131 215.397 74.4578L216.854 69.2808H221.318L216.296 84.9978H211.646L210.282 79.8518C209.992 78.7358 209.734 77.6921 209.507 76.7208C209.3 75.7494 209.166 75.0571 209.104 74.6438L209.011 74.0238C208.804 75.4084 208.37 77.3511 207.709 79.8518L206.345 84.9978H201.695ZM230.762 84.9978L232.56 64.1038H237.799L240.713 71.6678C241.209 72.9284 241.633 74.0858 241.984 75.1398C242.336 76.1938 242.563 76.9378 242.666 77.3718L242.821 77.9918C243.152 76.6278 243.875 74.5198 244.991 71.6678L247.936 64.1038H253.175L255.345 84.9978H250.571L249.796 76.9068L249.393 70.7998C248.856 72.3498 248.112 74.3854 247.161 76.9068L244.216 84.7808H241.395L238.481 76.9068C238.006 75.6254 237.603 74.4784 237.272 73.4658C236.942 72.4531 236.725 71.7504 236.621 71.3578L236.466 70.7998C236.466 72.2671 236.373 74.3028 236.187 76.9068L235.536 84.9978H230.762ZM267.825 75.6978V75.3258C267.681 73.4864 266.875 72.5668 265.407 72.5668C264.684 72.5668 264.043 72.8354 263.485 73.3728C262.927 73.8894 262.555 74.6644 262.369 75.6978H267.825ZM271.08 80.3168V84.0988C270.006 84.8014 268.363 85.1528 266.151 85.1528C263.568 85.1528 261.553 84.4088 260.106 82.9208C258.68 81.4121 257.967 79.4798 257.967 77.1238C257.967 74.6231 258.66 72.6701 260.044 71.2648C261.45 69.8388 263.175 69.1258 265.221 69.1258C267.329 69.1258 268.993 69.7458 270.212 70.9858C271.432 72.2051 272.041 74.0341 272.041 76.4728C272.041 76.9481 271.959 77.7644 271.793 78.9218H262.555C262.865 79.7898 263.403 80.4614 264.167 80.9368C264.932 81.4121 265.852 81.6498 266.926 81.6498C268.518 81.6498 269.902 81.2054 271.08 80.3168ZM275.427 68.9708V64.7238C276.667 64.1451 278.248 63.8558 280.17 63.8558C282.112 63.8558 283.683 64.3724 284.882 65.4058C286.08 66.4184 286.68 67.7928 286.68 69.5288C286.68 70.4588 286.494 71.3061 286.122 72.0708C285.75 72.8148 285.285 73.4038 284.727 73.8378C284.169 74.2511 283.621 74.5714 283.084 74.7988C282.546 75.0261 282.061 75.1398 281.627 75.1398L281.534 77.6818H277.411L277.318 73.0008C280.5 73.0008 282.092 72.0294 282.092 70.0868C282.092 69.3428 281.864 68.7538 281.41 68.3198C280.976 67.8651 280.325 67.6378 279.457 67.6378C278.113 67.6378 276.77 68.0821 275.427 68.9708ZM277.411 84.4398C276.873 83.8818 276.605 83.2101 276.605 82.4248C276.605 81.6394 276.873 80.9781 277.411 80.4408C277.969 79.8828 278.64 79.6038 279.426 79.6038C280.211 79.6038 280.872 79.8828 281.41 80.4408C281.968 80.9781 282.247 81.6394 282.247 82.4248C282.247 83.2101 281.968 83.8818 281.41 84.4398C280.872 84.9771 280.211 85.2458 279.426 85.2458C278.64 85.2458 277.969 84.9771 277.411 84.4398Z" fill="#D11149"/>
<path d="M66.2214 60.9479L54.9077 72.2616L60.5646 77.9185C62.6859 80.0398 64.1001 80.0398 66.2214 77.9185L71.8783 72.2616C73.9996 70.1403 73.9996 68.7261 71.8783 66.6048L66.2214 60.9479Z" stroke="#268822" stroke-width="1.5" stroke-miterlimit="10" stroke-linecap="round" stroke-linejoin="round"/>
<path d="M65.182 57.7447L65.8891 58.4518C66.6669 59.2296 66.9285 60.2408 65.8891 61.2803L55.2825 71.8869C54.2006 72.9687 53.2319 72.6647 52.4541 71.8869L51.7469 71.1797C50.9691 70.4019 50.6651 69.4332 51.7469 68.3513L62.3535 57.7447C63.393 56.7053 64.4042 56.9669 65.182 57.7447Z" stroke="#268822" stroke-width="1.5" stroke-miterlimit="10" stroke-linecap="round" stroke-linejoin="round"/>
<path d="M56.7957 63.3026L52.8925 67.2058C52.3904 67.1846 51.9944 66.7745 51.9944 66.2654L51.9944 64.2572C51.9944 63.7339 52.4258 63.3026 52.949 63.3026L56.7957 63.3026Z" stroke="#268822" stroke-width="1.5" stroke-miterlimit="10" stroke-linecap="round" stroke-linejoin="round"/>
<path d="M61.201 58.8973L57.2977 62.8005L57.2977 58.9539C57.2977 58.4306 57.7291 57.9993 58.2523 57.9993L60.2605 57.9993C60.7696 57.9993 61.1797 58.3953 61.201 58.8973Z" stroke="#268822" stroke-width="1.5" stroke-miterlimit="10" stroke-linecap="round" stroke-linejoin="round"/>
<path d="M58.422 68.7473L62.0566 72.3818C62.6223 72.9475 63.5769 72.6576 63.7466 71.8798L63.9728 70.7767C64.0577 70.3807 64.3617 70.0767 64.7506 69.9989L65.8042 69.7938C66.5821 69.6383 66.879 68.6766 66.3134 68.1109L62.6859 64.4834L58.422 68.7473Z" stroke="#268822" stroke-width="1.5" stroke-miterlimit="10" stroke-linecap="round" stroke-linejoin="round"/>
<path d="M368.927 56.6048L364.614 56.6048" stroke="#EC7322" stroke-width="1.5" stroke-miterlimit="10" stroke-linecap="round" stroke-linejoin="round"/>
<path d="M366.77 54.4905V58.8039" stroke="#EC7322" stroke-width="1.5" stroke-miterlimit="10" stroke-linecap="round" stroke-linejoin="round"/>
<path d="M370.638 60.4939L370.645 60.5009" stroke="#EC7322" stroke-width="2" stroke-miterlimit="10" stroke-linecap="round" stroke-linejoin="round"/>
<path d="M373.424 63.2799L373.431 63.2869" stroke="#EC7322" stroke-width="2" stroke-miterlimit="10" stroke-linecap="round" stroke-linejoin="round"/>
<path d="M370.631 63.2869L370.645 63.2728" stroke="#EC7322" stroke-width="2" stroke-miterlimit="10" stroke-linecap="round" stroke-linejoin="round"/>
<path d="M373.417 60.5009L373.431 60.4868" stroke="#EC7322" stroke-width="2" stroke-miterlimit="10" stroke-linecap="round" stroke-linejoin="round"/>
<path d="M361.778 62.9475L366.021 67.1902C369.556 70.7257 372.385 70.7257 375.92 67.1902L377.335 65.776C380.87 62.2404 380.87 59.412 377.335 55.8765L373.092 51.6338C369.556 48.0983 366.728 48.0983 363.192 51.6338L361.778 53.048C358.243 56.5836 358.243 59.412 361.778 62.9475Z" stroke="#EC7322" stroke-width="1.5" stroke-linecap="round" stroke-linejoin="round"/>
<path d="M378.756 51.6409L378.035 52.348C377.639 52.7298 377.016 52.7298 376.627 52.3409L376.606 52.3197C376.217 51.9308 375.588 51.9379 375.199 52.3268C374.81 52.7157 374.81 53.3521 375.199 53.741L375.906 54.4481" stroke="#EC7322" stroke-width="1.5" stroke-linecap="round" stroke-linejoin="round"/>
</svg>
