<svg width="147" height="151" viewBox="0 0 147 151" fill="none" xmlns="http://www.w3.org/2000/svg">
<path d="M2.71867 14.9543C2.51867 14.9543 2.31866 14.9543 2.11866 14.9543C1.11866 17.2543 0.718659 21.0543 1.11866 25.5543C1.41866 29.6543 2.31865 33.9543 3.51865 37.2543L4.11866 37.0543C1.71866 30.5543 0.618665 19.8543 2.71867 14.9543Z" fill="#EDE0D5"/>
<path d="M145.419 124.954C144.719 121.454 143.319 118.354 141.919 115.254C140.519 112.054 139.019 108.654 138.319 104.854C137.519 100.654 137.819 96.2545 139.219 91.4545L138.819 91.3545C135.619 102.154 138.619 108.854 141.519 115.354C142.819 118.354 144.219 121.454 145.019 124.954C146.719 132.954 144.219 140.054 138.019 144.854C130.219 150.954 118.419 152.054 109.219 147.554C105.919 145.954 101.119 142.654 97.9187 136.554C97.8187 136.654 97.7187 136.654 97.6187 136.754C100.919 142.954 105.619 146.254 109.019 147.954C112.819 149.854 117.119 150.754 121.419 150.754C127.519 150.754 133.619 148.854 138.219 145.254C141.219 142.954 143.319 140.054 144.619 136.754C146.019 133.054 146.319 129.154 145.419 124.954Z" fill="#EB99B1"/>
<path d="M98.1187 91.2544C98.0187 91.2544 97.8187 91.3544 97.7187 91.3544C95.6187 100.554 94.0186 110.154 94.0186 120.054C94.0186 125.454 94.9187 129.854 96.2187 133.454C96.3187 133.354 96.4186 133.354 96.5186 133.254C95.2186 129.654 94.3186 125.354 94.3186 120.054C94.4186 110.154 96.0187 100.454 98.1187 91.2544Z" fill="#EB99B1"/>
<path d="M101.919 75.1543C101.819 75.3543 101.819 75.5543 101.719 75.7543C100.719 79.5543 99.6187 83.3543 98.6187 87.4543C98.7187 87.4543 98.9186 87.3543 99.0186 87.3543C100.019 83.4543 101.019 79.6543 102.019 75.9543C102.019 75.8543 102.119 75.7543 102.119 75.5543C102.119 75.3543 102.019 75.2543 101.919 75.1543Z" fill="#EB99B1"/>
<path d="M97.5186 21.0544C94.1186 19.0544 89.9186 18.2544 85.3186 18.7544C82.4186 19.0544 79.3186 19.8544 76.3186 21.1544C74.6186 18.7544 72.6186 16.5544 70.5186 14.5544C70.4186 14.6544 70.3187 14.7544 70.2187 14.8544C72.3187 16.8544 74.2187 19.0544 75.9187 21.3544C74.6187 21.9544 73.4187 22.5544 72.2187 23.2544C66.9187 26.4544 62.3186 30.8544 59.0186 36.0544C55.4186 41.7544 53.6187 48.1544 53.7187 54.6544C53.8187 62.1544 55.1186 68.5544 57.5186 73.3544C57.6186 73.3544 57.8187 73.3544 57.9187 73.3544C55.5187 68.5544 54.2186 62.1544 54.1186 54.6544C54.0186 48.2544 55.8187 41.9544 59.4187 36.2544C62.6187 31.1544 67.2186 26.7544 72.5186 23.5544C73.7186 22.8544 75.0186 22.1544 76.3186 21.6544C77.3186 22.9544 78.1186 24.3544 79.0186 25.7544C83.7186 33.7544 86.0186 42.9544 85.8186 52.9544C85.6186 61.9544 83.8186 69.5544 80.5186 74.8544C77.6186 79.5544 73.7186 82.1544 69.6186 82.1544C66.1186 82.1544 62.9186 80.2544 60.3186 76.8544C60.2186 76.8544 60.0187 76.8544 59.9187 76.8544C62.6187 80.5544 66.0187 82.5544 69.7187 82.5544C73.9187 82.5544 77.9187 79.9544 80.9187 75.1544C84.3187 69.7544 86.1186 62.1544 86.3186 53.0544C86.5186 42.9544 84.2187 33.7544 79.4187 25.6544C78.6187 24.2544 77.7186 22.9544 76.8186 21.6544C79.7186 20.3544 82.7187 19.5544 85.6187 19.2544C90.0187 18.7544 94.2186 19.5544 97.5186 21.4544C102.219 24.1544 107.819 30.4544 107.819 44.9544C107.819 52.7544 105.719 61.6544 103.219 71.0544C103.319 71.1544 103.419 71.2544 103.519 71.3544C106.019 61.7544 108.219 52.7544 108.219 44.9544C108.019 30.1544 102.319 23.8544 97.5186 21.0544Z" fill="#EB99B1"/>
<path d="M67.6187 12.5544C67.7187 12.4544 67.8187 12.3544 67.9187 12.2544C65.9187 10.6544 63.8187 9.15442 61.6187 7.85442C47.8187 -0.345583 31.3187 -1.34558 19.6187 5.35442C14.7187 8.15442 10.8186 12.1544 8.01865 17.2544C5.01865 22.8544 3.51865 29.5544 3.51865 37.2544H3.91866C3.91866 29.6544 5.41865 22.9544 8.31865 17.4544C11.0186 12.4544 14.8187 8.45442 19.7187 5.65442C31.3187 -0.945584 47.6186 0.0544157 61.3186 8.15442C63.6186 9.55442 65.7187 10.9544 67.6187 12.5544Z" fill="#EB99B1"/>
<g style="mix-blend-mode:multiply">
<path d="M143.219 79.9543L135.919 91.9543L139.319 92.1544H140.519L141.219 93.4543C141.119 96.5543 141.219 104.654 142.919 107.354C143.119 107.354 143.419 107.354 143.619 107.454C142.919 106.754 142.119 104.854 141.819 99.0544C141.719 97.2544 141.719 95.6543 141.719 94.3543L143.119 91.8543C143.119 91.8543 146.319 91.3543 146.319 91.4543C146.419 91.3543 143.219 79.9543 143.219 79.9543Z" fill="#5E0821"/>
</g>
<path d="M141.119 87.4543L139.119 93.6544L139.419 89.6544V89.5544L141.119 87.4543Z" fill="#A6A09C"/>
<path d="M143.119 78.7544L144.419 89.8544L143.319 89.7544L139.419 89.6544V89.5544L142.619 79.6544L135.119 89.5544L130.019 89.4544L143.119 78.7544Z" fill="#EB99B1"/>
<path d="M142.719 79.6543L139.419 89.5543V89.6543L139.119 93.6543L135.119 89.5543L142.719 79.6543Z" fill="#B20E3E"/>
</svg>
