<svg width="428" height="196" viewBox="0 0 428 196" fill="none" xmlns="http://www.w3.org/2000/svg">
<path d="M377.819 186.355C377.819 186.355 375.819 186.355 373.219 186.355C368.619 186.355 364.019 185.955 359.419 186.255C353.319 186.655 341.219 189.555 335.919 187.055C334.919 186.555 304.419 136.955 303.819 135.855C303.419 135.155 303.019 134.455 302.519 133.755C300.519 130.855 298.419 128.655 296.919 125.555C296.719 125.155 296.519 124.755 296.319 124.255C296.219 123.955 296.119 123.655 295.919 123.255C294.219 120.555 292.319 116.955 292.819 113.755C293.019 112.755 294.119 111.955 294.719 111.055C296.919 108.055 299.719 105.155 302.619 102.855C305.019 100.955 309.119 98.0546 312.319 98.4546C313.119 98.5546 314.019 100.055 314.419 100.555C322.319 110.155 325.019 116.255 334.719 128.055C339.019 133.155 378.419 183.455 377.819 186.355Z" fill="url(#paint0_linear_156_9198)"/>
<path d="M259.519 76.0546C258.519 76.1546 258.119 74.8546 258.119 73.9546C258.019 70.5546 262.619 71.6546 262.519 71.6546C261.719 72.0546 261.219 72.3546 260.619 73.1546C260.019 74.0546 259.619 75.0546 259.519 76.0546Z" fill="#FAE7ED"/>
<path d="M264.619 58.9545C264.219 58.3545 261.319 58.2545 262.819 61.4545C264.219 64.6545 264.619 58.9545 264.619 58.9545Z" fill="#FAE7ED"/>
<path d="M311.319 127.855C308.619 128.255 306.019 128.255 304.019 127.955C303.819 127.955 303.619 127.855 303.419 127.855C301.119 127.455 299.019 126.655 296.919 125.555C296.419 125.355 296.019 125.055 295.519 124.755C287.519 119.955 281.519 110.855 279.719 102.255C279.119 97.2545 279.119 91.7545 279.119 86.7545C279.119 77.4545 281.719 63.8545 294.019 65.4545C295.619 65.6545 297.119 66.2545 298.519 67.0545C300.919 68.4545 303.119 70.5545 305.019 72.4545C309.019 76.5545 310.519 81.4545 312.319 86.7545C313.319 89.4545 314.719 92.0545 315.719 94.7545C316.919 97.9545 317.619 101.355 318.819 104.555C319.019 105.055 319.219 105.555 319.419 105.955C321.119 109.655 323.619 113.155 324.119 117.255C324.819 123.755 317.919 126.955 311.319 127.855Z" fill="#5E0821"/>
<path d="M266.119 93.9546C265.219 94.1546 264.219 94.1546 263.519 94.7546C261.619 96.3546 262.219 100.355 264.219 101.755C265.619 102.755 267.519 102.555 269.019 102.155C270.419 101.755 270.819 100.655 271.019 99.2546C271.119 98.5546 271.219 97.7546 271.019 96.9546C270.419 95.0546 268.219 93.3546 266.119 93.9546Z" fill="#5E0821"/>
<path d="M267.919 81.8544C266.519 81.7544 265.619 81.8544 264.219 82.2544C263.619 82.4544 263.019 82.5544 262.519 83.0544C262.019 83.5544 261.719 84.2544 261.619 84.9544C261.419 85.8544 261.219 87.0544 261.519 87.8544C262.119 89.5544 264.419 90.2544 265.919 90.2544C267.519 90.2544 269.119 89.8544 270.619 89.6544C271.319 89.5544 272.019 89.5544 272.519 88.9544C274.319 86.7544 272.619 83.1544 270.319 82.0544C269.719 81.8544 268.619 81.8544 267.919 81.8544Z" fill="#5E0821"/>
<path d="M265.919 70.2546C266.019 72.3546 265.919 74.3546 265.919 76.4546C265.919 77.0546 265.919 77.5546 265.919 78.1546C265.919 78.3546 266.019 78.6546 265.919 78.8546C265.719 79.2546 264.819 79.0546 264.519 79.0546C263.219 78.9546 261.519 78.6546 260.519 77.7546C259.319 76.7546 259.119 75.2546 259.319 73.7546C259.419 73.0546 259.619 72.3546 260.219 71.8546C261.019 71.1546 262.219 70.8546 263.319 70.5546C264.019 70.3546 265.019 70.3546 265.919 70.2546Z" fill="#5E0821"/>
<path d="M266.019 59.0544C262.919 57.8544 262.419 61.5544 262.919 62.8544C263.019 63.3544 263.319 63.7544 263.519 64.1544C264.519 65.9544 266.219 67.5544 267.919 68.6544C268.519 69.0544 269.319 69.4544 270.019 69.1544C270.419 68.9544 270.719 68.3544 270.919 67.9544C271.419 66.9544 271.919 65.7544 271.619 64.5544C271.319 63.4544 270.319 62.7544 269.519 62.0544C265.719 59.0544 266.919 59.5544 266.019 59.0544Z" fill="#5E0821"/>
<path d="M263.019 82.9546C261.819 84.0546 261.219 85.9546 261.419 86.7546C259.619 85.7546 261.819 81.6546 263.019 82.9546Z" fill="#FAE7ED"/>
<path d="M296.119 114.555C296.819 114.555 301.719 114.155 302.719 112.455C303.119 111.755 303.319 110.855 303.319 110.055V50.4545C303.319 48.6545 302.819 46.8545 302.019 45.8545C301.219 44.8545 299.619 44.3545 296.619 44.1545L296.019 44.5545C297.919 45.0545 300.219 46.9545 300.219 49.0545V110.055C300.219 112.155 297.919 114.055 296.119 114.555Z" fill="#F4BB25"/>
<path d="M300.219 110.055V73.4546C301.219 78.1546 303.319 77.6546 303.319 83.4546V110.055C303.319 110.855 303.019 111.655 302.719 112.455C301.819 115.355 296.119 114.955 296.119 114.955C297.919 114.455 300.219 112.155 300.219 110.055Z" fill="#C78E3C"/>
<path d="M305.519 117.554C301.119 114.954 292.519 117.054 289.619 114.854L296.419 105.854L306.519 107.454L305.519 117.554Z" fill="#5E0821"/>
<path d="M295.319 115.255C294.519 115.255 293.619 115.155 292.819 115.055C292.319 114.955 291.819 114.955 291.419 114.955C287.419 114.855 283.419 114.455 279.419 114.055C277.619 113.855 275.719 113.655 273.919 113.555C273.519 113.555 273.219 113.455 272.819 113.455C269.819 113.255 266.519 113.055 265.819 108.855C265.519 107.155 265.619 105.455 265.619 103.755C265.619 102.755 265.719 101.755 265.619 100.855C265.619 99.8545 265.519 98.8545 265.419 97.8545C265.319 96.4545 265.219 94.9545 265.219 93.4545C265.219 92.2545 265.319 90.9545 265.419 89.7545C265.519 88.5545 265.619 87.2545 265.619 85.9545C265.619 85.0545 265.519 84.0545 265.519 83.1545C265.419 81.8545 265.319 80.5545 265.419 79.3545C265.419 77.7545 265.519 76.2545 265.619 74.7545C265.819 72.1545 265.919 69.5545 265.819 66.8545C265.619 64.2545 265.719 61.6545 265.819 59.1545C265.819 57.5545 265.919 55.9545 265.919 54.2545C265.919 53.9545 265.919 53.5545 265.919 53.2545C265.819 51.3545 265.819 49.1545 266.919 47.5545L267.019 47.3545C267.819 46.2545 268.319 45.5545 271.619 45.1545C274.919 44.6545 281.119 44.3545 292.919 44.1545H293.519C294.319 44.1545 295.719 44.1545 296.119 44.1545C297.119 44.1545 298.919 44.1545 300.119 45.8545C300.619 46.5545 300.619 47.0545 300.719 47.7545C301.319 54.2545 301.319 61.0545 301.419 67.5545C301.419 69.9545 301.419 72.4545 301.519 74.9545C301.519 77.1545 301.619 79.3545 301.719 81.5545C301.919 86.5545 302.119 91.6545 301.719 96.7545C301.619 97.8545 301.519 98.8545 301.419 99.9545C301.219 101.855 301.019 103.955 301.019 105.855C301.019 106.255 301.019 106.755 301.119 107.255C301.219 109.155 301.319 111.255 300.519 112.855C299.019 114.955 296.919 115.255 295.319 115.255ZM295.719 44.8545C295.319 44.8545 293.919 44.8545 293.119 44.8545H292.519C268.919 45.2545 268.419 45.9545 267.219 47.7545L267.119 47.9545C266.119 49.3545 266.219 51.4545 266.319 53.2545C266.319 53.5545 266.319 53.9545 266.319 54.3545C266.319 55.9545 266.319 57.6545 266.219 59.2545C266.119 61.7545 266.119 64.3545 266.219 66.8545C266.419 69.5545 266.219 72.2545 266.019 74.8545C265.919 76.3545 265.819 77.9545 265.819 79.4545C265.819 80.7545 265.919 81.9545 265.919 83.2545C266.019 84.1545 266.019 85.1545 266.019 86.0545C266.019 87.3545 265.919 88.6545 265.819 89.8545C265.719 91.0545 265.619 92.2545 265.619 93.4545C265.619 94.8545 265.719 96.3545 265.819 97.7545C265.919 98.7545 266.019 99.7545 266.019 100.855C266.019 101.855 266.019 102.855 266.019 103.855C266.019 105.455 265.919 107.155 266.219 108.755C266.819 112.355 269.619 112.555 272.519 112.755C272.919 112.755 273.219 112.755 273.619 112.855C275.419 113.055 277.319 113.155 279.119 113.355C283.019 113.755 287.019 114.155 291.019 114.255C291.419 114.255 292.019 114.355 292.519 114.355C293.219 114.455 294.119 114.555 294.919 114.555C297.719 114.555 298.519 113.555 298.919 112.755C299.619 111.355 299.519 109.255 299.419 107.455C299.419 106.955 299.319 106.455 299.319 105.955C299.319 103.955 299.519 101.955 299.719 99.9545C299.819 98.9545 299.919 97.8545 300.019 96.7545C300.319 91.6545 300.219 86.5545 300.019 81.5545C299.919 79.3545 299.819 77.1545 299.819 74.9545C299.819 72.4545 299.819 69.9545 299.719 67.5545C299.719 61.0545 299.719 54.3545 299.019 47.8545C298.919 47.1545 298.919 46.8545 298.519 46.2545C298.219 44.9545 297.019 44.8545 295.719 44.8545Z" fill="#F4BB25"/>
<path d="M299.719 47.8545C300.519 56.8545 300.319 65.9545 300.419 74.9545C300.519 82.2545 301.119 89.4545 300.619 96.7545C300.419 99.7545 299.919 102.855 299.919 105.855C299.919 107.855 300.419 110.755 299.419 112.655C298.019 115.455 293.819 114.355 291.319 114.255C285.519 114.055 279.619 113.355 273.819 112.855C270.519 112.555 266.919 112.855 266.219 108.655C265.819 106.055 266.119 103.355 266.019 100.755C265.919 98.2545 265.619 95.8545 265.519 93.3545C265.519 90.8545 265.919 88.3545 265.819 85.9545C265.819 83.7545 265.519 81.5545 265.519 79.3545C265.619 75.1545 266.119 70.9545 265.919 66.7545C265.619 62.5545 266.019 58.4545 266.019 54.2545C266.019 52.2545 265.619 49.5545 266.819 47.8545C268.119 45.9545 267.919 45.1545 292.319 44.7545C294.919 44.7545 297.419 44.2545 299.019 46.1545C299.619 46.7545 299.619 47.1545 299.719 47.8545Z" fill="#FAE7ED"/>
<path d="M295.319 114.955C294.519 114.955 293.619 114.855 292.919 114.755C292.419 114.655 291.919 114.655 291.419 114.655C287.419 114.555 283.419 114.155 279.519 113.755C277.719 113.555 275.819 113.355 273.919 113.255C273.519 113.255 273.219 113.155 272.819 113.155C269.819 112.955 266.719 112.755 266.019 108.755C265.719 107.155 265.819 105.355 265.819 103.755C265.819 102.755 265.919 101.755 265.819 100.755C265.819 99.7546 265.719 98.7546 265.619 97.7546C265.519 96.3546 265.419 94.8546 265.419 93.4546C265.419 92.2546 265.519 91.0546 265.619 89.8546C265.719 88.6546 265.819 87.3546 265.819 86.0546C265.819 85.1546 265.719 84.1546 265.719 83.2546C265.619 81.9546 265.519 80.6546 265.619 79.4546C265.619 77.8546 265.719 76.3546 265.819 74.8546C266.019 72.2546 266.119 69.5546 266.019 66.9546C265.819 64.3546 265.919 61.7546 266.019 59.2546C266.019 57.6546 266.119 56.0546 266.119 54.3546C266.119 54.0546 266.119 53.6546 266.119 53.3546C266.019 51.4546 266.019 49.3546 267.019 47.7546C267.019 47.6546 267.119 47.6546 267.119 47.5546C268.419 45.6546 268.919 44.8546 292.819 44.4546C293.219 44.4546 293.619 44.4546 294.019 44.4546C296.119 44.3546 298.419 44.2546 299.819 46.0546C300.319 46.6546 300.319 47.1546 300.419 47.8546V47.9546C301.019 54.4546 301.019 61.2546 301.119 67.7546C301.119 70.1546 301.119 72.6546 301.219 75.1546C301.219 77.3546 301.319 79.5546 301.419 81.7546C301.619 86.7546 301.819 91.8546 301.419 96.9546C301.319 98.0546 301.219 99.0546 301.119 100.155C300.919 102.155 300.719 104.155 300.719 106.055C300.719 106.455 300.719 106.955 300.819 107.455C300.919 109.355 301.019 111.455 300.219 112.955C298.919 114.555 297.119 114.955 295.319 114.955ZM295.219 45.0546C294.719 45.0546 294.219 45.0546 293.719 45.0546C293.319 45.0546 292.919 45.0546 292.519 45.0546C269.019 45.4546 268.519 46.2546 267.419 47.8546C267.419 47.9546 267.319 47.9546 267.319 48.0546C266.419 49.3546 266.419 51.4546 266.519 53.1546C266.519 53.5546 266.519 53.8546 266.519 54.2546C266.519 55.8546 266.519 57.5546 266.419 59.1546C266.319 61.6546 266.319 64.2546 266.419 66.7546C266.619 69.4546 266.419 72.1546 266.219 74.7546C266.119 76.2546 266.019 77.8546 266.019 79.3546C266.019 80.6546 266.119 81.8546 266.119 83.1546C266.219 84.0546 266.219 85.0546 266.219 85.9546C266.219 87.2546 266.119 88.5546 266.019 89.8546C265.919 91.0546 265.819 92.2546 265.819 93.4546C265.819 94.8546 265.919 96.3546 266.019 97.7546C266.119 98.7546 266.219 99.7546 266.219 100.855C266.219 101.855 266.219 102.855 266.219 103.855C266.219 105.455 266.119 107.155 266.419 108.755C267.019 112.155 269.619 112.355 272.519 112.555C272.919 112.555 273.319 112.555 273.619 112.655C275.519 112.855 277.319 112.955 279.219 113.155C283.119 113.555 287.119 113.955 291.119 114.055C291.619 114.055 292.119 114.155 292.619 114.155C294.919 114.355 297.819 114.655 298.819 112.655C299.519 111.255 299.419 109.255 299.319 107.555C299.319 107.055 299.219 106.555 299.219 106.055C299.219 104.055 299.419 102.055 299.619 100.055C299.719 99.0546 299.819 97.9546 299.919 96.8546C300.219 91.8546 300.119 86.6546 299.919 81.7546C299.819 79.5546 299.719 77.3546 299.719 75.1546C299.719 72.6546 299.719 70.1546 299.619 67.7546C299.619 61.2546 299.619 54.5546 298.919 48.0546V47.9546C298.919 47.3546 298.819 47.0546 298.519 46.6546C298.019 45.2546 296.719 45.0546 295.219 45.0546Z" fill="#4E494A"/>
<path d="M302.119 69.0546C302.319 68.9546 302.519 68.7546 302.519 68.4546V63.0546C302.519 62.7546 302.219 62.4546 301.919 62.6546C301.719 62.7546 301.519 62.9546 301.519 63.2546V68.6546C301.519 68.9546 301.819 69.1546 302.119 69.0546Z" fill="#5A5547"/>
<path d="M302.319 69.0546C302.519 68.9546 302.719 68.7546 302.719 68.4546V63.0546C302.719 62.7546 302.419 62.4546 302.119 62.6546C301.919 62.7546 301.719 62.9546 301.719 63.2546V68.6546C301.719 68.9546 302.019 69.1546 302.319 69.0546Z" fill="#C9C0AC"/>
<path d="M265.819 94.2544C265.719 94.0544 265.419 93.9544 265.219 94.1544C264.419 94.5544 264.119 95.5544 263.919 96.4544C263.719 97.6544 263.519 98.9544 263.719 100.254C263.819 101.054 264.119 102.054 265.019 102.354C266.319 102.754 266.819 101.254 267.119 100.354C267.619 98.1544 267.019 95.9544 265.819 94.2544Z" fill="#5E0821"/>
<path d="M305.919 126.455C304.319 126.455 302.819 126.555 301.219 126.455C299.719 126.355 298.319 126.055 296.919 125.755C298.419 128.855 300.519 130.955 302.519 133.855C302.119 130.855 302.919 129.055 304.019 128.055C305.919 126.355 308.819 126.655 308.819 126.655L310.919 125.955L310.819 125.655C309.219 126.355 307.619 126.455 305.919 126.455Z" fill="#5E0821"/>
<path opacity="0.5" d="M304.219 126.755C303.519 126.755 302.819 126.655 302.019 126.655C299.519 126.355 295.819 125.355 293.919 124.255C291.919 123.055 290.619 121.655 289.019 119.955C289.019 119.855 289.019 119.855 289.019 119.755C289.119 119.755 289.119 119.755 289.219 119.755C290.819 121.555 292.119 122.855 294.019 124.055C295.819 125.155 299.619 126.155 302.019 126.455C304.419 126.755 306.119 126.655 309.719 125.855C309.819 125.855 309.819 125.855 309.819 125.955C309.819 126.055 309.819 126.055 309.719 126.055C307.219 126.455 305.719 126.755 304.219 126.755Z" fill="#C9A8A2"/>
<path d="M308.319 66.3546C313.719 78.3546 313.819 83.1546 315.119 87.4546C316.019 90.2546 320.019 95.6546 320.819 98.4546C321.619 101.055 323.419 109.055 323.519 113.355C323.719 118.855 322.519 117.555 317.019 118.055C311.119 118.655 307.119 120.355 302.619 114.555C301.319 112.855 301.219 112.455 300.619 110.455C298.919 105.355 298.719 99.6546 299.919 94.4546C300.819 90.2546 303.019 87.6546 302.919 83.0546C302.819 79.5546 301.119 77.0546 300.219 73.8546C299.619 71.5546 299.719 68.9546 300.119 66.6546C300.519 63.9546 302.919 56.7546 306.719 61.5546C307.219 62.0546 308.219 65.0546 308.319 66.3546Z" fill="#5E0821"/>
<path opacity="0.5" d="M305.719 117.755C304.719 116.955 303.719 116.055 303.019 114.955C302.919 114.855 302.819 114.655 302.719 114.555C301.919 113.255 300.919 111.755 300.219 109.655C299.419 106.855 299.019 104.655 299.119 102.355C299.219 97.3546 300.219 92.3546 302.019 88.2546C302.819 86.4546 303.019 84.2546 302.719 81.5546C302.519 79.8546 301.819 78.2546 301.219 76.6546C300.619 75.1546 299.919 73.5546 299.719 71.7546C299.519 68.7546 299.419 65.3546 301.219 62.1546C301.719 61.2546 303.119 58.9546 305.119 59.9546C305.219 59.9546 305.219 60.0546 305.219 60.1546C305.219 60.2546 305.119 60.2546 305.019 60.2546C303.419 59.4546 302.319 60.9546 301.419 62.3546C299.619 65.4546 299.719 68.8546 299.919 71.8546C300.119 73.5546 300.819 75.1546 301.419 76.7546C302.019 78.2546 302.719 79.8546 302.919 81.6546C303.219 84.4546 303.019 86.6546 302.119 88.4546C300.319 92.5546 299.319 97.4546 299.219 102.455C299.219 104.755 299.519 106.855 300.319 109.655C300.919 111.655 301.919 113.255 302.719 114.455C302.819 114.655 302.919 114.755 303.019 114.955C303.719 115.955 304.619 116.855 305.519 117.655C305.919 117.655 305.919 117.655 305.719 117.755C305.819 117.755 305.819 117.755 305.719 117.755Z" fill="#C9A8A2"/>
<path d="M305.619 57.9546C307.019 60.5546 308.619 63.0546 308.719 66.0546C308.719 66.4546 308.719 66.7546 308.619 67.1546C308.019 69.2546 305.619 67.6546 304.919 66.4546C304.319 65.2546 304.519 63.6546 304.519 62.3546C304.519 60.9546 303.919 59.5546 304.119 58.1546C304.419 57.2546 305.119 57.5546 305.619 57.9546Z" fill="#FAE7ED"/>
<path d="M265.519 81.9546C264.319 81.9546 263.619 83.4546 263.419 84.1546C263.019 85.8546 263.619 87.7546 264.519 89.4546C264.619 89.6546 264.519 90.1546 264.719 90.2546C267.419 90.8546 268.919 83.6546 265.519 81.9546Z" fill="#5E0821"/>
<path d="M262.719 97.3544C262.719 98.6544 262.819 99.6544 262.519 99.6544C261.519 99.6544 261.219 98.6544 261.219 97.3544C261.219 96.0544 261.719 95.0544 262.619 95.0544C263.419 95.1544 262.719 96.1544 262.719 97.3544Z" fill="#FAE7ED"/>
<g opacity="0.6">
<path d="M292.519 79.2546C292.519 84.3546 288.519 88.2546 283.619 88.0546C278.719 87.8546 274.719 83.7546 274.719 78.8546C274.719 73.9546 278.719 69.9546 283.619 70.0546C288.519 70.0546 292.519 74.1546 292.519 79.2546Z" fill="#EDE0D5"/>
</g>
<path d="M291.719 78.9545C291.719 84.0545 287.719 87.9545 282.819 87.7545C277.919 87.5545 273.919 83.4545 273.919 78.5545C273.919 73.6545 277.919 69.6545 282.819 69.7545C287.719 69.8545 291.719 73.9545 291.719 78.9545Z" fill="#D11149"/>
<g opacity="0.8">
<path d="M281.819 83.0545C281.519 83.0545 281.219 82.9545 281.019 82.6545L278.519 80.0545C278.119 79.6545 278.119 78.9545 278.519 78.4545C278.919 78.0545 279.619 77.9545 280.119 78.4545L281.819 80.2545L286.419 75.2545C286.819 74.7545 287.519 74.7545 288.019 75.1545C288.419 75.6545 288.519 76.3545 288.019 76.8545L282.619 82.6545C282.419 82.9545 282.119 83.0545 281.819 83.0545Z" fill="#FAE7ED"/>
</g>
<path d="M164.419 85.4545C166.519 85.3545 168.919 85.7545 170.919 84.8545C171.719 84.5545 172.419 83.9545 173.019 83.3545C174.519 81.7545 175.019 78.5545 173.619 76.7545C172.619 75.4545 167.419 71.9545 165.919 71.8545C164.019 71.6545 165.719 74.7545 163.819 74.8545C163.319 74.8545 162.919 74.9545 162.419 75.0545C162.219 75.0545 161.919 75.0545 161.719 75.1545C161.419 75.3545 161.419 75.8545 161.419 76.1545C161.419 77.0545 161.619 77.9545 161.819 78.8545C162.019 80.1545 162.219 81.3545 162.119 82.6545C162.119 83.0545 161.919 83.9545 162.119 84.2545C162.619 84.7545 163.819 85.1545 164.419 85.4545Z" fill="#5E0821"/>
<path d="M146.719 89.9544C148.119 94.1544 148.819 98.7544 149.019 103.254C149.219 109.754 148.619 117.954 145.519 123.854C141.519 131.354 134.719 135.554 128.619 140.954C124.119 144.954 120.019 150.054 116.619 155.054C112.919 160.554 109.519 166.354 106.519 172.154C105.819 173.554 103.519 178.654 102.219 179.254C98.5187 180.954 92.4187 179.054 88.6187 178.854C79.8187 178.354 71.0187 178.554 62.1187 178.454C59.6187 178.454 52.6187 178.654 50.6187 177.654C49.0187 176.954 52.2186 170.454 52.7186 169.654C56.9186 161.954 60.8187 154.054 65.0187 146.454C71.0187 135.654 80.3186 117.354 90.8186 110.654C99.3186 105.154 103.719 84.4544 112.919 80.5544C121.319 76.8544 137.419 91.2544 146.719 89.9544Z" fill="url(#paint1_linear_156_9198)"/>
<path d="M138.619 117.455C133.319 124.855 126.619 122.555 113.819 127.055V119.655L138.619 117.455Z" fill="#5E0821"/>
<path d="M165.119 97.9544C167.619 98.0544 170.419 99.4544 172.019 101.354C172.419 101.854 172.619 102.454 172.819 103.054C173.519 105.054 173.319 107.054 171.819 108.654C171.019 109.554 169.819 110.354 168.619 110.654C167.419 110.954 166.219 110.954 164.919 111.154C163.419 111.354 161.919 111.754 160.419 111.654C159.719 111.654 159.519 110.554 159.319 110.054C158.819 108.354 158.819 106.854 159.119 105.154C159.419 103.354 159.219 101.554 159.419 99.8544C159.519 99.3544 159.519 98.2544 159.919 97.9544C160.319 97.6544 160.919 97.8544 161.419 97.8544C162.619 97.8544 164.119 97.8544 165.119 97.9544Z" fill="#5E0821"/>
<path d="M164.919 97.0545C167.019 96.9545 169.419 97.3545 171.419 96.4545C172.219 96.1545 172.919 95.5545 173.519 94.9545C175.019 93.3545 175.519 90.1545 174.119 88.3545C173.119 87.0545 171.519 86.4545 169.919 86.2545C168.019 86.0545 166.119 86.3545 164.319 86.4545C163.819 86.4545 163.419 86.5545 162.919 86.6545C162.719 86.6545 162.419 86.6545 162.219 86.7545C161.919 86.9545 161.919 87.4545 161.919 87.7545C161.919 88.6545 162.119 89.5545 162.319 90.4545C162.519 91.7545 162.719 92.9545 162.619 94.2545C162.619 94.6545 162.419 95.5545 162.619 95.8545C163.119 96.3545 164.319 96.7545 164.919 97.0545Z" fill="#5E0821"/>
<path d="M159.119 65.4544C166.419 61.9544 177.919 50.8544 176.519 45.0544C175.719 41.8544 171.719 39.6544 168.519 40.6544C166.119 41.4544 164.719 43.8544 163.219 45.7544C161.319 48.0544 159.319 50.2544 157.219 52.4544C156.419 53.3544 155.519 54.2544 154.719 55.0544C154.319 55.4544 153.619 55.9544 153.319 56.4544C153.119 56.8544 154.219 58.4544 154.419 58.8544C155.719 60.6544 157.219 62.3544 158.619 64.0544L159.119 65.4544Z" fill="#5E0821"/>
<path d="M123.319 122.854C122.319 122.754 114.919 122.254 113.519 119.754C112.919 118.654 112.619 117.454 112.619 116.254V29.8545C112.619 26.3545 114.719 22.1545 118.119 21.5545L123.019 20.8545L123.419 21.2545C120.619 21.9545 117.119 24.7545 117.119 27.8545V116.254C117.119 119.354 120.519 122.154 123.319 122.854Z" fill="#F4BB25"/>
<path d="M117.119 116.254V63.2544C115.619 70.1544 112.519 69.3544 112.519 77.7544V116.254C112.519 117.454 112.819 118.654 113.419 119.754C114.919 122.654 123.019 123.254 123.019 123.254C120.219 122.554 117.119 119.354 117.119 116.254Z" fill="#D89E1D"/>
<path d="M165.119 30.4545V113.854C165.119 117.254 162.219 120.054 158.719 120.054L123.619 122.354C123.119 122.354 122.519 122.254 122.019 122.154C119.219 121.454 117.119 118.954 117.119 115.854V28.3545C117.119 25.3545 119.219 22.8545 122.019 22.0545C122.519 21.9545 123.019 21.8545 123.619 21.8545L158.719 24.1545C162.219 24.2545 165.119 27.0545 165.119 30.4545Z" fill="#FAE7ED"/>
<path d="M123.619 123.354C119.419 123.354 116.019 119.954 116.019 115.754V28.3545C116.019 24.8545 118.419 21.8545 121.719 21.0545C122.319 20.8545 122.919 20.8545 123.619 20.8545L158.719 23.1545C162.919 23.1545 166.219 26.4545 166.219 30.4545V113.854C166.219 117.854 162.819 121.154 158.719 121.154L123.619 123.354ZM123.519 22.2545C123.019 22.2545 122.519 22.3545 122.019 22.4545C119.319 23.1545 117.419 25.5545 117.419 28.3545V115.754C117.419 119.154 120.119 121.854 123.519 121.854L158.619 119.554C162.019 119.554 164.719 116.954 164.719 113.754V30.4545C164.719 27.2545 162.019 24.6545 158.619 24.6545L123.519 22.2545Z" fill="#F4BB25"/>
<path d="M123.619 122.854C119.719 122.854 116.519 119.654 116.519 115.754V28.3544C116.519 25.0544 118.719 22.2544 121.919 21.4544C122.519 21.3544 123.119 21.2544 123.619 21.2544L158.719 23.5544C162.619 23.5544 165.819 26.6544 165.819 30.3544V113.754C165.819 117.554 162.619 120.554 158.719 120.554L123.619 122.854ZM123.519 22.6544C123.019 22.6544 122.619 22.7544 122.119 22.8544C119.519 23.4544 117.719 25.8544 117.719 28.4544V115.854C117.719 119.054 120.319 121.654 123.519 121.654L158.619 119.354C161.819 119.354 164.419 116.854 164.419 113.854V30.4544C164.419 27.4544 161.819 24.9544 158.619 24.9544L123.519 22.6544Z" fill="#4A453C"/>
<path d="M114.219 56.8544C113.819 56.7544 113.619 56.3544 113.619 56.0544V48.2544C113.619 47.7544 114.119 47.4544 114.619 47.6544C115.019 47.7544 115.219 48.1544 115.219 48.4544V56.2544C115.219 56.7544 114.719 57.0544 114.219 56.8544Z" fill="#5A4E8A"/>
<path d="M114.219 44.9544C113.819 44.8544 113.619 44.4544 113.619 44.1544V36.2544C113.619 35.7544 114.119 35.4544 114.619 35.6544C115.019 35.7544 115.219 36.1544 115.219 36.4544V44.2544C115.219 44.7544 114.719 45.0544 114.219 44.9544Z" fill="#5A4E8A"/>
<path d="M114.019 56.8544C113.619 56.7544 113.419 56.3544 113.419 56.0544V48.2544C113.419 47.7544 113.919 47.4544 114.419 47.6544C114.819 47.7544 115.019 48.1544 115.019 48.4544V56.2544C114.919 56.6544 114.519 57.0544 114.019 56.8544Z" fill="#EA9A1B"/>
<path d="M114.019 44.9544C113.619 44.8544 113.419 44.4544 113.419 44.1544V36.2544C113.419 35.7544 113.919 35.4544 114.419 35.6544C114.819 35.7544 115.019 36.1544 115.019 36.4544V44.2544C114.919 44.7544 114.519 45.0544 114.019 44.9544Z" fill="#EA9A1B"/>
<path d="M167.519 98.6545C165.019 99.6545 164.819 102.255 164.719 104.555C164.719 105.555 164.719 106.555 164.919 107.455C165.319 109.155 166.719 110.955 168.719 110.255C172.119 109.155 173.019 105.055 171.619 102.055C170.919 100.455 169.119 99.0545 167.519 98.6545Z" fill="#5E0821"/>
<path d="M110.619 57.3544C115.919 62.2544 117.819 71.9544 115.419 78.7544C114.219 82.0544 112.219 85.1544 112.019 88.6544C111.819 93.4544 115.119 99.1544 116.419 104.254C118.619 112.754 116.319 121.354 112.819 129.154C108.019 139.654 94.8187 152.154 83.3187 142.854C78.0187 138.554 74.3187 129.954 78.2187 124.154C79.9187 121.654 82.0187 118.154 83.2187 115.254C85.4187 109.654 85.0187 103.454 87.2187 97.8544C88.9187 93.4544 92.1187 90.1544 94.7187 86.3544C96.7187 83.4544 98.0187 80.1544 99.7187 77.1544C101.419 74.1544 102.919 71.4544 103.419 68.0544C103.919 65.0544 103.719 61.9544 104.919 59.1544C105.819 56.7544 108.619 56.0544 110.619 57.3544Z" fill="url(#paint2_linear_156_9198)"/>
<path d="M103.919 68.1544C104.419 69.1544 108.819 68.6544 109.219 66.4544C110.019 61.3544 110.119 57.3544 105.419 59.5544C105.219 59.6544 104.919 60.0544 104.819 60.2544C104.719 60.3544 104.619 60.5544 104.619 60.6544C104.519 60.7544 103.419 67.0544 103.919 68.1544Z" fill="#FAE7ED"/>
<path opacity="0.5" d="M107.019 68.6545C106.919 68.6545 106.819 68.6545 106.619 68.6545C106.219 68.5545 105.819 68.5545 105.519 68.3545C105.419 68.3545 105.419 68.2545 105.419 68.1545C105.419 68.0545 105.519 68.0545 105.619 68.0545C105.919 68.1545 106.219 68.2545 106.619 68.2545C107.119 68.3545 107.519 68.2545 107.819 67.9545C108.619 67.3545 108.819 65.7545 108.919 64.6545C108.919 64.4545 108.919 64.2545 109.019 64.1545C109.119 63.7545 109.119 63.3545 109.219 62.8545C109.219 62.5545 109.319 62.3545 109.319 62.0545C109.419 61.5545 109.519 61.0545 109.519 60.5545V60.4545C109.519 60.2545 109.519 59.8545 109.419 59.7545C108.719 59.0545 107.019 58.9545 105.819 59.0545C105.719 59.0545 105.619 58.9545 105.619 58.8545C105.619 58.7545 105.719 58.6545 105.819 58.6545C106.319 58.6545 108.819 58.4545 109.719 59.4545C109.919 59.6545 109.919 60.0545 109.919 60.3545V60.4545C109.919 60.9545 109.819 61.5545 109.719 62.0545C109.719 62.3545 109.619 62.5545 109.619 62.8545C109.619 63.2545 109.519 63.6545 109.419 64.1545C109.419 64.3545 109.419 64.4545 109.319 64.6545C109.219 65.8545 109.019 67.5545 108.119 68.2545C107.919 68.5545 107.519 68.6545 107.019 68.6545Z" fill="#C9A8A2"/>
<path opacity="0.5" d="M106.819 137.454C106.719 137.454 106.719 137.454 106.719 137.354C106.619 137.254 106.719 137.154 106.719 137.154C112.319 133.454 116.819 119.654 116.919 114.254C116.919 114.154 117.019 114.054 117.119 114.054C117.219 114.054 117.319 114.154 117.319 114.254C117.219 117.154 116.019 122.154 114.219 126.554C112.919 129.654 110.319 135.154 106.819 137.454C106.919 137.454 106.919 137.454 106.819 137.454Z" fill="#C9A8A2"/>
<path opacity="0.5" d="M99.4187 79.7544C99.6187 79.7544 99.8187 79.7544 100.119 79.7544C100.319 79.7544 100.419 79.8544 100.619 79.9544C100.819 80.0544 100.919 80.1544 101.119 80.1544C101.319 80.1544 101.519 80.1544 101.719 80.2544C102.119 80.3544 102.519 80.3544 102.919 80.4544C103.219 80.5544 103.619 80.7544 103.919 80.6544C104.119 80.6544 104.119 80.2544 103.919 80.3544C103.519 80.3544 103.219 80.1544 102.819 80.0544C102.419 79.9544 102.019 79.8544 101.619 79.8544C101.419 79.8544 101.219 79.8544 101.119 79.7544C100.919 79.7544 100.819 79.6544 100.619 79.5544C100.219 79.3544 99.8187 79.4544 99.5187 79.4544C99.2187 79.3544 99.2187 79.7544 99.4187 79.7544Z" fill="#C9A8A2"/>
<path opacity="0.5" d="M101.719 75.8543C101.919 76.0543 102.119 76.2543 102.319 76.3543C102.519 76.5543 102.719 76.6543 102.919 76.7543C103.119 76.8543 103.419 76.8543 103.619 76.9543C103.819 77.0543 104.119 77.1543 104.319 77.1543C104.519 77.1543 104.519 76.7543 104.319 76.8543C104.119 76.8543 103.919 76.7543 103.719 76.6543C103.419 76.5543 103.219 76.5543 103.019 76.4543C102.819 76.3543 102.619 76.2543 102.419 76.0543C102.219 75.8543 102.119 75.6543 101.819 75.5543C101.719 75.4543 101.519 75.7543 101.719 75.8543Z" fill="#C9A8A2"/>
<path opacity="0.5" d="M85.2187 127.954C85.5187 128.654 85.8187 129.354 86.1187 130.054C86.4187 130.754 86.8187 131.254 87.4187 131.754C87.9187 132.254 88.6187 132.754 89.1187 133.254C89.4187 133.454 89.7187 133.754 89.9187 134.054C90.2187 134.354 90.4186 134.654 90.7186 134.854C91.0186 135.054 91.3187 135.154 91.6187 135.254C92.0187 135.354 92.3186 135.654 92.8186 135.554C93.0186 135.554 93.0186 135.154 92.8186 135.254C92.4186 135.254 92.1186 135.054 91.8186 134.954C91.5186 134.854 91.2187 134.854 91.0187 134.654C90.9187 134.554 90.7187 134.354 90.6187 134.254C90.5187 134.154 90.3186 133.954 90.2186 133.854C89.9186 133.554 89.7187 133.354 89.4187 133.054C88.9187 132.554 88.3187 132.154 87.7187 131.654C87.2187 131.154 86.7187 130.654 86.4187 129.954C86.0187 129.254 85.8187 128.454 85.4187 127.754C85.4187 127.654 85.1187 127.754 85.2187 127.954Z" fill="#C9A8A2"/>
<path d="M171.719 101.254C170.919 101.354 172.119 101.454 172.519 104.454C172.919 107.354 170.819 108.854 172.719 107.554C174.319 106.454 173.219 101.054 171.719 101.254Z" fill="#FAE7ED"/>
<path d="M172.719 87.2544C171.819 87.7544 173.219 87.8544 173.619 88.4544C173.919 88.9544 174.419 89.8544 174.619 91.2544C175.019 94.1544 172.519 95.2544 174.319 93.9544C175.719 93.0544 175.219 89.5544 174.319 88.1544C174.019 87.7544 173.019 87.0544 172.719 87.2544Z" fill="#FAE7ED"/>
<path d="M166.019 75.3545C165.319 76.5545 164.719 78.0545 164.619 79.4545C164.519 80.3545 164.619 81.3545 164.819 82.2545C165.019 83.2545 165.219 84.6545 166.119 85.3545C166.619 85.7545 167.219 85.6545 167.819 85.6545C169.019 85.5545 170.019 85.3545 170.919 84.5545C172.619 82.9545 173.019 79.8545 171.619 77.9545C171.119 77.2545 170.419 76.6545 169.719 76.2545C168.719 75.8545 167.019 75.4545 166.019 75.3545Z" fill="#5E0821"/>
<path d="M165.819 87.4545C165.619 87.2545 161.619 92.9545 165.119 96.7545C165.419 97.0545 166.319 96.9545 166.719 96.9545C167.519 96.8545 167.519 96.4545 168.119 95.7545C169.219 94.3545 169.419 91.5545 168.619 89.8545C168.319 89.2545 167.819 87.9545 167.319 87.6545C166.719 87.2545 166.619 87.4545 165.819 87.4545Z" fill="#5E0821"/>
<path opacity="0.5" d="M165.519 88.1545C165.419 88.1545 165.419 88.1545 165.519 88.1545C165.419 88.0545 165.319 88.0545 165.419 87.9545C166.019 86.9545 167.619 87.1545 168.819 87.3545C169.219 87.4545 169.819 87.4545 169.919 87.4545C169.919 87.3545 170.019 87.3545 170.019 87.3545C170.119 87.3545 170.119 87.3545 170.119 87.4545C170.119 87.5545 170.119 87.6545 170.019 87.6545C169.819 87.8545 169.419 87.7545 168.719 87.6545C167.619 87.5545 166.019 87.3545 165.619 88.1545H165.519Z" fill="#C9A8A2"/>
<path opacity="0.5" d="M165.019 77.7544C164.919 77.7544 164.819 77.6544 164.919 77.5544V77.4544C165.519 75.9544 166.019 74.5544 168.419 75.1544C168.519 75.1544 168.519 75.2544 168.519 75.3544C168.519 75.4544 168.419 75.4544 168.319 75.4544C166.119 74.9544 165.719 76.0544 165.119 77.6544V77.7544C165.119 77.7544 165.119 77.7544 165.019 77.7544Z" fill="#C9A8A2"/>
<path d="M174.119 81.2544C174.019 81.2544 174.019 81.2544 174.119 81.2544C174.019 81.2544 173.919 81.1544 174.019 81.0544C174.219 80.4544 174.219 80.3544 174.219 79.9544C174.219 79.8544 174.219 79.7544 174.219 79.5544C174.219 77.9544 173.619 76.6544 172.219 75.6544C172.119 75.6544 172.119 75.5544 172.219 75.4544C172.219 75.3544 172.319 75.3544 172.419 75.4544C173.819 76.4544 174.519 77.8544 174.519 79.5544C174.519 79.7544 174.519 79.8544 174.519 79.9544C174.519 80.3544 174.519 80.5544 174.319 81.1544C174.219 81.2544 174.119 81.2544 174.119 81.2544Z" fill="#FAE7ED"/>
<path opacity="0.6" d="M159.619 50.6545C159.619 48.5545 157.819 46.8545 155.619 46.7545L126.619 46.1545C124.419 46.1545 122.619 47.8545 122.619 50.0545V66.8545C122.619 69.0545 124.419 70.7545 126.619 70.7545L155.719 70.5545C157.919 70.5545 159.719 68.8545 159.719 66.7545L159.619 50.6545Z" fill="#EDE0D5"/>
<path d="M156.519 69.5545L127.419 69.7545C125.219 69.7545 123.419 68.0545 123.419 65.8545V49.0545C123.419 46.8545 125.219 45.1545 127.419 45.1545L156.419 45.7545C158.619 45.7545 160.419 47.5545 160.419 49.6545V65.6545C160.419 67.8545 158.719 69.5545 156.519 69.5545Z" fill="#D11149"/>
<path opacity="0.6" d="M152.119 62.1545H155.719C156.519 62.1545 157.219 62.8545 157.219 63.6545C157.219 64.4545 156.519 65.1545 155.719 65.1545H152.119C151.319 65.1545 150.619 64.4545 150.619 63.6545C150.619 62.8545 151.319 62.1545 152.119 62.1545Z" fill="#EDE0D5"/>
<path d="M129.819 52.5544H132.119C133.319 52.5544 134.319 53.5544 134.319 54.7544V56.5544C134.319 57.7544 133.319 58.6544 132.119 58.6544H129.819C128.619 58.6544 127.619 57.6544 127.619 56.4544V54.6544C127.719 53.4544 128.719 52.5544 129.819 52.5544Z" fill="#5E0821"/>
<path opacity="0.6" d="M155.619 57.5546L143.419 57.4546C142.619 57.4546 141.919 56.7546 141.919 55.9546C141.919 55.1546 142.619 54.4546 143.419 54.4546L155.619 54.5546C156.419 54.5546 157.119 55.2546 157.119 56.0546C157.119 56.9546 156.419 57.5546 155.619 57.5546Z" fill="#EDE0D5"/>
<path opacity="0.6" d="M144.119 62.1545H147.719C148.519 62.1545 149.219 62.8545 149.219 63.6545C149.219 64.4545 148.519 65.1545 147.719 65.1545H144.119C143.319 65.1545 142.619 64.4545 142.619 63.6545C142.619 62.8545 143.319 62.1545 144.119 62.1545Z" fill="#EDE0D5"/>
<path opacity="0.6" d="M136.119 62.1545H139.719C140.519 62.1545 141.219 62.8545 141.219 63.6545C141.219 64.4545 140.519 65.1545 139.719 65.1545H136.119C135.319 65.1545 134.619 64.4545 134.619 63.6545C134.619 62.8545 135.319 62.1545 136.119 62.1545Z" fill="#EDE0D5"/>
<path opacity="0.6" d="M155.619 52.8545H152.019C151.219 52.8545 150.519 52.1545 150.519 51.3545C150.519 50.5545 151.219 49.8545 152.019 49.8545L155.619 49.9545C156.419 49.9545 157.119 50.6545 157.119 51.4545C157.119 52.2545 156.419 52.8545 155.619 52.8545Z" fill="#EDE0D5"/>
<path opacity="0.6" d="M128.219 62.1545H131.819C132.619 62.1545 133.319 62.8545 133.319 63.6545C133.319 64.4545 132.619 65.1545 131.819 65.1545H128.219C127.419 65.1545 126.719 64.4545 126.719 63.6545C126.619 62.8545 127.319 62.1545 128.219 62.1545Z" fill="#EDE0D5"/>
<g opacity="0.2">
<path d="M154.219 93.4544L130.119 94.3544C128.319 94.4544 126.819 93.0544 126.819 91.1544V77.3544C126.819 75.5544 128.319 74.0544 130.119 74.0544L154.219 73.7544C156.019 73.7544 157.519 75.1544 157.519 76.8544V90.1544C157.519 91.9544 156.019 93.4544 154.219 93.4544Z" fill="#DECCBA"/>
<path d="M150.519 87.4542L153.519 87.3542C154.219 87.3542 154.819 87.8543 154.819 88.5543C154.819 89.2543 154.219 89.7542 153.519 89.8542L150.519 89.9542C149.819 89.9542 149.219 89.4542 149.219 88.7542C149.319 88.0542 149.819 87.5542 150.519 87.4542Z" fill="#C6C3D4"/>
<path d="M132.119 80.0542H134.019C135.019 80.0542 135.819 80.8542 135.819 81.7542V83.2542C135.819 84.2542 135.019 85.0542 134.019 85.0542H132.119C131.119 85.0542 130.319 84.2542 130.319 83.3542V81.8542C130.319 80.9542 131.119 80.1542 132.119 80.0542Z" fill="#C6C3D4"/>
<path d="M153.419 83.5543L143.319 83.8543C142.619 83.8543 142.019 83.3543 142.019 82.6543C142.019 81.9543 142.619 81.3543 143.319 81.3543L153.419 81.1543C154.119 81.1543 154.719 81.6543 154.719 82.3543C154.719 82.9543 154.119 83.5543 153.419 83.5543Z" fill="#C6C3D4"/>
<path d="M143.919 87.6542L146.919 87.5542C147.619 87.5542 148.219 88.0542 148.219 88.7542C148.219 89.4542 147.619 90.0542 146.919 90.0542L143.919 90.1542C143.219 90.1542 142.619 89.6542 142.619 88.9542C142.719 88.2542 143.219 87.7542 143.919 87.6542Z" fill="#C6C3D4"/>
<path d="M137.319 87.8544L140.319 87.7544C141.019 87.7544 141.619 88.2544 141.619 88.9544C141.619 89.6544 141.019 90.2544 140.319 90.2544L137.319 90.3544C136.619 90.3544 136.019 89.8544 136.019 89.1544C136.019 88.4544 136.619 87.8544 137.319 87.8544Z" fill="#C6C3D4"/>
<path d="M153.419 79.6543L150.419 79.7543C149.719 79.7543 149.119 79.2543 149.119 78.5543C149.119 77.8543 149.719 77.3543 150.419 77.2543L153.419 77.1543C154.119 77.1543 154.719 77.6543 154.719 78.3543C154.719 79.0543 154.119 79.6543 153.419 79.6543Z" fill="#C6C3D4"/>
<path d="M130.719 88.0544L133.719 87.9543C134.419 87.9543 135.019 88.4544 135.019 89.1544C135.019 89.8544 134.419 90.4543 133.719 90.4543L130.719 90.5544C130.019 90.5544 129.419 90.0543 129.419 89.3543C129.419 88.6543 130.019 88.0544 130.719 88.0544Z" fill="#C6C3D4"/>
</g>
<g opacity="0.2">
<path d="M154.219 117.255L130.019 118.855C128.219 118.955 126.719 117.555 126.719 115.755V101.955C126.719 100.155 128.219 98.6546 130.019 98.5546L154.119 97.5546C155.919 97.4546 157.419 98.8546 157.419 100.555V113.855C157.519 115.555 156.019 117.055 154.219 117.255Z" fill="#DECCBA"/>
<path d="M150.619 111.355L153.619 111.155C154.319 111.155 154.919 111.655 154.919 112.255C154.919 112.955 154.319 113.555 153.619 113.555L150.619 113.755C149.919 113.755 149.319 113.255 149.319 112.555C149.319 111.955 149.919 111.355 150.619 111.355Z" fill="#C6C3D4"/>
<path d="M132.119 104.454L134.019 104.354C135.019 104.354 135.819 105.054 135.819 106.054V107.554C135.819 108.554 135.019 109.354 134.019 109.454L132.119 109.554C131.119 109.654 130.319 108.854 130.319 107.854V106.354C130.319 105.354 131.119 104.454 132.119 104.454Z" fill="#C6C3D4"/>
<path d="M153.519 107.354L143.419 107.854C142.719 107.854 142.119 107.354 142.119 106.654C142.119 105.954 142.719 105.354 143.419 105.354L153.519 104.854C154.219 104.854 154.819 105.354 154.819 106.054C154.719 106.654 154.219 107.254 153.519 107.354Z" fill="#C6C3D4"/>
<path d="M144.019 111.655L147.019 111.455C147.719 111.455 148.319 111.955 148.319 112.655C148.319 113.355 147.719 113.955 147.019 113.955L144.019 114.155C143.319 114.155 142.719 113.655 142.719 112.955C142.719 112.355 143.219 111.755 144.019 111.655Z" fill="#C6C3D4"/>
<path d="M137.319 112.054L140.319 111.854C141.019 111.854 141.619 112.354 141.619 113.054C141.619 113.754 141.019 114.354 140.319 114.354L137.319 114.554C136.619 114.554 136.019 114.054 136.019 113.354C136.119 112.754 136.619 112.154 137.319 112.054Z" fill="#C6C3D4"/>
<path d="M153.519 103.354L150.519 103.454C149.819 103.454 149.219 102.954 149.219 102.254C149.219 101.554 149.819 100.954 150.519 100.954L153.519 100.854C154.219 100.854 154.819 101.354 154.819 102.054C154.719 102.754 154.219 103.354 153.519 103.354Z" fill="#C6C3D4"/>
<path d="M130.719 112.454L133.719 112.254C134.419 112.254 135.019 112.754 135.019 113.454C135.019 114.154 134.419 114.754 133.719 114.754L130.719 114.954C130.019 114.954 129.419 114.454 129.419 113.754C129.419 113.054 130.019 112.454 130.719 112.454Z" fill="#C6C3D4"/>
</g>
<g opacity="0.2">
<path d="M154.119 42.8545L130.019 42.2545C128.219 42.2545 126.719 40.6545 126.719 38.8545V25.0545C126.719 23.2545 128.219 21.8545 130.019 21.9545L154.119 23.2545C155.919 23.3545 157.419 24.8545 157.419 26.5545V39.8545C157.419 41.5545 155.919 42.9545 154.119 42.8545Z" fill="#DECCBA"/>
<path d="M150.519 36.6545L153.519 36.7545C154.219 36.7545 154.819 37.3545 154.819 38.0545C154.819 38.7545 154.219 39.2545 153.519 39.2545L150.519 39.1545C149.819 39.1545 149.219 38.5545 149.219 37.8545C149.219 37.1545 149.819 36.6545 150.519 36.6545Z" fill="#C6C3D4"/>
<path d="M132.119 28.0546L134.019 28.1546C135.019 28.1546 135.819 29.0546 135.819 29.9546V31.4546C135.819 32.4546 135.019 33.1546 134.019 33.1546L132.119 33.0546C131.119 33.0546 130.319 32.1546 130.319 31.2546V29.7546C130.319 28.7546 131.119 27.9546 132.119 28.0546Z" fill="#C6C3D4"/>
<path d="M153.419 32.9544L143.319 32.5544C142.619 32.5544 142.019 31.9544 142.019 31.2544C142.019 30.5544 142.619 30.0544 143.319 30.0544L153.419 30.4544C154.119 30.4544 154.719 31.0544 154.719 31.7544C154.619 32.4544 154.119 32.9544 153.419 32.9544Z" fill="#C6C3D4"/>
<path d="M143.919 36.3545L146.919 36.4545C147.619 36.4545 148.219 37.0545 148.219 37.7545C148.219 38.4545 147.619 38.9545 146.919 38.9545L143.919 38.8545C143.219 38.8545 142.619 38.2545 142.619 37.5545C142.619 36.9545 143.219 36.3545 143.919 36.3545Z" fill="#C6C3D4"/>
<path d="M137.319 36.1545L140.319 36.2545C141.019 36.2545 141.619 36.8545 141.619 37.5545C141.619 38.2545 141.019 38.7545 140.319 38.7545L137.319 38.6545C136.619 38.6545 136.019 38.0545 136.019 37.3545C136.019 36.6545 136.619 36.1545 137.319 36.1545Z" fill="#C6C3D4"/>
<path d="M153.419 28.9545L150.419 28.8545C149.719 28.8545 149.119 28.2545 149.119 27.5545C149.119 26.8545 149.719 26.3545 150.419 26.3545L153.419 26.4545C154.119 26.4545 154.719 27.0545 154.719 27.7545C154.619 28.5545 154.119 29.0545 153.419 28.9545Z" fill="#C6C3D4"/>
<path d="M130.719 35.9546L133.719 36.0546C134.419 36.0546 135.019 36.6546 135.019 37.3546C135.019 38.0546 134.419 38.5546 133.719 38.5546L130.719 38.4546C130.019 38.4546 129.419 37.8546 129.419 37.1546C129.419 36.4546 130.019 35.9546 130.719 35.9546Z" fill="#C6C3D4"/>
</g>
<path d="M141.719 21.9543C141.519 21.9543 141.319 21.9543 141.119 21.9543C140.119 24.2543 139.719 28.0543 140.119 32.5543C140.419 36.6543 141.319 40.9543 142.519 44.2543L143.119 44.0543C140.719 37.5543 139.619 26.8543 141.719 21.9543Z" fill="#EDE0D5"/>
<path d="M284.419 131.954C283.719 128.454 282.319 125.354 280.919 122.254C279.519 119.054 278.019 115.654 277.319 111.854C276.519 107.654 276.819 103.254 278.219 98.4545L277.819 98.3545C274.619 109.154 277.619 115.854 280.519 122.354C281.819 125.354 283.219 128.454 284.019 131.954C285.719 139.954 283.219 147.054 277.019 151.854C269.219 157.954 257.419 159.054 248.219 154.554C244.919 152.954 240.119 149.654 236.919 143.554C236.819 143.654 236.719 143.654 236.619 143.754C239.919 149.954 244.619 153.254 248.019 154.954C251.819 156.854 256.119 157.754 260.419 157.754C266.519 157.754 272.619 155.854 277.219 152.254C280.219 149.954 282.319 147.054 283.619 143.754C285.019 140.054 285.319 136.154 284.419 131.954Z" fill="#EB99B1"/>
<path d="M237.119 98.2544C237.019 98.2544 236.819 98.3544 236.719 98.3544C234.619 107.554 233.019 117.154 233.019 127.054C233.019 132.454 233.919 136.854 235.219 140.454C235.319 140.354 235.419 140.354 235.519 140.254C234.219 136.654 233.319 132.354 233.319 127.054C233.419 117.154 235.019 107.454 237.119 98.2544Z" fill="#EB99B1"/>
<path d="M240.919 82.1543C240.819 82.3543 240.819 82.5543 240.719 82.7543C239.719 86.5543 238.619 90.3543 237.619 94.4543C237.719 94.4543 237.919 94.3543 238.019 94.3543C239.019 90.4543 240.019 86.6543 241.019 82.9543C241.019 82.8543 241.119 82.7543 241.119 82.5543C241.119 82.3543 241.019 82.2543 240.919 82.1543Z" fill="#EB99B1"/>
<path d="M236.519 28.0544C233.119 26.0544 228.919 25.2544 224.319 25.7544C221.419 26.0544 218.319 26.8544 215.319 28.1544C213.619 25.7544 211.619 23.5544 209.519 21.5544C209.419 21.6544 209.319 21.7544 209.219 21.8544C211.319 23.8544 213.219 26.0544 214.919 28.3544C213.619 28.9544 212.419 29.5544 211.219 30.2544C205.919 33.4544 201.319 37.8544 198.019 43.0544C194.419 48.7544 192.619 55.1544 192.719 61.6544C192.819 69.1544 194.119 75.5544 196.519 80.3544C196.619 80.3544 196.819 80.3544 196.919 80.3544C194.519 75.5544 193.219 69.1544 193.119 61.6544C193.019 55.2544 194.819 48.9544 198.419 43.2544C201.619 38.1544 206.219 33.7544 211.519 30.5544C212.719 29.8544 214.019 29.1544 215.319 28.6544C216.319 29.9544 217.119 31.3544 218.019 32.7544C222.719 40.7544 225.019 49.9544 224.819 59.9544C224.619 68.9544 222.819 76.5544 219.519 81.8544C216.619 86.5544 212.719 89.1544 208.619 89.1544C205.119 89.1544 201.919 87.2544 199.319 83.8544C199.219 83.8544 199.019 83.8544 198.919 83.8544C201.619 87.5544 205.019 89.5544 208.719 89.5544C212.919 89.5544 216.919 86.9544 219.919 82.1544C223.319 76.7544 225.119 69.1544 225.319 60.0544C225.519 49.9544 223.219 40.7544 218.419 32.6544C217.619 31.2544 216.719 29.9544 215.819 28.6544C218.719 27.3544 221.719 26.5544 224.619 26.2544C229.019 25.7544 233.219 26.5544 236.519 28.4544C241.219 31.1544 246.819 37.4544 246.819 51.9544C246.819 59.7544 244.719 68.6544 242.219 78.0544C242.319 78.1544 242.419 78.2544 242.519 78.3544C245.019 68.7544 247.219 59.7544 247.219 51.9544C247.019 37.1544 241.319 30.8544 236.519 28.0544Z" fill="#EB99B1"/>
<path d="M206.619 19.5544C206.719 19.4544 206.819 19.3544 206.919 19.2544C204.919 17.6544 202.819 16.1544 200.619 14.8544C186.819 6.65442 170.319 5.65442 158.619 12.3544C153.719 15.1544 149.819 19.1544 147.019 24.2544C144.019 29.8544 142.519 36.5544 142.519 44.2544H142.919C142.919 36.6544 144.419 29.9544 147.319 24.4544C150.019 19.4544 153.819 15.4544 158.719 12.6544C170.319 6.05442 186.619 7.05442 200.319 15.1544C202.619 16.5544 204.719 17.9544 206.619 19.5544Z" fill="#EB99B1"/>
<g style="mix-blend-mode:multiply">
<path d="M282.219 86.9543L274.919 98.9543L278.319 99.1544H279.519L280.219 100.454C280.119 103.554 280.219 111.654 281.919 114.354C282.119 114.354 282.419 114.354 282.619 114.454C281.919 113.754 281.119 111.854 280.819 106.054C280.719 104.254 280.719 102.654 280.719 101.354L282.119 98.8543C282.119 98.8543 285.319 98.3543 285.319 98.4543C285.419 98.3543 282.219 86.9543 282.219 86.9543Z" fill="#5E0821"/>
</g>
<path d="M280.119 94.4543L278.119 100.654L278.419 96.6544V96.5544L280.119 94.4543Z" fill="#A6A09C"/>
<path d="M282.119 85.7544L283.419 96.8544L282.319 96.7544L278.419 96.6544V96.5544L281.619 86.6544L274.119 96.5544L269.019 96.4544L282.119 85.7544Z" fill="#EB99B1"/>
<path d="M281.719 86.6543L278.419 96.5543V96.6543L278.119 100.654L274.119 96.5543L281.719 86.6543Z" fill="#B20E3E"/>
<defs>
<linearGradient id="paint0_linear_156_9198" x1="311.847" y1="121.209" x2="363.871" y2="196.358" gradientUnits="userSpaceOnUse">
<stop stop-color="#5E0821"/>
<stop offset="0.1673" stop-color="#850B2E"/>
<stop offset="0.3429" stop-color="#A60E3A"/>
<stop offset="0.5109" stop-color="#BE0F42"/>
<stop offset="0.6666" stop-color="#CC1147"/>
<stop offset="0.798" stop-color="#D11149"/>
</linearGradient>
<linearGradient id="paint1_linear_156_9198" x1="117.649" y1="96.2133" x2="79.8531" y2="198.674" gradientUnits="userSpaceOnUse">
<stop stop-color="#5E0821"/>
<stop offset="0.2059" stop-color="#6F0E2C"/>
<stop offset="0.4171" stop-color="#7C1235"/>
<stop offset="0.5047" stop-color="#93123A"/>
<stop offset="0.6964" stop-color="#C01145"/>
<stop offset="0.7932" stop-color="#D11149"/>
</linearGradient>
<linearGradient id="paint2_linear_156_9198" x1="109.438" y1="61.1646" x2="93.2701" y2="132.571" gradientUnits="userSpaceOnUse">
<stop stop-color="#5E0821"/>
<stop offset="0.991955" stop-color="#8E1239"/>
</linearGradient>
</defs>
</svg>
