<svg width="428" height="926" viewBox="0 0 428 926" fill="none" xmlns="http://www.w3.org/2000/svg">
<g opacity="0.16" clipPath="url(#clip0_40_3785)">
<path d="M-4.2 895.6L1.7 897.2L-5.89999 926H-3.3L4.10001 897.8L29.2 904.4L25.5 918.5L4.39999 912.9C3.69999 912.7 3 913.1 2.8 913.8C2.6 914.5 3 915.2 3.7 915.4L27.3 921.6L32.3 902.5L12.9 897.4C14.4 897.2 15.8 896.8 17 896.2C24 892.7 24.3 887.2 22.3 883.3C21.1 880.9 19.2 879.3 16.9 878.7C14.5 878.1 11.8 878.5 8.79999 880C4.59999 882.1 1.6 887.7 0 891.2C0.400002 887.4 0.499992 881.1 -2.10001 877.1C-3.90001 874.3 -6.1 872.6 -8.5 871.9C-10.8 871.3 -13.3 871.7 -15.5 873.2C-19.2 875.6 -21.5 880.5 -17.2 887.1C-16.4 888.3 -15.4 889.3 -14.2 890.2L-33.6 885.1L-38.6 904.2L-14.9 910.5C-14.2 910.7 -13.5 910.3 -13.3 909.6C-13.1 908.9 -13.5 908.2 -14.2 908L-35.5 902.4L-31.8 888.3L-6.7 894.9L-14.9 926H-12.3L-4.2 895.6ZM10 882.4C12.4 881.2 14.5 880.8 16.3 881.3C18.3 881.8 19.5 883.4 20.1 884.6C22 888.4 20.5 891.7 15.9 894.1C11.6 896.3 4 894.5 1.8 894C2.9 891.1 5.9 884.5 10 882.4ZM-15 885.9C-17.9 881.6 -17.5 877.9 -14 875.6C-12.9 874.8 -11.1 874.1 -9 874.6C-7.2 875.1 -5.50001 876.5 -4.10001 878.7C-1.50001 882.6 -2.2 889.8 -2.60001 892.8C-4.90001 892.1 -12.3 889.9 -15 885.9Z" fill="#FAE7ED"/>
<path d="M21.8 924.5C21.1 924.3 20.4 924.7 20.2 925.4L20 926H22.6C22.9 925.3 22.5 924.7 21.8 924.5Z" fill="#FAE7ED"/>
<path d="M71 754C70.4 754.4 70.3 755.2 70.8 755.8L98 791.1L66.3 815.5L39 780.2C38.6 779.6 37.8 779.5 37.2 780C36.6 780.4 36.5 781.2 37 781.8L65.7 819.1L101.4 791.6L72.7 754.3C72.3 753.6 71.5 753.5 71 754Z" fill="#FAE7ED"/>
<path d="M40.2 768.1C39.8 767.5 39 767.4 38.4 767.9L28.9 775.2L20.7 764.5L38.7 750.6L38.9 750.5C40 754.5 42.9 758.2 45.8 762C50.8 768.5 56 775.1 52.8 784C52.6 784.7 52.9 785.4 53.6 785.6C54 785.8 54.5 785.7 54.8 785.4C55 785.3 55.1 785.1 55.2 784.8C58.9 774.6 53 767.1 47.8 760.4C45.5 757.5 43.4 754.7 42.1 751.9C48.2 756.9 59.9 765.9 64.6 765C64.8 765 65 764.9 65.1 764.8C65.5 764.5 65.7 764 65.6 763.6C65.5 762.9 64.8 762.5 64.1 762.6C60.7 763.3 49.1 754.6 41.7 748.4L42.3 748L60.3 734.1L68.5 744.8L58.9 752.2C58.3 752.6 58.2 753.4 58.7 754C59.1 754.6 59.9 754.7 60.5 754.2L72.1 745.2L60.8 730.5L51.2 737.9C51.6 737 51.9 736.1 52.1 735.2C53.5 727.5 49.4 723.9 45.1 723.1C42.4 722.6 40 723.1 38.1 724.6C36.1 726.1 34.8 728.6 34.2 731.9C33.3 736.6 35.9 742.3 37.7 745.7C34.9 743.1 30 739.1 25.3 738.8C22 738.6 19.3 739.2 17.3 740.7C15.4 742.2 14.3 744.4 14.1 747.1C13.8 751.5 16.2 756.4 24 756.9C24.9 757 25.9 756.9 26.8 756.7L17.2 764.1L28.5 778.8L40 769.9C40.6 769.5 40.7 768.7 40.2 768.1ZM36.6 732.4C37.1 729.7 38.1 727.8 39.6 726.7C41.3 725.4 43.2 725.4 44.6 725.7C48.7 726.5 50.5 729.7 49.5 734.8C48.6 739.5 42.6 744.5 40.8 745.9C39.2 743.3 35.8 737 36.6 732.4ZM24.2 754.3C19 753.9 16.3 751.4 16.6 747.2C16.7 745.8 17.2 743.9 18.8 742.7C20.3 741.6 22.4 741.1 25.1 741.3C29.8 741.6 35.1 746.6 37.1 748.7C35.3 750.1 29 754.7 24.2 754.3Z" fill="#FAE7ED"/>
<path d="M132 916.2C131.6 915.6 130.8 915.5 130.2 915.9C129.6 916.3 129.5 917.1 129.9 917.7L136.1 926H139.3L132 916.2Z" fill="#FAE7ED"/>
<path d="M124.3 921.9C123.9 921.3 123.1 921.2 122.5 921.6C121.9 922 121.8 922.8 122.2 923.4L124.1 926H127.3L124.3 921.9Z" fill="#FAE7ED"/>
<path d="M165.7 915.6L173.3 909.9L180.7 904.4L168.9 888.6C168.5 888 167.7 887.9 167.1 888.3C166.5 888.7 166.4 889.5 166.8 890.1L177.1 903.8L172.8 907L162.5 893.3C162.1 892.7 161.3 892.6 160.7 893C160.1 893.4 160 894.2 160.4 894.8L170.7 908.5L165.1 912.7L154.9 899C154.5 898.4 153.7 898.3 153.1 898.7C152.5 899.1 152.4 899.9 152.8 900.5L163.1 914.2L157.5 918.4L147.2 904.7C146.8 904.1 146 904 145.4 904.4C144.8 904.8 144.7 905.6 145.1 906.2L155.4 919.9L149.8 924.1L139.5 910.4C139.1 909.8 138.3 909.7 137.7 910.1C137.1 910.5 137 911.3 137.4 911.9L147.7 925.6L147.4 925.9H151.6L157.9 921.2L165.7 915.6Z" fill="#FAE7ED"/>
<path d="M159.1 866.8L128.3 889.9C131.3 886.4 134.4 882.2 134.9 879.5C135.1 878.5 135.2 877.1 134.3 876.2C133.2 875.2 131.7 875.5 129.9 875.9C128.4 876.2 126.7 876.6 125 876.3C123.3 876 121.8 875.1 120.5 874.3C118.8 873.3 117.2 872.3 115.8 873.3C115.1 873.8 114.7 874.6 114.5 875.9C113.8 879.9 117.3 888.9 119.3 893.5C115.5 890.4 107.9 884.4 103.8 884C102.5 883.9 101.5 884 100.9 884.5C99.5 885.6 100 887.4 100.5 889.3C100.9 890.8 101.4 892.5 101.2 894.2C101 895.9 100.2 897.4 99.5 898.8C98.6 900.4 97.9 901.8 98.6 903.1C99.2 904.3 100.6 904.5 101.6 904.6C104.4 904.9 109.3 903.1 113.5 901.2L82.7 924.3L84.1 926.1H87.3L86.3 924.8L158.7 870.5L165.4 879.5L103.1 926H107.3L168.8 879.9L159.1 866.8ZM101.8 902C101.2 901.9 100.9 901.8 100.8 901.8C100.9 901.4 101.3 900.5 101.7 899.9C102.5 898.4 103.5 896.6 103.7 894.4C103.9 892.2 103.4 890.2 102.9 888.6C102.7 887.9 102.4 886.9 102.4 886.5C102.5 886.5 102.8 886.4 103.4 886.5C106.7 886.9 114.3 892.7 118.2 896C113.7 898.3 105.1 902.3 101.8 902ZM117 876.3C117.1 875.7 117.2 875.4 117.3 875.3C117.7 875.4 118.5 875.9 119.2 876.3C120.6 877.2 122.4 878.3 124.6 878.7C126.8 879.1 128.8 878.7 130.5 878.3C131.2 878.1 132.2 877.9 132.6 878C132.6 878.1 132.6 878.4 132.5 879C131.9 882.3 125.6 889.4 122 893.1C119.8 888.4 116.4 879.6 117 876.3Z" fill="#FAE7ED"/>
<path d="M241.3 759.9C244.7 759.4 247.2 758.2 248.8 756.2C250.3 754.4 250.9 752 250.5 749.4C250.1 746.7 248.9 744.6 246.9 743.3C244.8 741.9 242.1 741.4 238.8 741.9C234.1 742.6 229.5 746.8 226.9 749.7C228.5 746.2 230.7 740.3 229.5 735.7C228.7 732.5 227.2 730.1 225.1 728.7C223.1 727.4 220.7 727 218 727.7C213.7 728.8 209.9 732.7 211.9 740.2C212.5 742.7 214.2 745 216.2 747L198 735L190.1 746.8L243.7 782.6L251.6 770.8L233.4 758.7C236 759.6 238.8 760.3 241.3 759.9ZM239.1 744.5C241.8 744.1 243.9 744.5 245.5 745.5C247.2 746.7 247.8 748.5 248 749.9C248.2 751.2 248.1 753.1 246.9 754.7C245.7 756.2 243.7 757.1 241 757.5C236.2 758.2 229.6 754.1 227.7 752.8C229.5 750.4 234.5 745.1 239.1 744.5ZM214.3 739.6C213 734.6 214.5 731.2 218.6 730.2C219.9 729.9 221.9 729.7 223.6 730.9C225.1 731.9 226.3 733.8 226.9 736.4C228.1 740.9 225.1 747.5 223.7 750.2C221.9 748.8 215.5 744.3 214.3 739.6ZM248 771.5L243 779L224.8 766.8L193.6 746L198.6 738.5L248 771.5Z" fill="#FAE7ED"/>
<path d="M236.7 781.7L232.5 786.1L184.5 788.1L179.7 784.9L181.2 781.4L230.9 779.4C231.6 779.4 232.1 778.8 232.1 778.1C232.1 777.4 231.5 776.9 230.8 776.9L182.4 778.9L185.4 771.9L217.7 770.6C218.4 770.6 218.9 770 218.9 769.3C218.9 768.6 218.3 768.1 217.6 768.1L186.6 769.4L189.6 762.4L204.5 761.8C205.2 761.8 205.7 761.2 205.7 760.5C205.7 759.8 205.1 759.3 204.4 759.3L190.8 759.9L193.7 753.2C194 752.6 193.7 751.8 193 751.5C192.4 751.2 191.6 751.5 191.3 752.2L176.6 786.1L213 810.4L238.6 783.8C239.1 783.3 239.1 782.5 238.6 782C237.9 781.2 237.1 781.2 236.7 781.7ZM212.5 806.8L201.4 799.4L220.4 798.7L212.5 806.8ZM222.9 796L197.7 796.9L188 790.4L229.8 788.7L222.9 796Z" fill="#FAE7ED"/>
<path d="M458.8 895.6L464.7 897.2L457.1 926H459.7L467.1 897.8L492.2 904.4L488.5 918.5L467.4 912.9C466.7 912.7 466 913.1 465.8 913.8C465.6 914.5 466 915.2 466.7 915.4L490.3 921.6L495.3 902.5L475.9 897.4C477.4 897.2 478.8 896.8 480 896.2C487 892.7 487.3 887.2 485.3 883.3C484.1 880.9 482.2 879.3 479.9 878.7C477.5 878.1 474.7 878.5 471.8 880C467.6 882.1 464.6 887.7 463 891.2C463.4 887.4 463.5 881.1 460.9 877.1C459.1 874.3 456.9 872.6 454.5 871.9C452.2 871.3 449.7 871.7 447.5 873.2C443.8 875.6 441.5 880.5 445.8 887.1C446.6 888.3 447.6 889.3 448.8 890.2L429.4 885.1L424.4 904.2L448.1 910.5C448.8 910.7 449.5 910.3 449.7 909.6C449.9 908.9 449.5 908.2 448.8 908L427.5 902.4L431.2 888.3L456.3 894.9L448.1 926H450.7L458.8 895.6ZM473 882.4C475.4 881.2 477.5 880.8 479.3 881.3C481.3 881.8 482.5 883.4 483.1 884.6C485 888.4 483.5 891.7 478.9 894.1C474.6 896.3 467 894.5 464.8 894C465.9 891.1 468.9 884.5 473 882.4ZM448 885.9C445.1 881.6 445.5 877.9 449 875.6C450.1 874.8 451.9 874.1 454 874.6C455.8 875.1 457.5 876.5 458.9 878.7C461.5 882.6 460.8 889.8 460.4 892.8C458.1 892.1 450.7 889.9 448 885.9Z" fill="#FAE7ED"/>
<path d="M428.8 911C429 910.3 428.6 909.6 427.9 909.4C427.2 909.2 426.5 909.6 426.3 910.3L422.2 925.9H424.8L428.8 911Z" fill="#FAE7ED"/>
<path d="M320.2 905C319.7 905.4 319.6 906.2 320 906.8L335.7 926H339L322 905.2C321.5 904.6 320.7 904.5 320.2 905Z" fill="#FAE7ED"/>
<path d="M308.7 883.5L293.2 896.2C293.9 894.9 294.4 893.5 294.7 892.2C295.9 884.5 291.7 881 287.4 880.3C284.7 879.9 282.3 880.5 280.5 882C278.6 883.6 277.3 886.1 276.8 889.4C276.1 894.1 278.8 899.8 280.7 903.1C277.8 900.5 272.8 896.7 268.1 896.5C264.8 896.4 262.1 897.1 260.1 898.7C258.2 900.2 257.2 902.5 257.1 905.2C256.9 909.6 259.5 914.4 267.3 914.7C268.7 914.8 270.1 914.5 271.6 914.1L256.9 926.1H260.9L308.5 887.2L317.8 898.5L300.9 912.3L283.9 926H287.9L321.2 898.8L308.7 883.5ZM267.3 912.1C262.1 911.9 259.4 909.4 259.5 905.2C259.6 903.8 260 901.9 261.6 900.6C263 899.4 265.1 898.9 267.8 899C272.5 899.2 277.9 904 280.1 906.1C278.3 907.6 272.1 912.3 267.3 912.1ZM292.1 891.8C291.3 896.6 285.5 901.7 283.7 903.2C282.1 900.7 278.5 894.4 279.2 889.8C279.6 887.1 280.6 885.2 282 884C283.6 882.7 285.6 882.6 286.9 882.9C291.1 883.5 292.9 886.7 292.1 891.8Z" fill="#FAE7ED"/>
<path d="M392.1 821.1L368.5 844.7L328.6 805L334.2 799.4C334.7 798.9 334.7 798.1 334.2 797.6C333.7 797.1 332.9 797.1 332.4 797.6L325 805L368.5 848.3L393.9 822.9C394.4 822.4 394.4 821.6 393.9 821.1C393.4 820.6 392.6 820.6 392.1 821.1Z" fill="#FAE7ED"/>
<path d="M386.1 781.4C385.6 781.9 385.6 782.7 386.1 783.2L410.4 807.5L400.1 817.9L385.4 803.3L384.6 802.5L381.9 799.8C381.4 799.3 380.6 799.3 380.1 799.8C379.6 800.3 379.6 801.1 380.1 801.6L382.8 804.3L383.6 805.1L400.1 821.5L414 807.5L387.9 781.4C387.4 781 386.6 781 386.1 781.4Z" fill="#FAE7ED"/>
<path d="M379.4 780.8C385.4 777.6 386.8 773 383.6 766.9C382.8 765.4 382 764.3 381.1 763.4C378.1 760.4 374.3 760.2 369.8 762.6C367 764.1 364.5 767.3 362.7 770.4C362.9 766.7 362.7 762.8 361.2 759.9C358 753.9 353.3 752.6 347.3 755.7C341.3 758.9 339.8 763.5 342.9 769.5C343.4 770.5 344.2 771.5 345.2 772.5C346.8 774.1 348.8 775.4 350.7 776.6C347 776.4 343.1 776.6 340.2 778.1C334.2 781.3 332.8 785.9 336 792C336.8 793.5 337.6 794.6 338.5 795.5C341.5 798.5 345.3 798.7 349.8 796.3C352.6 794.8 355.1 791.6 356.9 788.5C356.7 792.2 356.9 796.1 358.4 799C359.1 800.4 359.9 801.5 360.8 802.4C363.8 805.4 367.6 805.6 372.2 803.2C378.2 800 379.7 795.4 376.6 789.4C376.1 788.4 375.3 787.4 374.3 786.4C372.7 784.8 370.7 783.5 368.8 782.3C372.6 782.6 376.6 782.3 379.4 780.8ZM348.8 794.2C344.2 796.7 341.8 795.2 340.5 793.8C339.8 793.1 339.1 792.1 338.4 790.9C335.9 786.1 336.8 783 341.5 780.5C346.1 778.1 354.8 779.7 358.2 780.5C356.9 783.6 353.4 791.8 348.8 794.2ZM347 770.8C346.2 770 345.6 769.2 345.2 768.4C342.7 763.7 343.7 760.6 348.5 758C352.2 756.1 354.8 756.1 357 758.3C357.7 759 358.4 759.9 359 761.1C361.4 765.7 359.8 774.4 359 777.8C356.3 776.8 350.5 774.3 347 770.8ZM372.7 788.2C373.5 789 374.1 789.8 374.5 790.6C377 795.3 376 798.4 371.2 801C366.3 803.6 363.2 802.6 360.8 797.9C358.4 793.3 360 784.6 360.8 781.2C363.4 782.2 369.2 784.8 372.7 788.2ZM361.5 778.6C362.8 775.4 366.3 767.3 370.9 764.8C375.5 762.3 377.9 763.8 379.2 765.2C379.9 765.9 380.6 766.9 381.3 768.1C383.8 772.9 382.9 776 378.2 778.5C373.6 781 364.9 779.4 361.5 778.6Z" fill="#FAE7ED"/>
<path d="M1.89999 295.6C4.49999 296.6 7.29999 297.3 9.79999 296.9C13.2 296.4 15.7 295.2 17.3 293.2C18.8 291.4 19.4 289 19 286.4C18.6 283.7 17.4 281.6 15.4 280.3C13.3 278.9 10.6 278.4 7.29999 278.9C2.59999 279.6 -2.00001 283.8 -4.60001 286.7C-3.00001 283.2 -0.799999 277.3 -2 272.7C-2.8 269.5 -4.3 267.1 -6.39999 265.7C-8.39999 264.4 -10.8 264 -13.5 264.7C-17.8 265.8 -21.6 269.7 -19.6 277.2C-19 279.7 -17.3 282 -15.3 284L-33.5 272L-41.4 283.8L12.2 319.6L20.1 307.8L1.89999 295.6ZM7.60001 281.5C10.3 281.1 12.4 281.5 14 282.5C15.7 283.7 16.3 285.5 16.5 286.9C16.7 288.2 16.6 290.1 15.4 291.7C14.2 293.2 12.2 294.1 9.5 294.5C4.7 295.2 -1.9 291.1 -3.8 289.8C-2 287.4 3.00001 282.1 7.60001 281.5ZM-17.2 276.6C-18.5 271.6 -17 268.2 -12.9 267.2C-11.6 266.9 -9.59999 266.7 -7.89999 267.9C-6.39999 268.9 -5.2 270.8 -4.60001 273.4C-3.40001 277.9 -6.4 284.5 -7.8 287.2C-9.6 285.8 -16 281.3 -17.2 276.6ZM11.5 316L-6.7 303.8L-37.9 283L-32.9 275.5L16.5 308.5L11.5 316Z" fill="#FAE7ED"/>
<path d="M5.2 318.7L1 323.1L-47 325.1L-51.8 321.9L-50.3 318.4L-0.600006 316.4C0.0999947 316.4 0.600006 315.8 0.600006 315.1C0.600006 314.4 3.8147e-06 313.9 -0.699997 313.9L-49.1 315.9L-46.1 308.9L-13.8 307.6C-13.1 307.6 -12.6 307 -12.6 306.3C-12.6 305.6 -13.2 305.1 -13.9 305.1L-44.9 306.4L-41.9 299.4L-27 298.8C-26.3 298.8 -25.8 298.2 -25.8 297.5C-25.8 296.8 -26.4 296.3 -27.1 296.3L-40.7 296.9L-37.8 290.2C-37.5 289.6 -37.8 288.8 -38.5 288.5C-39.1 288.2 -39.9 288.5 -40.2 289.2L-54.9 323.1L-18.5 347.4L7.10001 320.8C7.60001 320.3 7.60001 319.5 7.10001 319C6.40001 318.2 5.6 318.2 5.2 318.7ZM-19 343.8L-30.1 336.4L-11.1 335.7L-19 343.8ZM-8.60001 333L-33.8 333.9L-43.5 327.4L-1.7 325.7L-8.60001 333Z" fill="#FAE7ED"/>
<path d="M248.6 433.3C255.6 429.8 255.9 424.3 253.9 420.4C252.7 418 250.8 416.4 248.5 415.8C246.1 415.2 243.3 415.6 240.4 417.1C236.2 419.2 233.2 424.8 231.6 428.3C232 424.5 232.1 418.2 229.5 414.2C227.7 411.4 225.5 409.7 223.1 409C220.8 408.4 218.3 408.8 216.1 410.3C212.4 412.7 210.1 417.6 214.4 424.2C215.2 425.4 216.2 426.4 217.4 427.3L198 422.2L193 441.3L216.7 447.6C217.4 447.8 218.1 447.4 218.3 446.7C218.5 446 218.1 445.3 217.4 445.1L196.1 439.5L199.8 425.4L224.9 432L210.6 486.1L188.8 480.4L197.3 448.1C197.5 447.4 197.1 446.7 196.4 446.5C195.7 446.3 195 446.7 194.8 447.4L185.6 482.1L211.1 488.8L219.5 491L245 497.7L254.2 463C254.4 462.3 254 461.6 253.3 461.4C252.6 461.2 251.9 461.6 251.7 462.3L243.2 494.6L221.4 488.9L235.7 434.8L260.8 441.4L257.1 455.5L236 449.9C235.3 449.7 234.6 450.1 234.4 450.8C234.2 451.5 234.6 452.2 235.3 452.4L258.9 458.6L263.9 439.5L244.5 434.4C246 434.3 247.4 433.9 248.6 433.3ZM216.5 422.9C213.6 418.6 214 414.9 217.5 412.6C218.6 411.8 220.4 411.1 222.5 411.6C224.3 412.1 226 413.5 227.4 415.7C230 419.6 229.3 426.8 228.9 429.8C226.6 429.1 219.2 426.9 216.5 422.9ZM219 488.3L213.1 486.7L227.4 432.6L233.3 434.2L219 488.3ZM233.3 430.9C234.4 428.1 237.3 421.5 241.5 419.4C243.9 418.2 246 417.8 247.8 418.3C249.8 418.8 251 420.4 251.6 421.6C253.5 425.4 252 428.7 247.4 431.1C243.2 433.2 235.6 431.5 233.3 430.9Z" fill="#FAE7ED"/>
<path d="M43.7 479C43.6 479 43.5 479.1 43.5 479.1C43.4 479.1 43.3 479.2 43.3 479.2H43.2L43.1 479.3C43 479.4 43 479.4 42.9 479.5C42.9 479.6 42.8 479.6 42.8 479.7C42.8 479.8 42.7 479.8 42.7 479.9C42.7 480 42.7 480.1 42.7 480.2C42.7 480.3 42.7 480.3 42.7 480.4C42.7 480.4 42.7 480.4 42.7 480.5C42.7 480.6 42.8 480.7 42.8 480.7C42.8 480.8 42.9 480.9 42.9 480.9V481L65.6 508.8L80.6 496.5L96.5 483.5L112.1 470.8L113.1 470L90.4 442.2C90 441.7 89.2 441.6 88.6 442C88.1 442.4 88 443.2 88.4 443.8L108.9 468.9L43.7 479C43.7 478.9 43.7 479 43.7 479ZM66 505.2L61.4 499.6L75.4 497.5L66 505.2ZM79.4 494.4L59.6 497.4L53.9 490.4L91.4 484.5L79.4 494.4ZM107 471.8L95.3 481.4L52 488.2L46.3 481.2L107 471.8Z" fill="#FAE7ED"/>
<path d="M25.5 442.1C25.3 446.5 27.9 451.3 35.7 451.6C37.1 451.7 38.5 451.4 40 451L24.5 463.7L37 479L89.8 435.9L77.3 420.6L61.8 433.3C62.5 432 63.1 430.6 63.3 429.3C64.5 421.6 60.3 418.1 56 417.4C53.3 417 50.9 417.6 49.1 419.1C47.2 420.7 45.9 423.2 45.4 426.5C44.7 431.2 47.4 436.9 49.3 440.2C46.4 437.6 41.4 433.8 36.7 433.6C33.4 433.5 30.7 434.2 28.7 435.8C26.7 437.1 25.6 439.4 25.5 442.1ZM47.7 426.8C48.1 424.1 49.1 422.2 50.5 421C52.1 419.7 54.1 419.6 55.4 419.9C59.6 420.6 61.4 423.8 60.6 428.9C59.8 433.7 54 438.8 52.2 440.3C50.6 437.7 46.9 431.4 47.7 426.8ZM76.8 424.1L86.1 435.4L69.2 449.2L37.3 475.3L28 464L76.8 424.1ZM30.1 437.6C31.5 436.4 33.6 435.9 36.3 436C41 436.2 46.4 441 48.6 443.1C46.8 444.6 40.6 449.3 35.8 449.1C30.6 448.9 27.9 446.4 28 442.2C28.1 440.8 28.5 438.9 30.1 437.6Z" fill="#FAE7ED"/>
<path d="M160.6 358.1L137 381.7L97.1 342L102.7 336.4C103.2 335.9 103.2 335.1 102.7 334.6C102.2 334.1 101.4 334.1 100.9 334.6L93.5 342L137 385.3L162.4 359.9C162.9 359.4 162.9 358.6 162.4 358.1C161.9 357.6 161.1 357.6 160.6 358.1Z" fill="#FAE7ED"/>
<path d="M156.4 318.4C155.9 317.9 155.1 317.9 154.6 318.4C154.1 318.9 154.1 319.7 154.6 320.2L178.9 344.5L168.6 354.9L153.9 340.3L153.1 339.5L150.4 336.8C149.9 336.3 149.1 336.3 148.6 336.8C148.1 337.3 148.1 338.1 148.6 338.6L151.3 341.3L152.1 342.1L168.6 358.5L182.5 344.5L156.4 318.4Z" fill="#FAE7ED"/>
<path d="M147.9 317.8C153.9 314.6 155.3 310 152.1 303.9C151.3 302.4 150.5 301.3 149.6 300.4C146.6 297.4 142.8 297.2 138.3 299.6C135.5 301.1 133 304.3 131.2 307.4C131.4 303.7 131.2 299.8 129.7 296.9C126.5 290.9 121.8 289.6 115.8 292.7C109.8 295.9 108.3 300.6 111.4 306.5C111.9 307.5 112.7 308.5 113.7 309.5C115.3 311.1 117.3 312.4 119.2 313.6C115.5 313.4 111.6 313.6 108.7 315.1C102.7 318.3 101.3 322.9 104.5 329C105.3 330.5 106.1 331.6 107 332.5C110 335.5 113.8 335.7 118.3 333.3C121.1 331.8 123.6 328.6 125.4 325.5C125.2 329.2 125.4 333.1 126.9 336C127.6 337.4 128.4 338.5 129.3 339.4C132.3 342.4 136.1 342.6 140.7 340.2C146.7 337 148.2 332.4 145.1 326.4C144.6 325.4 143.8 324.4 142.8 323.4C141.2 321.8 139.2 320.5 137.3 319.3C141.1 319.6 145.1 319.4 147.9 317.8ZM117.3 331.2C112.7 333.7 110.3 332.2 109 330.8C108.3 330.1 107.6 329.1 106.9 327.9C104.4 323.1 105.3 320 110 317.5C114.6 315.1 123.3 316.7 126.7 317.5C125.4 320.6 121.9 328.8 117.3 331.2ZM115.5 307.8C114.7 307 114.1 306.2 113.7 305.4C111.2 300.7 112.2 297.6 117 295C120.7 293.1 123.3 293.1 125.5 295.3C126.2 296 126.9 296.9 127.5 298.1C129.9 302.7 128.3 311.4 127.5 314.8C124.8 313.8 119 311.3 115.5 307.8ZM141.2 325.2C142 326 142.6 326.8 143 327.6C145.5 332.3 144.5 335.4 139.7 338C134.8 340.6 131.7 339.6 129.3 334.9C126.9 330.3 128.5 321.6 129.3 318.2C131.9 319.2 137.7 321.8 141.2 325.2ZM130 315.6C131.3 312.4 134.8 304.3 139.4 301.8C144 299.3 146.4 300.8 147.7 302.2C148.4 302.9 149.1 303.9 149.8 305.1C152.3 309.9 151.4 313 146.7 315.5C142.1 318 133.4 316.4 130 315.6Z" fill="#FAE7ED"/>
<path d="M333 328.5L304.3 291.2C303.9 290.6 303.1 290.5 302.5 291C301.9 291.4 301.8 292.2 302.3 292.8L329.5 328.1L297.8 352.5L270.6 317.2C270.2 316.6 269.4 316.5 268.8 317C268.2 317.4 268.1 318.2 268.6 318.8L297.3 356.1L333 328.5Z" fill="#FAE7ED"/>
<path d="M271.7 305.1C271.3 304.5 270.5 304.4 269.9 304.9L260.4 312.2L252.2 301.5L270.2 287.6L270.4 287.5C271.5 291.5 274.4 295.2 277.3 299C282.3 305.4 287.5 312.1 284.3 321C284.1 321.7 284.4 322.4 285.1 322.6C285.5 322.8 286 322.7 286.3 322.4C286.5 322.3 286.6 322.1 286.7 321.8C290.4 311.6 284.5 304.1 279.3 297.4C277 294.5 274.9 291.7 273.6 288.9C279.7 293.9 291.4 302.9 296.1 302C296.3 302 296.5 301.9 296.6 301.8C297 301.5 297.2 301 297.1 300.5C297 299.8 296.3 299.4 295.6 299.5C292.2 300.2 280.6 291.5 273.2 285.3L273.8 284.9L291.8 271L300 281.7L290.4 289.1C289.8 289.5 289.7 290.3 290.2 290.9C290.6 291.5 291.4 291.6 292 291.1L303.6 282.1L292.3 267.4L282.7 274.8C283.1 273.9 283.4 273 283.6 272.1C285 264.4 280.9 260.8 276.6 260C273.9 259.5 271.5 260 269.6 261.5C267.6 263 266.3 265.5 265.7 268.8C264.8 273.5 267.4 279.2 269.2 282.6C266.4 280 261.5 276 256.8 275.7C253.5 275.5 250.8 276.1 248.8 277.6C246.9 279.1 245.8 281.3 245.6 284C245.3 288.4 247.7 293.3 255.5 293.8C256.4 293.9 257.4 293.8 258.3 293.6L248.7 301L260 315.7L271.5 306.8C272.1 306.5 272.2 305.7 271.7 305.1ZM268.1 269.4C268.6 266.7 269.6 264.8 271.1 263.7C272.8 262.4 274.7 262.4 276.1 262.7C280.2 263.5 282 266.7 281 271.8C280.1 276.5 274.1 281.5 272.3 282.9C270.7 280.3 267.3 274 268.1 269.4ZM255.7 291.3C250.5 290.9 247.8 288.4 248.1 284.2C248.2 282.8 248.7 280.9 250.3 279.7C251.8 278.6 253.9 278.1 256.6 278.3C261.3 278.6 266.6 283.6 268.6 285.7C266.8 287.1 260.5 291.7 255.7 291.3Z" fill="#FAE7ED"/>
<path d="M334.2 475.1C333.8 474.5 333 474.4 332.4 474.8C331.8 475.2 331.7 476 332.1 476.6L343.9 492.4L351.3 486.9L358.9 481.2L366.5 475.5L374.1 469.8L381.7 464.1L389.3 458.4L396.9 452.7L404.5 447L411.9 441.5L400.1 425.7C399.7 425.1 398.9 425 398.3 425.4C397.7 425.8 397.6 426.6 398 427.2L408.3 440.9L404 444.1L394 430.3C393.6 429.7 392.8 429.6 392.2 430C391.6 430.4 391.5 431.2 391.9 431.8L402.2 445.5L396.6 449.7L386.4 436C386 435.4 385.2 435.3 384.6 435.7C384 436.1 383.9 436.9 384.3 437.5L394.6 451.2L389 455.4L378.7 441.7C378.3 441.1 377.5 441 376.9 441.4C376.3 441.8 376.2 442.6 376.6 443.2L387 457L381.4 461.2L371.1 447.5C370.7 446.9 369.9 446.8 369.3 447.2C368.7 447.6 368.6 448.4 369 449L379.3 462.7L373.7 466.9L363.4 453.2C363 452.6 362.2 452.5 361.6 452.9C361 453.3 360.9 454.1 361.3 454.7L371.6 468.4L366 472.6L355.7 458.9C355.3 458.3 354.5 458.2 353.9 458.6C353.3 459 353.2 459.8 353.6 460.4L363.9 474.1L358.3 478.3L348 464.6C347.6 464 346.8 463.9 346.2 464.3C345.6 464.7 345.5 465.5 345.9 466.1L356.2 479.8L350.6 484L340.3 470.3C339.9 469.7 339.1 469.6 338.5 470C337.9 470.4 337.8 471.2 338.2 471.8L348.5 485.5L344.2 488.7L334.2 475.1Z" fill="#FAE7ED"/>
<path d="M347.3 410.2C346.6 410.7 346.2 411.5 346 412.9C345.3 416.9 348.8 425.9 350.8 430.5C347 427.4 339.4 421.4 335.3 421C334 420.9 333 421 332.4 421.5C331 422.6 331.5 424.4 332 426.3C332.4 427.8 332.9 429.5 332.7 431.2C332.5 432.9 331.7 434.4 331 435.8C330.1 437.4 329.4 438.8 330.1 440.1C330.7 441.3 332.1 441.5 333.1 441.6C335.9 441.9 340.8 440.1 345 438.2L314.2 461.3L324 474.4L400.5 417L390.7 403.9L359.9 427C362.9 423.5 366 419.3 366.5 416.6C366.7 415.6 366.8 414.2 365.9 413.3C364.8 412.3 363.3 412.6 361.5 413C360 413.3 358.3 413.7 356.6 413.4C354.9 413.1 353.4 412.2 352.1 411.4C350.3 410.1 348.7 409.1 347.3 410.2ZM333.3 439C332.7 438.9 332.4 438.8 332.3 438.8C332.4 438.4 332.8 437.5 333.2 436.9C334 435.4 335 433.6 335.2 431.4C335.4 429.2 334.9 427.2 334.4 425.6C334.2 424.9 333.9 423.9 333.9 423.5C334 423.5 334.3 423.4 334.9 423.5C338.2 423.9 345.8 429.7 349.7 433C345.2 435.3 336.6 439.3 333.3 439ZM390.1 407.4L396.8 416.4L324.4 470.7L317.7 461.7L390.1 407.4ZM361.9 415.3C362.6 415.1 363.6 414.9 364 415C364 415.1 364 415.4 363.9 416C363.3 419.3 357 426.4 353.4 430.1C351.3 425.4 347.9 416.5 348.4 413.2C348.5 412.6 348.6 412.3 348.7 412.2C349.1 412.3 349.9 412.8 350.6 413.2C352 414.1 353.8 415.2 356 415.6C358.2 416.1 360.2 415.6 361.9 415.3Z" fill="#FAE7ED"/>
<path d="M225.5 557.5C223.7 554.7 221.6 552.9 219.2 552.2C216.9 551.5 214.5 552 212.2 553.4C208.5 555.8 206 560.6 210.2 567.2C213.2 571.9 220.8 574.5 223.9 575.4C224.8 575.6 225.3 575.8 225.3 575.8L226.1 576L226.9 576.3C226.9 576.3 227.4 576.5 228.3 576.7C231.4 577.6 239.3 579.4 244.3 576.9C251.3 573.5 251.8 568 249.9 564.1C248.7 561.7 246.9 560 244.5 559.4C242.1 558.7 239.4 559.1 236.3 560.6C232 562.7 228.9 568.2 227.3 571.7C227.8 567.8 228.1 561.5 225.5 557.5ZM224.6 572.9C222.3 572.3 214.9 569.9 212.3 565.8C209.5 561.4 209.9 557.8 213.5 555.5C214.6 554.8 216.4 554 218.5 554.6C220.3 555.1 221.9 556.5 223.4 558.8C225.9 562.8 225.1 570 224.6 572.9ZM237.4 562.8C239.8 561.6 242 561.3 243.7 561.8C245.7 562.4 246.9 564 247.5 565.2C249.3 569 247.8 572.3 243.1 574.6C238.8 576.7 231.2 574.8 229 574.2C230.2 571.4 233.2 564.9 237.4 562.8Z" fill="#FAE7ED"/>
<path d="M252.9 578.3C252.3 578 251.5 578.2 251.2 578.8C250.9 579.4 251.1 580.2 251.7 580.5C257.1 583.4 257.5 584.8 257.5 584.8C256.4 586.3 244.6 586.1 224.9 580.5C205.1 574.9 195 568.9 194.8 567.1C194.9 567 196.1 565.9 203.3 566.5C204 566.6 204.6 566 204.7 565.3C204.8 564.6 204.2 564 203.5 563.9C194.3 563.1 192.8 564.9 192.4 566.3L189.6 576.1C188.8 583 220.1 591.9 221.5 592.3C222.9 592.7 255.3 601.8 257.3 594.8L260 585.3C260.5 583.5 258.3 581.2 252.9 578.3ZM254.8 594.3C253.7 595.8 241.9 595.6 222.2 590C202.4 584.4 192.3 578.4 192.1 576.6L193.9 570.1C200.3 576.3 222.9 582.7 224.1 583C225.2 583.3 247.9 589.7 256.6 587.8L254.8 594.3Z" fill="#FAE7ED"/>
<path d="M194.6 585.6C193.9 585.4 193.2 585.8 193 586.5L185.3 613.7C183.7 619.5 208.7 626.8 211.5 627.6C214.4 628.4 239.5 635.3 241.1 629.5L248.8 602.3C249 601.6 248.6 600.9 247.9 600.7C247.2 600.5 246.5 600.9 246.3 601.6L238.6 628.7C237.4 629.8 227.6 629.5 212.1 625.1C196.6 620.7 188.1 615.9 187.6 614.3L195.3 587.2C195.6 586.5 195.3 585.8 194.6 585.6Z" fill="#FAE7ED"/>
<path d="M464.9 295.6C467.5 296.6 470.3 297.3 472.8 296.9C476.2 296.4 478.7 295.2 480.3 293.2C481.8 291.4 482.4 289 482 286.4C481.6 283.7 480.4 281.6 478.4 280.3C476.3 278.9 473.6 278.4 470.3 278.9C465.6 279.6 461 283.8 458.4 286.7C460 283.2 462.2 277.3 461 272.7C460.2 269.5 458.7 267.1 456.6 265.7C454.6 264.4 452.2 264 449.5 264.7C445.2 265.8 441.4 269.7 443.4 277.2C444 279.7 445.7 282 447.7 284L429.5 272L421.6 283.8L475.2 319.6L483.1 307.8L464.9 295.6ZM470.6 281.5C473.3 281.1 475.4 281.5 477 282.5C478.7 283.7 479.3 285.5 479.5 286.9C479.7 288.2 479.6 290.1 478.4 291.7C477.2 293.2 475.2 294.1 472.5 294.5C467.7 295.2 461.1 291.1 459.2 289.8C461 287.4 466 282.1 470.6 281.5ZM445.8 276.6C444.5 271.6 446 268.2 450.1 267.2C451.4 266.9 453.4 266.7 455.1 267.9C456.6 268.9 457.8 270.8 458.4 273.4C459.6 277.9 456.6 284.5 455.2 287.2C453.4 285.8 447 281.3 445.8 276.6ZM474.5 316L456.3 303.8L425.1 283L430.1 275.5L479.5 308.5L474.5 316Z" fill="#FAE7ED"/>
<path d="M468.2 318.7L464 323.1L416 325.1L411.2 321.9L412.7 318.4L462.4 316.4C463.1 316.4 463.6 315.8 463.6 315.1C463.6 314.4 463 313.9 462.3 313.9L413.9 315.9L416.9 308.9L449.2 307.6C449.9 307.6 450.4 307 450.4 306.3C450.4 305.6 449.8 305.1 449.1 305.1L418.1 306.4L421.1 299.4L436 298.8C436.7 298.8 437.2 298.2 437.2 297.5C437.2 296.8 436.6 296.3 435.9 296.3L422.3 296.9L425.2 290.2C425.5 289.6 425.2 288.8 424.5 288.5C423.9 288.2 423.1 288.5 422.8 289.2L408.1 323.1L444.5 347.4L470.1 320.8C470.6 320.3 470.6 319.5 470.1 319C469.4 318.2 468.6 318.2 468.2 318.7ZM444 343.8L432.9 336.4L451.9 335.7L444 343.8ZM454.4 333L429.2 333.9L419.5 327.4L461.3 325.7L454.4 333Z" fill="#FAE7ED"/>
<path d="M415.9 549.1L427.7 553.7C427.9 553.8 428.2 553.8 428.4 553.8C428.9 553.8 429.4 553.5 429.7 553.1C430.2 552.5 430.1 551.6 429.7 551C427.4 548.2 422.6 540.7 426.6 531.7C426.9 531 426.7 530.1 426.1 529.6C425.5 529.1 424.6 529.1 424 529.6L410.3 540.5L423.7 521.4L419.6 523.1C414.7 525.1 409.4 526.3 403.6 526.5C393.8 526.9 386.2 524.4 386.1 524.3L381.9 522.9L396.7 540.9L382.2 531C381.6 530.6 380.6 530.6 380.1 531.1C379.5 531.6 379.3 532.5 379.7 533.2C384.3 541.9 380.1 549.7 378 552.7C377.6 553.4 377.6 554.2 378.1 554.8C378.4 555.2 379 555.4 379.5 555.4C379.7 555.4 380 555.3 380.2 555.2L391.7 549.7C382 558.2 374.8 574.5 375.1 584.7C375.6 598.5 390.9 605.2 405.7 604.6C420.5 604.1 435.3 596.3 434.8 582.5C434.5 572.5 426.1 556.8 415.9 549.1ZM423.3 533.3C421.2 540.6 423.8 546.7 426.1 550.3L409.9 544L423.3 533.3ZM389.1 527.8C392.4 528.5 397.6 529.3 403.6 529.1C408.2 528.9 412.5 528.2 416.6 526.9L405 543.6C404.4 544.5 402.9 544.6 402.2 543.7L389.1 527.8ZM381.5 552C383.5 548.2 385.7 541.9 383.1 534.8L397.2 544.5L381.5 552ZM405.7 602.3C392.1 602.8 378.1 597 377.7 584.8C377.2 572.4 389.4 549.4 402.1 547.2C401.4 552.4 398.5 569.3 391.5 579.2C391.1 579.8 391.2 580.6 391.8 581C392 581.2 392.3 581.2 392.6 581.2C393 581.2 393.3 581 393.6 580.7C399.9 572 402.9 558.4 404.1 551.1C406.2 556.7 409.9 565.3 413.6 568C413.8 568.2 414.1 568.2 414.4 568.2C414.8 568.2 415.2 568 415.4 567.7C415.8 567.1 415.7 566.3 415.1 565.9C411.6 563.4 407.4 552.8 405.4 547.2C418.2 548.6 432 570.6 432.4 583C432.8 594.9 419.3 601.8 405.7 602.3Z" fill="#FAE7ED"/>
<path d="M385.5 691.1L361.4 664.4C360.9 663.9 360.1 663.8 359.6 664.3C359.1 664.8 359 665.6 359.5 666.1L381.9 690.9L340.1 728.6L317.7 703.8C317.2 703.3 316.4 703.2 315.9 703.7C315.4 704.2 315.3 705 315.8 705.5L339.9 732.2L385.5 691.1Z" fill="#FAE7ED"/>
<path d="M325.4 687.9C324.9 687.4 324.1 687.3 323.6 687.8L309.9 700.1L300.1 689.2L318 673L345.7 703.7L343.5 690.2L356.7 693.7L329 663L346.9 646.8L356.7 657.7L342.4 670.6C341.9 671.1 341.8 671.9 342.3 672.4C342.8 672.9 343.6 673 344.1 672.5L360.3 657.9L347.1 643.3L334.5 654.7C335.3 653.4 335.9 652.2 336.2 651.1C337.1 647.8 336.8 645.4 335.1 643.7C333.6 642.2 331.4 641.6 329.3 641C326.2 640.1 323.1 639.2 320.6 641.5C319.5 642.5 318.7 643.9 318.1 646C317.9 646.7 317.8 647.4 317.7 648.2C317.3 647.4 316.8 646.7 316.3 646.2C311.1 640.4 307.2 643.9 304.1 646.7C301 649.5 297.1 653 302.4 658.8C302.9 659.4 303.6 659.9 304.3 660.4C303.5 660.4 302.8 660.4 302.1 660.5C300 660.9 298.4 661.5 297.4 662.5C294.9 664.7 295.5 668 296 671.1C296.4 673.3 296.8 675.6 298.1 677.2C299.6 679 301.9 679.6 305.3 679C306.5 678.8 307.7 678.3 309.1 677.6L296.5 689L309.7 703.6L325.2 689.6C325.8 689.3 325.9 688.5 325.4 687.9ZM320.7 646.8C321.1 645.2 321.7 644.1 322.4 643.5C323.7 642.3 325.7 642.7 328.7 643.6C330.5 644.1 332.4 644.7 333.4 645.6C334 646.2 334.7 647.4 333.8 650.5C333.1 653.1 330.5 656.4 326.2 660.3C325 661.3 324 662.2 323.2 662.9C322 659.4 319.4 651.3 320.7 646.8ZM327.2 664.9L349.2 689.3L340.5 687L341.9 695.9L319.9 671.5L327.2 664.9ZM305.9 648.6C309.4 645.4 311.1 644.2 314.5 647.9C317.6 651.3 318.9 659.8 319.3 663.4C315.7 662.6 307.5 660.5 304.4 657C301 653.4 302.4 651.8 305.9 648.6ZM305 676.6C301.8 677.2 300.7 676.3 300.2 675.7C299.3 674.6 299 672.7 298.6 670.8C298.1 667.7 297.8 665.7 299.1 664.5C299.8 663.9 301 663.4 302.6 663.1C307.2 662.3 315 665.7 318.3 667.3C317.6 668 316.6 669 315.4 670C311.2 673.9 307.6 676.1 305 676.6Z" fill="#FAE7ED"/>
<path d="M98.9 623.5C95.4 620.4 84.6 618.5 79.1 617.7C84.4 615.9 94.7 612 97.5 608.3C98.4 607.1 98.8 606.1 98.7 605.2C98.5 603.2 96.5 602.6 94.3 602C92.6 601.5 90.7 601 89.2 599.8C87.7 598.6 86.7 596.9 85.8 595.4C84.7 593.6 83.8 592 82.1 591.9C80.6 591.8 79.5 593 78.8 593.9C76.7 596.7 75.5 603.5 74.9 609.1C73.2 603.7 70.8 597.2 68.2 594.9C67.3 594.1 66 593.2 64.6 593.5C63 593.9 62.4 595.6 61.7 597.6C61.1 599.3 60.4 601.1 59.1 602.6C57.8 604 56 604.9 54.5 605.7C52.5 606.7 50.6 607.7 50.8 609.7C50.9 610.6 51.5 611.5 52.6 612.5C56.1 615.6 66.9 617.5 72.4 618.3C67.1 620.1 56.8 624 54 627.7C53.1 628.9 52.7 629.9 52.8 630.8C53 632.8 55 633.4 57.2 634C58.9 634.5 60.8 635 62.3 636.2C63.8 637.4 64.8 639.1 65.7 640.6C66.8 642.4 67.7 644 69.4 644.1C70.9 644.2 72 643 72.7 642.1C74.8 639.3 76 632.5 76.6 626.9C78.3 632.3 80.7 638.8 83.3 641.1C84.2 641.9 85.5 642.8 86.9 642.5C88.5 642.1 89.1 640.4 89.8 638.4C90.4 636.7 91.1 634.9 92.4 633.4C93.7 632 95.5 631.1 97 630.3C99 629.3 100.9 628.3 100.7 626.3C100.6 625.4 100.1 624.5 98.9 623.5ZM54.4 610.4C53.9 610 53.7 609.7 53.6 609.5C53.9 609.2 54.9 608.7 55.7 608.3C57.4 607.4 59.6 606.4 61.2 604.5C62.9 602.6 63.7 600.4 64.3 598.6C64.6 597.8 65 596.7 65.2 596.4C65.3 596.5 65.6 596.6 66.2 597.1C69 599.6 72.2 610 73.7 615.7C67.9 614.8 57.2 612.9 54.4 610.4ZM70.3 640.4C69.9 640.9 69.6 641.2 69.5 641.2C69.2 640.9 68.6 639.9 68.2 639.2C67.2 637.5 66 635.5 64 634C62 632.5 59.7 631.8 57.9 631.3C57.1 631.1 56 630.8 55.6 630.5C55.7 630.3 55.8 630 56.2 629.5C58.5 626.5 68.6 622.6 74.2 620.8C73.8 626.6 72.6 637.4 70.3 640.4ZM81.1 595.6C81.5 595.1 81.8 594.8 81.9 594.8C82.2 595.1 82.8 596.1 83.2 596.8C84.2 598.5 85.4 600.5 87.4 602C89.4 603.5 91.7 604.2 93.5 604.7C94.3 604.9 95.4 605.2 95.8 605.5C95.7 605.7 95.6 606 95.2 606.5C92.9 609.5 82.8 613.4 77.2 615.2C77.6 609.4 78.8 598.7 81.1 595.6ZM95.7 627.7C94 628.6 91.8 629.6 90.2 631.5C88.5 633.4 87.7 635.6 87.1 637.4C86.8 638.2 86.4 639.3 86.2 639.6C86.1 639.5 85.7 639.4 85.2 638.9C82.4 636.4 79.2 626 77.7 620.3C83.5 621.1 94.2 623 97 625.5C97.5 626 97.7 626.2 97.8 626.4C97.5 626.8 96.5 627.3 95.7 627.7Z" fill="#FAE7ED"/>
<path d="M118.3 606.4L114.9 570.6L79.1 574L64 575.4L28.2 578.8L31.6 614.6L36.4 665.5L72.2 662.1L123.1 657.3L119.7 621.5L118.3 606.4ZM88.5 657.6L87.4 646.2C87.3 645.4 86.6 644.8 85.8 644.9C85 645 84.4 645.7 84.5 646.5L85.6 657.9L73.4 659.1L72.3 647.7C72.2 646.9 71.5 646.3 70.7 646.4C69.9 646.5 69.3 647.2 69.4 648L70.5 659.4L39 662.4L36 630.9L47.4 629.8C48.2 629.7 48.8 629 48.7 628.2C48.6 627.4 47.9 626.8 47.1 626.9L35.7 628L34.5 615.8L45.9 614.7C46.7 614.6 47.3 613.9 47.2 613.1C47.1 612.3 46.4 611.7 45.6 611.8L34.2 612.9L31.2 581.4L62.7 578.4L63.8 589.8C63.9 590.6 64.6 591.2 65.4 591.1C66.2 591 66.8 590.3 66.7 589.5L65.6 578.1L78 577L79.1 588.4C79.2 589.2 79.9 589.8 80.7 589.7C81.5 589.6 82.1 588.9 82 588.1L80.9 576.7L112.4 573.7L115.4 605.2L104 606.3C103.2 606.4 102.6 607.1 102.7 607.9C102.8 608.7 103.5 609.3 104.3 609.2L115.7 608.1L116.9 620.3L105.5 621.4C104.7 621.5 104.1 622.2 104.2 623C104.3 623.8 105 624.4 105.8 624.3L117.2 623.2L120.2 654.7L88.5 657.6Z" fill="#FAE7ED"/>
<path d="M-20.3 25.8L-11.9 28L13.6 34.7L22.7 0H20.1L11.7 31.7L-10.1 26L-3.20001 0H-5.80002L-12.5 25.3L-18.4 23.7L-12.2 0H-14.8L-20.9 23.1L-42.7 17.4L-38.1 0H-40.7L-45.7 19.1L-20.3 25.8Z" fill="#FAE7ED"/>
<path d="M127 15.4L116.7 1.6C116.3 1 115.5 0.9 114.9 1.3C114.3 1.7 114.2 2.5 114.6 3.1L125 16.9L119.4 21.1L109.1 7.4C108.7 6.8 107.9 6.7 107.3 7.1C106.7 7.5 106.6 8.3 107 8.9L117.3 22.6L113 25.8L102.7 12.1C102.3 11.5 101.5 11.4 100.9 11.8C100.3 12.2 100.2 13 100.6 13.6L112.4 29.4L119.8 23.9L127.4 18.2L135 12.5L142.6 6.8L150.2 1.1L151.6 0.1H147.4L142.1 4L139.1 0.1H135.9L140 5.6L134.4 9.8L127.4 0H124.2L132.6 11.2L127 15.4Z" fill="#FAE7ED"/>
<path d="M107.4 0H103.1L92.9 7.7L87.1 0H83.9L92.4 11.3L107.4 0Z" fill="#FAE7ED"/>
<path d="M-7.5 112.4C-6.6 112.6 -6.1 112.8 -6.1 112.8L-5.3 113L-4.5 113.3C-4.5 113.3 -4 113.5 -3.1 113.7C-3.8147e-06 114.6 7.89999 116.4 12.9 113.9C19.9 110.5 20.4 105 18.5 101.1C17.3 98.7 15.5 97 13.1 96.4C10.7 95.7 8 96.1 4.9 97.6C0.599995 99.7 -2.5 105.2 -4.1 108.7C-3.6 104.9 -3.39999 98.6 -5.89999 94.6C-7.69999 91.8 -9.8 90 -12.2 89.3C-14.5 88.6 -16.9 89.1 -19.2 90.5C-22.9 92.9 -25.4 97.7 -21.2 104.3C-18.3 109 -10.7 111.5 -7.5 112.4ZM5.9 99.8C8.3 98.6 10.5 98.3 12.3 98.8C14.3 99.4 15.5 101 16.1 102.2C17.9 106 16.4 109.3 11.7 111.6C7.40001 113.7 -0.199991 111.8 -2.39999 111.2C-1.29999 108.4 1.7 101.9 5.9 99.8ZM-17.9 92.6C-16.7 91.9 -15 91.1 -12.9 91.7C-11.1 92.2 -9.5 93.6 -8 95.9C-5.5 99.8 -6.3 107.1 -6.8 110C-9.1 109.4 -16.5 107 -19.1 102.9C-21.9 98.5 -21.5 94.8 -17.9 92.6Z" fill="#FAE7ED"/>
<path d="M-9.99999 129.5C-8.59999 129.9 23.8 139 25.8 132L28.5 122.5C29.1 120.4 26.9 118.1 21.5 115.2C20.9 114.9 20.1 115.1 19.8 115.7C19.5 116.3 19.7 117.1 20.3 117.4C25.7 120.3 26.1 121.7 26.1 121.7C25 123.2 13.2 123 -6.49999 117.4C-26.3 111.8 -36.4 105.8 -36.6 104C-36.5 103.9 -35.3 102.8 -28.1 103.4C-27.4 103.5 -26.8 102.9 -26.7 102.2C-26.6 101.5 -27.2 100.9 -27.9 100.8C-37.1 100 -38.6 101.8 -39 103.2L-41.8 113C-42.7 120.2 -11.4 129.1 -9.99999 129.5ZM-37.5 107.1C-31.1 113.3 -8.49999 119.7 -7.29999 120C-6.19999 120.3 16.5 126.7 25.2 124.8L23.4 131.3C22.3 132.8 10.5 132.6 -9.19999 127C-29 121.4 -39.1 115.4 -39.3 113.6L-37.5 107.1Z" fill="#FAE7ED"/>
<path d="M-19.9 164.6C-17 165.4 8.10004 172.3 9.70004 166.5L17.4 139.3C17.6 138.6 17.2 137.9 16.5 137.7C15.8 137.5 15.1 137.9 14.9 138.6L7.20004 165.7C6.00003 166.8 -3.79998 166.5 -19.3 162.1C-34.8 157.7 -43.3 152.9 -43.8 151.3L-36.1 124.2C-35.9 123.5 -36.3 122.8 -37 122.6C-37.7 122.4 -38.4 122.8 -38.6 123.5L-46.3 150.7C-47.8 156.5 -22.8 163.8 -19.9 164.6Z" fill="#FAE7ED"/>
<path d="M143.6 121.9C144.1 135.7 159.4 142.4 174.2 141.8C189 141.3 203.8 133.5 203.3 119.7C202.9 109.5 194.5 93.7999 184.3 86.0999L196.1 90.6999C196.3 90.7999 196.6 90.7999 196.8 90.7999C197.3 90.7999 197.8 90.4999 198.1 90.0999C198.6 89.4999 198.5 88.5999 198.1 87.9999C195.8 85.1999 191 77.6999 195 68.6999C195.3 67.9999 195.1 67.0999 194.5 66.5999C193.9 66.0999 193 66.0999 192.4 66.5999L178.7 77.4999L192.1 58.3999L188 60.0999C183.1 62.0999 177.8 63.2999 172 63.4999C162.2 63.8999 154.6 61.3999 154.5 61.2999L150.3 59.8999L165.1 77.8999L150.6 67.9999C150 67.5999 149 67.5999 148.5 68.0999C147.9 68.5999 147.7 69.4999 148.1 70.1999C152.7 78.8999 148.5 86.6999 146.4 89.6999C146 90.3999 146 91.1999 146.5 91.7999C146.8 92.1999 147.4 92.3999 147.9 92.3999C148.1 92.3999 148.4 92.2999 148.6 92.1999L160.1 86.6999C150.5 95.3999 143.3 111.7 143.6 121.9ZM191.8 70.2999C189.7 77.5999 192.3 83.6999 194.6 87.2999L178.4 80.9999L191.8 70.2999ZM157.6 64.7999C160.9 65.4999 166.1 66.2999 172.1 66.0999C176.7 65.8999 181 65.1999 185.1 63.8999L173.4 80.5999C172.8 81.4999 171.3 81.5999 170.6 80.6999L157.6 64.7999ZM150 88.9999C152 85.1999 154.2 78.8999 151.6 71.7999L165.7 81.4999L150 88.9999ZM170.6 84.0999C169.9 89.2999 167 106.2 160 116.1C159.6 116.7 159.7 117.5 160.3 117.9C160.5 118.1 160.8 118.1 161.1 118.1C161.5 118.1 161.8 117.9 162.1 117.6C168.4 108.9 171.4 95.2999 172.7 87.9999C174.8 93.5999 178.5 102.2 182.2 104.9C182.4 105.1 182.7 105.1 183 105.1C183.4 105.1 183.8 104.9 184 104.6C184.4 104 184.3 103.2 183.7 102.8C180.2 100.3 176 89.6999 174 84.0999C186.8 85.4999 200.6 107.5 201 119.9C201.4 132 187.9 138.9 174.3 139.4C160.7 139.9 146.7 134.1 146.3 121.9C145.7 109.4 157.8 86.3999 170.6 84.0999Z" fill="#FAE7ED"/>
<path d="M128.1 203.1L150.5 227.9L108.7 265.6L86.3 240.8C85.8 240.3 85 240.2 84.5 240.7C84 241.2 83.9 242 84.4 242.5L108.5 269.2L154.1 228.1L130 201.4C129.5 200.9 128.7 200.8 128.2 201.3C127.6 201.8 127.6 202.6 128.1 203.1Z" fill="#FAE7ED"/>
<path d="M66.7 214.3C68.2 216.1 70.5 216.7 73.9 216.1C75.1 215.9 76.3 215.4 77.7 214.7L65 226.1L78.2 240.7L93.7 226.7C94.2 226.2 94.3 225.4 93.8 224.9C93.3 224.4 92.5 224.3 92 224.8L78.3 237.1L68.5 226.2L86.4 210L114.1 240.7L111.9 227.2L125.1 230.7L97.4 200L115.3 183.8L125.1 194.7L110.8 207.6C110.3 208.1 110.2 208.9 110.7 209.4C111.2 209.9 112 210 112.5 209.5L128.7 194.9L115.5 180.3L103 191.8C103.8 190.5 104.4 189.3 104.7 188.2C105.6 184.9 105.3 182.5 103.6 180.8C102.1 179.3 99.9 178.7 97.8 178.1C94.7 177.2 91.6 176.3 89.1 178.6C88 179.6 87.2 181 86.6 183.1C86.4 183.8 86.3 184.5 86.2 185.3C85.8 184.5 85.3 183.8 84.8 183.3C79.6 177.5 75.7 181 72.6 183.8C69.5 186.6 65.6 190.1 70.9 195.9C71.4 196.5 72.1 197 72.8 197.5C72 197.5 71.3 197.5 70.6 197.6C68.5 198 66.9 198.6 65.9 199.6C63.4 201.8 64 205.1 64.5 208.2C65 210.4 65.4 212.7 66.7 214.3ZM89.2 183.8C89.6 182.2 90.2 181.1 90.9 180.5C92.2 179.3 94.2 179.7 97.2 180.6C99 181.1 100.9 181.7 101.9 182.6C102.5 183.2 103.2 184.4 102.3 187.5C101.6 190.1 99 193.4 94.7 197.3C93.5 198.3 92.5 199.2 91.7 199.9C90.5 196.4 87.9 188.3 89.2 183.8ZM95.7 201.9L117.7 226.3L109 224L110.4 232.9L88.4 208.5L95.7 201.9ZM74.4 185.6C77.9 182.4 79.6 181.2 83 184.9C86.1 188.3 87.4 196.8 87.8 200.4C84.2 199.6 76 197.5 72.9 194C69.5 190.4 70.9 188.8 74.4 185.6ZM67.6 201.5C68.3 200.9 69.5 200.4 71.1 200.1C75.7 199.3 83.5 202.7 86.8 204.3C86.1 205 85.1 206 83.9 207C79.7 210.8 76 213.1 73.4 213.5C70.2 214.1 69.1 213.2 68.6 212.6C67.7 211.5 67.4 209.6 67 207.7C66.5 204.6 66.3 202.7 67.6 201.5Z" fill="#FAE7ED"/>
<path d="M442.7 25.8L451.1 28L476.6 34.7L485.7 0H483.1L474.7 31.7L452.9 26L459.8 0H457.2L450.5 25.3L444.6 23.7L450.8 0H448.2L442.1 23.1L420.3 17.4L424.9 0H422.3L417.3 19.1L442.7 25.8Z" fill="#FAE7ED"/>
<path d="M275.2 15.9C275.2 15.9 275.2 16 275.2 15.9C275 15.9 275 16 274.9 16C274.8 16 274.7 16.1 274.7 16.1C274.7 16.1 274.7 16.1 274.6 16.1L274.5 16.2C274.4 16.3 274.4 16.3 274.3 16.4C274.3 16.5 274.2 16.5 274.2 16.6C274.2 16.7 274.1 16.7 274.1 16.8C274.1 16.9 274.1 17 274.1 17.1C274.1 17.2 274.1 17.2 274.1 17.3C274.1 17.3 274.1 17.3 274.1 17.4C274.1 17.5 274.2 17.6 274.2 17.6C274.2 17.7 274.3 17.8 274.3 17.8V17.9L297 45.7L312 33.4L327.9 20.4L343.5 7.7L344.5 6.9L339 0H335.7L340.5 5.9L275.2 15.9ZM297.5 42.2L292.9 36.6L306.9 34.5L297.5 42.2ZM310.9 31.4L291.1 34.4L285.4 27.4L322.9 21.5L310.9 31.4ZM326.8 18.3L283.5 25.1L277.8 18.1L338.5 8.8L326.8 18.3Z" fill="#FAE7ED"/>
<path d="M268.4 16L287.9 0H283.9L268.8 12.4L259.5 1L260.8 0H256.8L255.9 0.7L268.4 16Z" fill="#FAE7ED"/>
<path d="M453 129.5C454.4 129.9 486.8 139 488.8 132L491.5 122.5C492.1 120.4 489.9 118.1 484.5 115.2C483.9 114.9 483.1 115.1 482.8 115.7C482.5 116.3 482.7 117.1 483.3 117.4C488.7 120.3 489.1 121.7 489.1 121.7C488 123.2 476.2 123 456.5 117.4C436.7 111.8 426.6 105.8 426.4 104C426.5 103.9 427.7 102.8 434.9 103.4C435.6 103.5 436.2 102.9 436.3 102.2C436.4 101.5 435.8 100.9 435.1 100.8C425.9 100 424.4 101.8 424 103.2L421.2 113C420.3 120.2 451.6 129.1 453 129.5ZM425.4 107.1C431.8 113.3 454.4 119.7 455.6 120C456.7 120.3 479.4 126.7 488.1 124.8L486.3 131.3C485.2 132.8 473.4 132.6 453.7 127C433.9 121.4 423.8 115.4 423.6 113.6L425.4 107.1Z" fill="#FAE7ED"/>
<path d="M443.1 164.6C446 165.4 471.1 172.3 472.7 166.5L480.4 139.3C480.6 138.6 480.2 137.9 479.5 137.7C478.8 137.5 478.1 137.9 477.9 138.6L470.2 165.7C469 166.8 459.2 166.5 443.7 162.1C428.2 157.7 419.7 152.9 419.2 151.3L426.9 124.2C427.1 123.5 426.7 122.8 426 122.6C425.3 122.4 424.6 122.8 424.4 123.5L416.7 150.7C415.2 156.5 440.2 163.8 443.1 164.6Z" fill="#FAE7ED"/>
<path d="M282.2 146.7C282.3 147.6 282.9 148.5 284 149.5C287.5 152.6 298.3 154.5 303.8 155.3C298.5 157.1 288.2 161 285.4 164.7C284.5 165.9 284.1 166.9 284.2 167.8C284.4 169.8 286.4 170.4 288.6 171C290.3 171.5 292.2 172 293.7 173.2C295.2 174.4 296.2 176.1 297.1 177.6C298.2 179.4 299.1 181 300.8 181.1C302.3 181.2 303.4 180 304.1 179.1C306.2 176.3 307.4 169.5 308 163.9C309.7 169.3 312.1 175.8 314.7 178.1C315.6 178.9 316.9 179.8 318.3 179.5C319.9 179.1 320.5 177.4 321.2 175.4C321.8 173.7 322.5 171.9 323.8 170.4C325.1 168.9 326.9 168.1 328.4 167.3C330.4 166.3 332.3 165.3 332.1 163.3C332 162.4 331.4 161.5 330.3 160.5C326.8 157.4 316 155.5 310.5 154.7C315.8 152.9 326.1 149 328.9 145.3C329.8 144.1 330.2 143.1 330.1 142.2C329.9 140.2 327.9 139.6 325.7 139C324 138.5 322.1 138 320.6 136.8C319.1 135.6 318.1 133.9 317.2 132.4C316.1 130.6 315.2 129 313.5 128.9C312 128.8 310.9 130 310.2 130.9C308.1 133.7 306.9 140.5 306.3 146.1C304.6 140.7 302.2 134.2 299.6 131.9C298.7 131.1 297.4 130.2 296 130.5C294.4 130.9 293.8 132.6 293.1 134.6C292.5 136.3 291.8 138.1 290.5 139.6C289.2 141 287.4 141.9 285.9 142.7C283.9 143.7 282 144.7 282.2 146.7ZM328.5 162.6C329 163.1 329.2 163.3 329.3 163.5C329 163.8 328 164.3 327.2 164.7C325.5 165.6 323.3 166.6 321.7 168.5C320 170.4 319.2 172.6 318.6 174.4C318.3 175.2 317.9 176.3 317.7 176.6C317.5 176.5 317.2 176.4 316.7 175.9C313.9 173.4 310.7 163 309.2 157.3C315 158.2 325.7 160.1 328.5 162.6ZM312.6 132.6C313 132.1 313.3 131.8 313.4 131.8C313.7 132.1 314.3 133.1 314.7 133.8C315.7 135.5 316.9 137.5 318.9 139C320.9 140.5 323.2 141.2 325 141.7C325.8 141.9 326.9 142.2 327.3 142.5C327.2 142.7 327.1 143 326.7 143.5C324.4 146.5 314.3 150.4 308.7 152.2C309.1 146.4 310.3 135.7 312.6 132.6ZM301.8 177.4C301.4 177.9 301.1 178.2 301 178.2C300.7 177.9 300.1 176.9 299.7 176.2C298.7 174.5 297.5 172.5 295.5 171C293.5 169.5 291.2 168.8 289.4 168.3C288.6 168.1 287.5 167.8 287.1 167.5C287.2 167.3 287.3 167 287.7 166.5C290 163.5 300.1 159.6 305.7 157.8C305.3 163.6 304.1 174.4 301.8 177.4ZM287.2 145.3C288.9 144.4 291.1 143.4 292.7 141.5C294.4 139.6 295.2 137.4 295.8 135.6C296.1 134.8 296.5 133.7 296.7 133.4C296.8 133.5 297.1 133.6 297.7 134.1C300.5 136.6 303.7 147 305.2 152.7C299.4 151.9 288.7 150 285.9 147.5C285.4 147.1 285.2 146.8 285.1 146.6C285.4 146.2 286.4 145.7 287.2 145.3Z" fill="#FAE7ED"/>
<path d="M268 202.5L303.8 199.1L354.7 194.3L351.3 158.5L349.9 143.4L346.5 107.6L310.7 111L295.6 112.4L259.8 115.8L263.2 151.6L268 202.5ZM294.4 115.4L295.5 126.8C295.6 127.6 296.3 128.2 297.1 128.1C297.9 128 298.5 127.3 298.4 126.5L297.3 115.1L309.5 113.9L310.6 125.3C310.7 126.1 311.4 126.7 312.2 126.6C313 126.5 313.6 125.8 313.5 125L312.4 113.6L343.9 110.6L346.9 142.1L335.5 143.2C334.7 143.3 334.1 144 334.2 144.8C334.3 145.6 335 146.2 335.8 146.1L347.2 145L348.4 157.2L337 158.3C336.2 158.4 335.6 159.1 335.7 159.9C335.8 160.7 336.5 161.3 337.3 161.2L348.7 160.1L351.7 191.6L320.2 194.6L319.1 183.2C319 182.4 318.3 181.8 317.5 181.9C316.7 182 316.1 182.7 316.2 183.5L317.3 194.9L305.1 196.1L304 184.7C303.9 183.9 303.2 183.3 302.4 183.4C301.6 183.5 301 184.2 301.1 185L302.2 196.4L270.7 199.4L267.7 167.9L279.1 166.8C279.9 166.7 280.5 166 280.4 165.2C280.3 164.4 279.6 163.8 278.8 163.9L267.4 165L266.2 152.8L277.6 151.7C278.4 151.6 279 150.9 278.9 150.1C278.8 149.3 278.1 148.7 277.3 148.8L265.9 149.9L262.9 118.4L294.4 115.4Z" fill="#FAE7ED"/>
</g>
<defs>
<clipPath id="clip0_40_3785">
<rect width="428" height="926" fill="white"/>
</clipPath>
</defs>
</svg>
